test-font-002.ufo
<glyph name="exclam" format="2">
	<unicode hex="0021"/>
	<advance width="248"/>
	<outline>
		<contour>
			<point x="48" y="0" type="line"/>
			<point x="200" y="0" type="line"/>
			<point x="216" y="16" type="line"/>
			<point x="216" y="168" type="line"/>
			<point x="200" y="184" type="line"/>
			<point x="48" y="184" type="line"/>
			<point x="32" y="168" type="line"/>
			<point x="32" y="16" type="line"/>
		</contour>
		<contour>
			<point x="84" y="264" type="line"/>
			<point x="164" y="264" type="line"/>
			<point x="180" y="280" type="line"/>
			<point x="216" y="576" type="line"/>
			<point x="216" y="784" type="line"/>
			<point x="200" y="800" type="line"/>
			<point x="48" y="800" type="line"/>
			<point x="32" y="784" type="line"/>
			<point x="32" y="576" type="line"/>
			<point x="68" y="280" type="line"/>
		</contour>
	</outline>
</glyph>
<glyph name="quotedbl" format="2">
	<unicode hex="0022"/>
	<advance width="448"/>
	<outline>
		<contour>
			<point x="48" y="496" type="line"/>
			<point x="176" y="496" type="line"/>
			<point x="192" y="512" type="line"/>
			<point x="192" y="784" type="line"/>
			<point x="176" y="800" type="line"/>
			<point x="48" y="800" type="line"/>
			<point x="32" y="784" type="line"/>
			<point x="32" y="512" type="line"/>
		</contour>
		<contour>
			<point x="272" y="496" type="line"/>
			<point x="400" y="496" type="line"/>
			<point x="416" y="512" type="line"/>
			<point x="416" y="784" type="line"/>
			<point x="400" y="800" type="line"/>
			<point x="272" y="800" type="line"/>
			<point x="256" y="784" type="line"/>
			<point x="256" y="512" type="line"/>
		</contour>
	</outline>
</glyph>
<glyph name="numbersign" format="2">
	<unicode hex="0023"/>
	<advance width="800"/>
	<outline>
		<contour>
			<point x="200" y="0" type="line"/>
			<point x="288" y="0" type="line"/>
			<point x="304" y="16" type="line"/>
			<point x="332" y="184" type="line"/>
			<point x="344" y="196" type="line"/>
			<point x="432" y="196" type="line"/>
			<point x="444" y="184" type="line"/>
			<point x="416" y="16" type="line"/>
			<point x="432" y="0" type="line"/>
			<point x="520" y="0" type="line"/>
			<point x="536" y="16" type="line"/>
			<point x="564" y="184" type="line"/>
			<point x="576" y="196" type="line"/>
			<point x="652" y="196" type="line"/>
			<point x="668" y="212" type="line"/>
			<point x="684" y="308" type="line"/>
			<point x="668" y="324" type="line"/>
			<point x="600" y="324" type="line"/>
			<point x="588" y="336" type="line"/>
			<point x="604" y="436" type="line"/>
			<point x="616" y="448" type="line"/>
			<point x="696" y="448" type="line"/>
			<point x="712" y="464" type="line"/>
			<point x="728" y="560" type="line"/>
			<point x="712" y="576" type="line"/>
			<point x="640" y="576" type="line"/>
			<point x="628" y="588" type="line"/>
			<point x="656" y="756" type="line"/>
			<point x="640" y="772" type="line"/>
			<point x="552" y="772" type="line"/>
			<point x="536" y="756" type="line"/>
			<point x="508" y="588" type="line"/>
			<point x="496" y="576" type="line"/>
			<point x="408" y="576" type="line"/>
			<point x="396" y="588" type="line"/>
			<point x="424" y="756" type="line"/>
			<point x="408" y="772" type="line"/>
			<point x="320" y="772" type="line"/>
			<point x="304" y="756" type="line"/>
			<point x="276" y="588" type="line"/>
			<point x="264" y="576" type="line"/>
			<point x="188" y="576" type="line"/>
			<point x="172" y="560" type="line"/>
			<point x="156" y="464" type="line"/>
			<point x="172" y="448" type="line"/>
			<point x="240" y="448" type="line"/>
			<point x="252" y="436" type="line"/>
			<point x="236" y="336" type="line"/>
			<point x="224" y="324" type="line"/>
			<point x="144" y="324" type="line"/>
			<point x="128" y="308" type="line"/>
			<point x="112" y="212" type="line"/>
			<point x="128" y="196" type="line"/>
			<point x="200" y="196" type="line"/>
			<point x="212" y="184" type="line"/>
			<point x="184" y="16" type="line"/>
		</contour>
		<contour>
			<point x="368" y="324" type="line"/>
			<point x="356" y="336" type="line"/>
			<point x="372" y="436" type="line"/>
			<point x="384" y="448" type="line"/>
			<point x="472" y="448" type="line"/>
			<point x="484" y="436" type="line"/>
			<point x="468" y="336" type="line"/>
			<point x="456" y="324" type="line"/>
		</contour>
	</outline>
</glyph>
<glyph name="dollar" format="2">
	<unicode hex="0024"/>
	<advance width="696"/>
	<outline>
		<contour>
			<point x="336" y="-116" type="line"/>
			<point x="372" y="-116" type="line"/>
			<point x="388" y="-100" type="line"/>
			<point x="388" y="-16" type="line"/>
			<point x="584" y="-8"/>
			<point x="672" y="92"/>
			<point x="672" y="240" type="curve" smooth="yes"/>
			<point x="672" y="352"/>
			<point x="576" y="432"/>
			<point x="400" y="472" type="curve"/>
			<point x="388" y="484" type="line"/>
			<point x="388" y="624" type="line"/>
			<point x="400" y="636" type="line"/>
			<point x="432" y="628"/>
			<point x="464" y="604"/>
			<point x="472" y="560" type="curve"/>
			<point x="488" y="544" type="line"/>
			<point x="636" y="544" type="line"/>
			<point x="652" y="560" type="line"/>
			<point x="652" y="688"/>
			<point x="540" y="768"/>
			<point x="400" y="784" type="curve"/>
			<point x="388" y="796" type="line"/>
			<point x="388" y="848" type="line"/>
			<point x="372" y="864" type="line"/>
			<point x="336" y="864" type="line"/>
			<point x="320" y="848" type="line"/>
			<point x="320" y="796" type="line"/>
			<point x="308" y="784" type="line"/>
			<point x="136" y="776"/>
			<point x="44" y="692"/>
			<point x="44" y="568" type="curve" smooth="yes"/>
			<point x="44" y="436"/>
			<point x="128" y="352"/>
			<point x="308" y="320" type="curve"/>
			<point x="320" y="308" type="line"/>
			<point x="320" y="148" type="line"/>
			<point x="308" y="136" type="line"/>
			<point x="256" y="144"/>
			<point x="216" y="180"/>
			<point x="208" y="232" type="curve"/>
			<point x="192" y="248" type="line"/>
			<point x="40" y="248" type="line"/>
			<point x="24" y="232" type="line"/>
			<point x="24" y="88"/>
			<point x="144" y="0"/>
			<point x="320" y="-16" type="curve"/>
			<point x="320" y="-100" type="line"/>
		</contour>
		<contour>
			<point x="308" y="496" type="line"/>
			<point x="252" y="508"/>
			<point x="228" y="540"/>
			<point x="228" y="568" type="curve" smooth="yes"/>
			<point x="228" y="608"/>
			<point x="272" y="632"/>
			<point x="308" y="640" type="curve"/>
			<point x="320" y="628" type="line"/>
			<point x="320" y="508" type="line"/>
		</contour>
		<contour>
			<point x="400" y="136" type="curve"/>
			<point x="388" y="148" type="line"/>
			<point x="388" y="280" type="line"/>
			<point x="400" y="292" type="line"/>
			<point x="456" y="276"/>
			<point x="480" y="256"/>
			<point x="480" y="216" type="curve" smooth="yes"/>
			<point x="480" y="168"/>
			<point x="452" y="148"/>
		</contour>
	</outline>
</glyph>
<glyph name="percent" format="2">
	<unicode hex="0025"/>
	<advance width="984"/>
	<outline>
		<contour>
			<point x="268" y="0" type="line"/>
			<point x="332" y="0" type="line"/>
			<point x="348" y="16" type="line"/>
			<point x="736" y="732" type="line"/>
			<point x="736" y="748" type="line"/>
			<point x="720" y="764" type="line"/>
			<point x="656" y="764" type="line"/>
			<point x="640" y="748" type="line"/>
			<point x="252" y="32" type="line"/>
			<point x="252" y="16" type="line"/>
		</contour>
		<contour>
			<point x="236" y="336" type="curve" smooth="yes"/>
			<point x="360" y="336"/>
			<point x="440" y="432"/>
			<point x="440" y="556" type="curve" smooth="yes"/>
			<point x="440" y="700"/>
			<point x="348" y="776"/>
			<point x="236" y="776" type="curve" smooth="yes"/>
			<point x="120" y="776"/>
			<point x="32" y="700"/>
			<point x="32" y="556" type="curve" smooth="yes"/>
			<point x="32" y="432"/>
			<point x="104" y="336"/>
		</contour>
		<contour>
			<point x="236" y="424" type="curve" smooth="yes"/>
			<point x="184" y="424"/>
			<point x="168" y="484"/>
			<point x="168" y="556" type="curve" smooth="yes"/>
			<point x="168" y="620"/>
			<point x="184" y="688"/>
			<point x="236" y="688" type="curve" smooth="yes"/>
			<point x="288" y="688"/>
			<point x="304" y="620"/>
			<point x="304" y="556" type="curve" smooth="yes"/>
			<point x="304" y="484"/>
			<point x="292" y="424"/>
		</contour>
		<contour>
			<point x="748" y="-16" type="curve" smooth="yes"/>
			<point x="872" y="-16"/>
			<point x="952" y="80"/>
			<point x="952" y="204" type="curve" smooth="yes"/>
			<point x="952" y="348"/>
			<point x="860" y="424"/>
			<point x="748" y="424" type="curve" smooth="yes"/>
			<point x="632" y="424"/>
			<point x="544" y="348"/>
			<point x="544" y="204" type="curve" smooth="yes"/>
			<point x="544" y="80"/>
			<point x="616" y="-16"/>
		</contour>
		<contour>
			<point x="748" y="72" type="curve" smooth="yes"/>
			<point x="696" y="72"/>
			<point x="680" y="132"/>
			<point x="680" y="204" type="curve" smooth="yes"/>
			<point x="680" y="268"/>
			<point x="696" y="336"/>
			<point x="748" y="336" type="curve" smooth="yes"/>
			<point x="800" y="336"/>
			<point x="816" y="268"/>
			<point x="816" y="204" type="curve" smooth="yes"/>
			<point x="816" y="132"/>
			<point x="804" y="72"/>
		</contour>
	</outline>
</glyph>
<glyph name="ampersand" format="2">
	<unicode hex="0026"/>
	<advance width="736"/>
	<outline>
		<contour>
			<point x="300" y="-16" type="curve" smooth="yes"/>
			<point x="384" y="-16"/>
			<point x="444" y="0"/>
			<point x="508" y="40" type="curve"/>
			<point x="524" y="40" type="line"/>
			<point x="548" y="12" type="line"/>
			<point x="564" y="0" type="line"/>
			<point x="704" y="0" type="line"/>
			<point x="720" y="16" type="line"/>
			<point x="720" y="44" type="line"/>
			<point x="632" y="160" type="line"/>
			<point x="632" y="176" type="line"/>
			<point x="672" y="220"/>
			<point x="716" y="288"/>
			<point x="716" y="376" type="curve"/>
			<point x="708" y="384" type="line"/>
			<point x="580" y="384" type="line"/>
			<point x="568" y="376" type="line"/>
			<point x="568" y="348"/>
			<point x="556" y="316"/>
			<point x="540" y="296" type="curve"/>
			<point x="528" y="296" type="line"/>
			<point x="444" y="404" type="line"/>
			<point x="444" y="420" type="line"/>
			<point x="520" y="468"/>
			<point x="584" y="532"/>
			<point x="584" y="608" type="curve" smooth="yes"/>
			<point x="584" y="736"/>
			<point x="488" y="816"/>
			<point x="360" y="816" type="curve" smooth="yes"/>
			<point x="232" y="816"/>
			<point x="136" y="736"/>
			<point x="136" y="608" type="curve" smooth="yes"/>
			<point x="136" y="552"/>
			<point x="176" y="488"/>
			<point x="200" y="460" type="curve"/>
			<point x="200" y="444" type="line"/>
			<point x="88" y="372"/>
			<point x="16" y="320"/>
			<point x="16" y="204" type="curve" smooth="yes"/>
			<point x="16" y="80"/>
			<point x="116" y="-16"/>
		</contour>
		<contour>
			<point x="340" y="528" type="line"/>
			<point x="320" y="552"/>
			<point x="296" y="584"/>
			<point x="296" y="616" type="curve" smooth="yes"/>
			<point x="296" y="652"/>
			<point x="312" y="676"/>
			<point x="348" y="676" type="curve" smooth="yes"/>
			<point x="384" y="676"/>
			<point x="412" y="652"/>
			<point x="412" y="616" type="curve" smooth="yes"/>
			<point x="412" y="580"/>
			<point x="396" y="552"/>
			<point x="356" y="528" type="curve"/>
		</contour>
		<contour>
			<point x="316" y="136" type="curve" smooth="yes"/>
			<point x="256" y="136"/>
			<point x="204" y="164"/>
			<point x="204" y="224" type="curve" smooth="yes"/>
			<point x="204" y="268"/>
			<point x="232" y="300"/>
			<point x="284" y="332" type="curve"/>
			<point x="300" y="332" type="line"/>
			<point x="416" y="180" type="line"/>
			<point x="416" y="164" type="line"/>
			<point x="392" y="144"/>
			<point x="356" y="136"/>
		</contour>
	</outline>
</glyph>
<glyph name="quotesingle" format="2">
	<unicode hex="0027"/>
	<advance width="224"/>
	<outline>
		<contour>
			<point x="48" y="496" type="line"/>
			<point x="176" y="496" type="line"/>
			<point x="192" y="512" type="line"/>
			<point x="192" y="784" type="line"/>
			<point x="176" y="800" type="line"/>
			<point x="48" y="800" type="line"/>
			<point x="32" y="784" type="line"/>
			<point x="32" y="512" type="line"/>
		</contour>
	</outline>
</glyph>
<glyph name="parenleft" format="2">
	<unicode hex="0028"/>
	<advance width="352"/>
	<outline>
		<contour>
			<point x="184" y="-156" type="line"/>
			<point x="304" y="-156" type="line"/>
			<point x="320" y="-140" type="line"/>
			<point x="320" y="-124" type="line"/>
			<point x="252" y="-12"/>
			<point x="212" y="184"/>
			<point x="212" y="332" type="curve" smooth="yes"/>
			<point x="212" y="512"/>
			<point x="240" y="696"/>
			<point x="320" y="816" type="curve"/>
			<point x="320" y="832" type="line"/>
			<point x="304" y="848" type="line"/>
			<point x="176" y="848" type="line"/>
			<point x="160" y="832" type="line"/>
			<point x="88" y="712"/>
			<point x="32" y="540"/>
			<point x="32" y="332" type="curve" smooth="yes"/>
			<point x="32" y="148"/>
			<point x="92" y="-36"/>
			<point x="168" y="-140" type="curve"/>
		</contour>
	</outline>
</glyph>
<glyph name="parenright" format="2">
	<unicode hex="0029"/>
	<advance width="352"/>
	<outline>
		<contour>
			<point x="168" y="-156" type="line"/>
			<point x="184" y="-140" type="line"/>
			<point x="260" y="-36"/>
			<point x="320" y="148"/>
			<point x="320" y="332" type="curve" smooth="yes"/>
			<point x="320" y="540"/>
			<point x="264" y="712"/>
			<point x="192" y="832" type="curve"/>
			<point x="176" y="848" type="line"/>
			<point x="48" y="848" type="line"/>
			<point x="32" y="832" type="line"/>
			<point x="32" y="816" type="line"/>
			<point x="112" y="696"/>
			<point x="140" y="512"/>
			<point x="140" y="332" type="curve" smooth="yes"/>
			<point x="140" y="184"/>
			<point x="100" y="-12"/>
			<point x="32" y="-124" type="curve"/>
			<point x="32" y="-140" type="line"/>
			<point x="48" y="-156" type="line"/>
		</contour>
	</outline>
</glyph>
<glyph name="asterisk" format="2">
	<unicode hex="002A"/>
	<advance width="476"/>
	<outline>
		<contour>
			<point x="32" y="628" type="line"/>
			<point x="40" y="612" type="line"/>
			<point x="160" y="576" type="line"/>
			<point x="84" y="472" type="line"/>
			<point x="84" y="456" type="line"/>
			<point x="148" y="404" type="line"/>
			<point x="164" y="404" type="line"/>
			<point x="232" y="516" type="line"/>
			<point x="248" y="516" type="line"/>
			<point x="316" y="404" type="line"/>
			<point x="332" y="404" type="line"/>
			<point x="396" y="456" type="line"/>
			<point x="396" y="472" type="line"/>
			<point x="320" y="576" type="line"/>
			<point x="436" y="612" type="line"/>
			<point x="444" y="628" type="line"/>
			<point x="420" y="692" type="line"/>
			<point x="404" y="700" type="line"/>
			<point x="296" y="664" type="line"/>
			<point x="296" y="784" type="line"/>
			<point x="280" y="800" type="line"/>
			<point x="200" y="800" type="line"/>
			<point x="184" y="784" type="line"/>
			<point x="184" y="664" type="line"/>
			<point x="72" y="700" type="line"/>
			<point x="56" y="692" type="line"/>
		</contour>
	</outline>
</glyph>
<glyph name="plus" format="2">
	<unicode hex="002B"/>
	<advance width="608"/>
	<outline>
		<contour>
			<point x="244" y="88" type="line"/>
			<point x="368" y="88" type="line"/>
			<point x="384" y="104" type="line"/>
			<point x="384" y="296" type="line"/>
			<point x="560" y="296" type="line"/>
			<point x="576" y="312" type="line"/>
			<point x="576" y="428" type="line"/>
			<point x="560" y="444" type="line"/>
			<point x="384" y="444" type="line"/>
			<point x="384" y="632" type="line"/>
			<point x="368" y="648" type="line"/>
			<point x="244" y="648" type="line"/>
			<point x="228" y="632" type="line"/>
			<point x="228" y="444" type="line"/>
			<point x="48" y="444" type="line"/>
			<point x="32" y="428" type="line"/>
			<point x="32" y="312" type="line"/>
			<point x="48" y="296" type="line"/>
			<point x="228" y="296" type="line"/>
			<point x="228" y="104" type="line"/>
		</contour>
	</outline>
</glyph>
<glyph name="comma" format="2">
	<unicode hex="002C"/>
	<advance width="260"/>
	<outline>
		<contour>
			<point x="52" y="-192" type="line"/>
			<point x="100" y="-192" type="line"/>
			<point x="116" y="-184" type="line"/>
			<point x="228" y="0" type="line"/>
			<point x="228" y="172" type="line"/>
			<point x="212" y="188" type="line"/>
			<point x="48" y="188" type="line"/>
			<point x="32" y="172" type="line"/>
			<point x="32" y="16" type="line"/>
			<point x="48" y="0" type="line"/>
			<point x="84" y="0" type="line"/>
			<point x="96" y="-12" type="line"/>
			<point x="96" y="-28" type="line"/>
			<point x="36" y="-128" type="line"/>
			<point x="36" y="-176" type="line"/>
		</contour>
	</outline>
</glyph>
<glyph name="hyphen" format="2">
	<unicode hex="002D"/>
	<advance width="404"/>
	<outline>
		<contour>
			<point x="48" y="188" type="line"/>
			<point x="356" y="188" type="line"/>
			<point x="372" y="204" type="line"/>
			<point x="372" y="328" type="line"/>
			<point x="356" y="344" type="line"/>
			<point x="48" y="344" type="line"/>
			<point x="32" y="328" type="line"/>
			<point x="32" y="204" type="line"/>
		</contour>
	</outline>
</glyph>
<glyph name="period" format="2">
	<unicode hex="002E"/>
	<advance width="260"/>
	<outline>
		<contour>
			<point x="48" y="0" type="line"/>
			<point x="212" y="0" type="line"/>
			<point x="228" y="16" type="line"/>
			<point x="228" y="172" type="line"/>
			<point x="212" y="188" type="line"/>
			<point x="48" y="188" type="line"/>
			<point x="32" y="172" type="line"/>
			<point x="32" y="16" type="line"/>
		</contour>
	</outline>
</glyph>
<glyph name="slash" format="2">
	<unicode hex="002F"/>
	<advance width="496"/>
	<outline>
		<contour>
			<point x="48" y="0" type="line"/>
			<point x="168" y="0" type="line"/>
			<point x="184" y="16" type="line"/>
			<point x="464" y="768" type="line"/>
			<point x="464" y="784" type="line"/>
			<point x="448" y="800" type="line"/>
			<point x="328" y="800" type="line"/>
			<point x="312" y="784" type="line"/>
			<point x="32" y="32" type="line"/>
			<point x="32" y="16" type="line"/>
		</contour>
	</outline>
</glyph>
<glyph name="zero" format="2">
	<unicode hex="0030"/>
	<advance width="712"/>
	<outline>
		<contour>
			<point x="356" y="-16" type="curve" smooth="yes"/>
			<point x="516" y="-16"/>
			<point x="696" y="92"/>
			<point x="696" y="400" type="curve" smooth="yes"/>
			<point x="696" y="672"/>
			<point x="516" y="784"/>
			<point x="356" y="784" type="curve" smooth="yes"/>
			<point x="196" y="784"/>
			<point x="16" y="672"/>
			<point x="16" y="400" type="curve" smooth="yes"/>
			<point x="16" y="92"/>
			<point x="196" y="-16"/>
		</contour>
		<contour>
			<point x="356" y="132" type="curve" smooth="yes"/>
			<point x="252" y="132"/>
			<point x="212" y="216"/>
			<point x="212" y="400" type="curve" smooth="yes"/>
			<point x="212" y="536"/>
			<point x="252" y="640"/>
			<point x="356" y="640" type="curve" smooth="yes"/>
			<point x="460" y="640"/>
			<point x="500" y="536"/>
			<point x="500" y="400" type="curve" smooth="yes"/>
			<point x="500" y="216"/>
			<point x="460" y="132"/>
		</contour>
	</outline>
</glyph>
<glyph name="one" format="2">
	<unicode hex="0031"/>
	<advance width="396"/>
	<outline>
		<contour>
			<point x="188" y="0" type="line"/>
			<point x="348" y="0" type="line"/>
			<point x="364" y="16" type="line"/>
			<point x="364" y="760" type="line"/>
			<point x="348" y="776" type="line"/>
			<point x="220" y="776" type="line"/>
			<point x="204" y="760" type="line"/>
			<point x="192" y="676"/>
			<point x="108" y="628"/>
			<point x="24" y="628" type="curve"/>
			<point x="8" y="612" type="line"/>
			<point x="8" y="512" type="line"/>
			<point x="24" y="496" type="line"/>
			<point x="160" y="496" type="line"/>
			<point x="172" y="480" type="line"/>
			<point x="172" y="16" type="line"/>
		</contour>
	</outline>
</glyph>
<glyph name="two" format="2">
	<unicode hex="0032"/>
	<advance width="632"/>
	<outline>
		<contour>
			<point x="32" y="0" type="line"/>
			<point x="592" y="0" type="line"/>
			<point x="608" y="16" type="line"/>
			<point x="608" y="140" type="line"/>
			<point x="592" y="156" type="line"/>
			<point x="284" y="156" type="line"/>
			<point x="284" y="172" type="line"/>
			<point x="296" y="196"/>
			<point x="352" y="232"/>
			<point x="456" y="304" type="curve" smooth="yes"/>
			<point x="532" y="356"/>
			<point x="608" y="420"/>
			<point x="608" y="544" type="curve" smooth="yes"/>
			<point x="608" y="676"/>
			<point x="512" y="788"/>
			<point x="324" y="788" type="curve" smooth="yes"/>
			<point x="128" y="788"/>
			<point x="20" y="676"/>
			<point x="20" y="500" type="curve"/>
			<point x="36" y="484" type="line"/>
			<point x="184" y="484" type="line"/>
			<point x="200" y="500" type="line"/>
			<point x="204" y="576"/>
			<point x="236" y="632"/>
			<point x="316" y="632" type="curve" smooth="yes"/>
			<point x="372" y="632"/>
			<point x="416" y="600"/>
			<point x="416" y="544" type="curve" smooth="yes"/>
			<point x="416" y="444"/>
			<point x="300" y="392"/>
			<point x="200" y="312" type="curve" smooth="yes"/>
			<point x="124" y="252"/>
			<point x="32" y="196"/>
			<point x="16" y="48" type="curve"/>
			<point x="16" y="16" type="line"/>
		</contour>
	</outline>
</glyph>
<glyph name="three" format="2">
	<unicode hex="0033"/>
	<advance width="676"/>
	<outline>
		<contour>
			<point x="332" y="-16" type="curve" smooth="yes"/>
			<point x="532" y="-16"/>
			<point x="644" y="80"/>
			<point x="644" y="232" type="curve" smooth="yes"/>
			<point x="644" y="336"/>
			<point x="588" y="388"/>
			<point x="516" y="408" type="curve"/>
			<point x="516" y="424" type="line"/>
			<point x="572" y="452"/>
			<point x="620" y="492"/>
			<point x="620" y="576" type="curve" smooth="yes"/>
			<point x="620" y="724"/>
			<point x="492" y="784"/>
			<point x="332" y="784" type="curve" smooth="yes"/>
			<point x="196" y="784"/>
			<point x="40" y="712"/>
			<point x="40" y="544" type="curve"/>
			<point x="56" y="528" type="line"/>
			<point x="200" y="528" type="line"/>
			<point x="216" y="544" type="line"/>
			<point x="216" y="608"/>
			<point x="264" y="644"/>
			<point x="332" y="644" type="curve" smooth="yes"/>
			<point x="400" y="644"/>
			<point x="436" y="608"/>
			<point x="436" y="560" type="curve" smooth="yes"/>
			<point x="436" y="492"/>
			<point x="384" y="468"/>
			<point x="332" y="468" type="curve" smooth="yes"/>
			<point x="292" y="468" type="line"/>
			<point x="276" y="452" type="line"/>
			<point x="276" y="352" type="line"/>
			<point x="292" y="336" type="line"/>
			<point x="336" y="336" type="line" smooth="yes"/>
			<point x="420" y="336"/>
			<point x="452" y="292"/>
			<point x="452" y="236" type="curve" smooth="yes"/>
			<point x="452" y="152"/>
			<point x="396" y="128"/>
			<point x="332" y="128" type="curve" smooth="yes"/>
			<point x="240" y="128"/>
			<point x="196" y="176"/>
			<point x="196" y="232" type="curve" smooth="yes"/>
			<point x="196" y="248" type="line"/>
			<point x="180" y="264" type="line"/>
			<point x="32" y="264" type="line"/>
			<point x="16" y="248" type="line"/>
			<point x="16" y="232" type="line" smooth="yes"/>
			<point x="16" y="88"/>
			<point x="144" y="-16"/>
		</contour>
	</outline>
</glyph>
<glyph name="four" format="2">
	<unicode hex="0034"/>
	<advance width="692"/>
	<outline>
		<contour>
			<point x="388" y="0" type="line"/>
			<point x="540" y="0" type="line"/>
			<point x="556" y="16" type="line"/>
			<point x="556" y="160" type="line"/>
			<point x="568" y="172" type="line"/>
			<point x="652" y="172" type="line"/>
			<point x="668" y="188" type="line"/>
			<point x="668" y="300" type="line"/>
			<point x="652" y="316" type="line"/>
			<point x="568" y="316" type="line"/>
			<point x="556" y="328" type="line"/>
			<point x="556" y="760" type="line"/>
			<point x="540" y="776" type="line"/>
			<point x="384" y="776" type="line"/>
			<point x="352" y="760" type="line"/>
			<point x="24" y="356" type="line"/>
			<point x="16" y="340" type="line"/>
			<point x="16" y="188" type="line"/>
			<point x="32" y="172" type="line"/>
			<point x="360" y="172" type="line"/>
			<point x="372" y="160" type="line"/>
			<point x="372" y="16" type="line"/>
		</contour>
		<contour>
			<point x="164" y="316" type="line"/>
			<point x="164" y="332" type="line"/>
			<point x="356" y="564" type="line"/>
			<point x="372" y="564" type="line"/>
			<point x="372" y="328" type="line"/>
			<point x="360" y="316" type="line"/>
		</contour>
	</outline>
</glyph>
<glyph name="five" format="2">
	<unicode hex="0035"/>
	<advance width="652"/>
	<outline>
		<contour>
			<point x="336" y="-16" type="curve" smooth="yes"/>
			<point x="496" y="-16"/>
			<point x="636" y="80"/>
			<point x="636" y="260" type="curve" smooth="yes"/>
			<point x="636" y="412"/>
			<point x="540" y="528"/>
			<point x="380" y="528" type="curve" smooth="yes"/>
			<point x="316" y="528"/>
			<point x="280" y="520"/>
			<point x="240" y="488" type="curve"/>
			<point x="224" y="488" type="line"/>
			<point x="244" y="608" type="line"/>
			<point x="256" y="620" type="line"/>
			<point x="576" y="620" type="line"/>
			<point x="592" y="636" type="line"/>
			<point x="592" y="756" type="line"/>
			<point x="576" y="772" type="line"/>
			<point x="128" y="772" type="line"/>
			<point x="112" y="756" type="line"/>
			<point x="40" y="380" type="line"/>
			<point x="40" y="364" type="line"/>
			<point x="56" y="348" type="line"/>
			<point x="216" y="348" type="line"/>
			<point x="236" y="368"/>
			<point x="260" y="392"/>
			<point x="324" y="392" type="curve" smooth="yes"/>
			<point x="396" y="392"/>
			<point x="448" y="344"/>
			<point x="448" y="260" type="curve" smooth="yes"/>
			<point x="448" y="184"/>
			<point x="396" y="132"/>
			<point x="324" y="132" type="curve" smooth="yes"/>
			<point x="252" y="132"/>
			<point x="204" y="160"/>
			<point x="192" y="216" type="curve"/>
			<point x="176" y="232" type="line"/>
			<point x="24" y="232" type="line"/>
			<point x="8" y="216" type="line"/>
			<point x="8" y="72"/>
			<point x="152" y="-16"/>
		</contour>
	</outline>
</glyph>
<glyph name="six" format="2">
	<unicode hex="0036"/>
	<advance width="672"/>
	<outline>
		<contour>
			<point x="340" y="-16" type="curve" smooth="yes"/>
			<point x="520" y="-16"/>
			<point x="656" y="76"/>
			<point x="656" y="264" type="curve" smooth="yes"/>
			<point x="656" y="424"/>
			<point x="524" y="528"/>
			<point x="388" y="528" type="curve" smooth="yes"/>
			<point x="284" y="528"/>
			<point x="244" y="488"/>
			<point x="216" y="456" type="curve"/>
			<point x="200" y="456" type="line"/>
			<point x="200" y="568"/>
			<point x="256" y="652"/>
			<point x="348" y="652" type="curve" smooth="yes"/>
			<point x="412" y="652"/>
			<point x="436" y="628"/>
			<point x="452" y="592" type="curve"/>
			<point x="468" y="576" type="line"/>
			<point x="612" y="576" type="line"/>
			<point x="628" y="592" type="line"/>
			<point x="616" y="716"/>
			<point x="492" y="784"/>
			<point x="348" y="784" type="curve" smooth="yes"/>
			<point x="184" y="784"/>
			<point x="16" y="684"/>
			<point x="16" y="388" type="curve" smooth="yes"/>
			<point x="16" y="80"/>
			<point x="176" y="-16"/>
		</contour>
		<contour>
			<point x="340" y="124" type="curve" smooth="yes"/>
			<point x="280" y="124"/>
			<point x="212" y="168"/>
			<point x="212" y="264" type="curve" smooth="yes"/>
			<point x="212" y="340"/>
			<point x="276" y="392"/>
			<point x="344" y="392" type="curve" smooth="yes"/>
			<point x="420" y="392"/>
			<point x="480" y="340"/>
			<point x="480" y="264" type="curve" smooth="yes"/>
			<point x="480" y="164"/>
			<point x="408" y="124"/>
		</contour>
	</outline>
</glyph>
<glyph name="seven" format="2">
	<unicode hex="0037"/>
	<advance width="600"/>
	<outline>
		<contour>
			<point x="140" y="0" type="line"/>
			<point x="304" y="0" type="line"/>
			<point x="320" y="16" type="line"/>
			<point x="320" y="248"/>
			<point x="428" y="456"/>
			<point x="568" y="608" type="curve"/>
			<point x="584" y="640" type="line"/>
			<point x="584" y="756" type="line"/>
			<point x="568" y="772" type="line"/>
			<point x="32" y="772" type="line"/>
			<point x="16" y="756" type="line"/>
			<point x="16" y="624" type="line"/>
			<point x="32" y="608" type="line"/>
			<point x="372" y="608" type="line"/>
			<point x="372" y="592" type="line"/>
			<point x="236" y="456"/>
			<point x="124" y="240"/>
			<point x="124" y="16" type="curve"/>
		</contour>
	</outline>
</glyph>
<glyph name="eight" format="2">
	<unicode hex="0038"/>
	<advance width="692"/>
	<outline>
		<contour>
			<point x="340" y="-16" type="curve" smooth="yes"/>
			<point x="524" y="-16"/>
			<point x="668" y="68"/>
			<point x="668" y="220" type="curve" smooth="yes"/>
			<point x="668" y="332"/>
			<point x="612" y="380"/>
			<point x="536" y="412" type="curve"/>
			<point x="536" y="428" type="line"/>
			<point x="572" y="448"/>
			<point x="632" y="480"/>
			<point x="632" y="572" type="curve" smooth="yes"/>
			<point x="632" y="696"/>
			<point x="544" y="784"/>
			<point x="340" y="784" type="curve" smooth="yes"/>
			<point x="152" y="784"/>
			<point x="56" y="696"/>
			<point x="56" y="572" type="curve" smooth="yes"/>
			<point x="56" y="480"/>
			<point x="116" y="444"/>
			<point x="148" y="424" type="curve"/>
			<point x="148" y="408" type="line"/>
			<point x="88" y="380"/>
			<point x="24" y="332"/>
			<point x="24" y="220" type="curve" smooth="yes"/>
			<point x="24" y="68"/>
			<point x="156" y="-16"/>
		</contour>
		<contour>
			<point x="340" y="468" type="curve" smooth="yes"/>
			<point x="276" y="468"/>
			<point x="228" y="508"/>
			<point x="228" y="564" type="curve" smooth="yes"/>
			<point x="228" y="620"/>
			<point x="276" y="656"/>
			<point x="340" y="656" type="curve" smooth="yes"/>
			<point x="412" y="656"/>
			<point x="460" y="620"/>
			<point x="460" y="564" type="curve" smooth="yes"/>
			<point x="460" y="508"/>
			<point x="412" y="468"/>
		</contour>
		<contour>
			<point x="340" y="124" type="curve" smooth="yes"/>
			<point x="252" y="124"/>
			<point x="212" y="180"/>
			<point x="212" y="232" type="curve" smooth="yes"/>
			<point x="212" y="304"/>
			<point x="268" y="348"/>
			<point x="340" y="348" type="curve" smooth="yes"/>
			<point x="420" y="348"/>
			<point x="476" y="304"/>
			<point x="476" y="232" type="curve" smooth="yes"/>
			<point x="476" y="180"/>
			<point x="444" y="124"/>
		</contour>
	</outline>
</glyph>
<glyph name="nine" format="2">
	<unicode hex="0039"/>
	<advance width="676"/>
	<outline>
		<contour>
			<point x="340" y="784" type="curve" smooth="yes"/>
			<point x="172" y="784"/>
			<point x="16" y="704"/>
			<point x="16" y="516" type="curve" smooth="yes"/>
			<point x="16" y="344"/>
			<point x="140" y="240"/>
			<point x="296" y="240" type="curve" smooth="yes"/>
			<point x="372" y="240"/>
			<point x="424" y="268"/>
			<point x="456" y="308" type="curve"/>
			<point x="472" y="308" type="line"/>
			<point x="472" y="180"/>
			<point x="404" y="120"/>
			<point x="332" y="120" type="curve" smooth="yes"/>
			<point x="268" y="120"/>
			<point x="244" y="144"/>
			<point x="228" y="176" type="curve"/>
			<point x="212" y="192" type="line"/>
			<point x="64" y="192" type="line"/>
			<point x="48" y="176" type="line"/>
			<point x="60" y="48"/>
			<point x="188" y="-16"/>
			<point x="332" y="-16" type="curve" smooth="yes"/>
			<point x="500" y="-16"/>
			<point x="660" y="92"/>
			<point x="660" y="396" type="curve" smooth="yes"/>
			<point x="660" y="660"/>
			<point x="504" y="784"/>
		</contour>
		<contour>
			<point x="328" y="644" type="curve" smooth="yes"/>
			<point x="408" y="644"/>
			<point x="468" y="592"/>
			<point x="468" y="516" type="curve" smooth="yes"/>
			<point x="468" y="436"/>
			<point x="408" y="380"/>
			<point x="332" y="380" type="curve" smooth="yes"/>
			<point x="244" y="380"/>
			<point x="196" y="436"/>
			<point x="196" y="516" type="curve" smooth="yes"/>
			<point x="196" y="576"/>
			<point x="240" y="644"/>
		</contour>
	</outline>
</glyph>
<glyph name="less" format="2">
	<unicode hex="003C"/>
	<advance width="528"/>
	<outline>
		<contour>
			<point x="480" y="452" type="line"/>
			<point x="496" y="468" type="line"/>
			<point x="496" y="592" type="line"/>
			<point x="480" y="608" type="line"/>
			<point x="464" y="608" type="line"/>
			<point x="48" y="440" type="line"/>
			<point x="32" y="424" type="line"/>
			<point x="32" y="268" type="line"/>
			<point x="48" y="252" type="line"/>
			<point x="464" y="84" type="line"/>
			<point x="480" y="84" type="line"/>
			<point x="496" y="100" type="line"/>
			<point x="496" y="220" type="line"/>
			<point x="480" y="236" type="line"/>
			<point x="196" y="340" type="line"/>
			<point x="196" y="356" type="line"/>
		</contour>
	</outline>
</glyph>
<glyph name="equal" format="2">
	<unicode hex="003D"/>
	<advance width="588"/>
	<outline>
		<contour>
			<point x="48" y="156" type="line"/>
			<point x="540" y="156" type="line"/>
			<point x="556" y="172" type="line"/>
			<point x="556" y="284" type="line"/>
			<point x="540" y="300" type="line"/>
			<point x="48" y="300" type="line"/>
			<point x="32" y="284" type="line"/>
			<point x="32" y="172" type="line"/>
		</contour>
		<contour>
			<point x="48" y="392" type="line"/>
			<point x="540" y="392" type="line"/>
			<point x="556" y="408" type="line"/>
			<point x="556" y="520" type="line"/>
			<point x="540" y="536" type="line"/>
			<point x="48" y="536" type="line"/>
			<point x="32" y="520" type="line"/>
			<point x="32" y="408" type="line"/>
		</contour>
	</outline>
</glyph>
<glyph name="greater" format="2">
	<unicode hex="003E"/>
	<advance width="528"/>
	<outline>
		<contour>
			<point x="48" y="452" type="line"/>
			<point x="332" y="356" type="line"/>
			<point x="332" y="340" type="line"/>
			<point x="48" y="236" type="line"/>
			<point x="32" y="220" type="line"/>
			<point x="32" y="100" type="line"/>
			<point x="48" y="84" type="line"/>
			<point x="64" y="84" type="line"/>
			<point x="480" y="252" type="line"/>
			<point x="496" y="268" type="line"/>
			<point x="496" y="424" type="line"/>
			<point x="480" y="440" type="line"/>
			<point x="64" y="608" type="line"/>
			<point x="48" y="608" type="line"/>
			<point x="32" y="592" type="line"/>
			<point x="32" y="468" type="line"/>
		</contour>
	</outline>
</glyph>
<glyph name="question" format="2">
	<unicode hex="003F"/>
	<advance width="608"/>
	<outline>
		<contour>
			<point x="228" y="260" type="line"/>
			<point x="356" y="260" type="line"/>
			<point x="372" y="276" type="line"/>
			<point x="372" y="292" type="line" smooth="yes"/>
			<point x="372" y="388"/>
			<point x="592" y="400"/>
			<point x="592" y="576" type="curve" smooth="yes"/>
			<point x="592" y="740"/>
			<point x="468" y="816"/>
			<point x="304" y="816" type="curve" smooth="yes"/>
			<point x="152" y="816"/>
			<point x="16" y="724"/>
			<point x="16" y="576" type="curve"/>
			<point x="32" y="560" type="line"/>
			<point x="180" y="560" type="line"/>
			<point x="196" y="576" type="line"/>
			<point x="196" y="632"/>
			<point x="248" y="664"/>
			<point x="304" y="664" type="curve" smooth="yes"/>
			<point x="368" y="664"/>
			<point x="400" y="640"/>
			<point x="400" y="576" type="curve" smooth="yes"/>
			<point x="400" y="476"/>
			<point x="212" y="468"/>
			<point x="212" y="308" type="curve" smooth="yes"/>
			<point x="212" y="276" type="line"/>
		</contour>
		<contour>
			<point x="212" y="0" type="line"/>
			<point x="364" y="0" type="line"/>
			<point x="380" y="16" type="line"/>
			<point x="380" y="168" type="line"/>
			<point x="364" y="184" type="line"/>
			<point x="212" y="184" type="line"/>
			<point x="196" y="168" type="line"/>
			<point x="196" y="16" type="line"/>
		</contour>
	</outline>
</glyph>
<glyph name="at" format="2">
	<unicode hex="0040"/>
	<advance width="976"/>
	<outline>
		<contour>
			<point x="472" y="220" type="curve" smooth="yes"/>
			<point x="396" y="220"/>
			<point x="400" y="292"/>
			<point x="400" y="328" type="curve" smooth="yes"/>
			<point x="400" y="424"/>
			<point x="452" y="472"/>
			<point x="492" y="472" type="curve" smooth="yes"/>
			<point x="552" y="472"/>
			<point x="564" y="416"/>
			<point x="564" y="348" type="curve" smooth="yes"/>
			<point x="564" y="288"/>
			<point x="528" y="220"/>
		</contour>
		<contour>
			<point x="588" y="508" type="line"/>
			<point x="576" y="508" type="line"/>
			<point x="568" y="540"/>
			<point x="528" y="592"/>
			<point x="456" y="592" type="curve" smooth="yes"/>
			<point x="332" y="592"/>
			<point x="236" y="496"/>
			<point x="236" y="328" type="curve" smooth="yes"/>
			<point x="236" y="208"/>
			<point x="292" y="100"/>
			<point x="412" y="100" type="curve" smooth="yes"/>
			<point x="492" y="100"/>
			<point x="540" y="132"/>
			<point x="564" y="176" type="curve"/>
			<point x="576" y="176" type="line"/>
			<point x="608" y="132"/>
			<point x="652" y="96"/>
			<point x="752" y="96" type="curve" smooth="yes"/>
			<point x="872" y="96"/>
			<point x="960" y="228"/>
			<point x="960" y="372" type="curve" smooth="yes"/>
			<point x="960" y="600"/>
			<point x="816" y="816"/>
			<point x="516" y="816" type="curve" smooth="yes"/>
			<point x="220" y="816"/>
			<point x="16" y="584"/>
			<point x="16" y="328" type="curve" smooth="yes"/>
			<point x="16" y="48"/>
			<point x="192" y="-136"/>
			<point x="496" y="-136" type="curve" smooth="yes"/>
			<point x="544" y="-136" type="line"/>
			<point x="560" y="-120" type="line"/>
			<point x="560" y="-52" type="line"/>
			<point x="544" y="-36" type="line"/>
			<point x="480" y="-36" type="line" smooth="yes"/>
			<point x="308" y="-36"/>
			<point x="128" y="72"/>
			<point x="128" y="328" type="curve" smooth="yes"/>
			<point x="128" y="608"/>
			<point x="328" y="712"/>
			<point x="516" y="712" type="curve" smooth="yes"/>
			<point x="724" y="712"/>
			<point x="848" y="604"/>
			<point x="856" y="372" type="curve" smooth="yes"/>
			<point x="860" y="236"/>
			<point x="796" y="192"/>
			<point x="752" y="192" type="curve" smooth="yes"/>
			<point x="712" y="192"/>
			<point x="700" y="220"/>
			<point x="704" y="248" type="curve" smooth="yes"/>
			<point x="740" y="556" type="line"/>
			<point x="728" y="576" type="line"/>
			<point x="620" y="576" type="line"/>
			<point x="600" y="560" type="line"/>
		</contour>
	</outline>
</glyph>
<glyph name="A" format="2">
	<unicode hex="0041"/>
	<advance width="752"/>
	<outline>
		<contour>
			<point x="32" y="0" type="line"/>
			<point x="176" y="0" type="line"/>
			<point x="192" y="16" type="line"/>
			<point x="230" y="136" type="line"/>
			<point x="238" y="144" type="line"/>
			<point x="506" y="144" type="line"/>
			<point x="514" y="136" type="line"/>
			<point x="552" y="16" type="line"/>
			<point x="568" y="0" type="line"/>
			<point x="720" y="0" type="line"/>
			<point x="736" y="16" type="line"/>
			<point x="736" y="80" type="line"/>
			<point x="484" y="784" type="line"/>
			<point x="468" y="800" type="line"/>
			<point x="284" y="800" type="line"/>
			<point x="268" y="784" type="line"/>
			<point x="16" y="32" type="line"/>
			<point x="16" y="16" type="line"/>
		</contour>
		<contour>
			<point x="286" y="288" type="line"/>
			<point x="278" y="296" type="line"/>
			<point x="370" y="584" type="line"/>
			<point x="378" y="584" type="line"/>
			<point x="466" y="296" type="line"/>
			<point x="458" y="288" type="line"/>
		</contour>
	</outline>
</glyph>
<glyph name="B" format="2">
	<unicode hex="0042"/>
	<advance width="728"/>
	<outline>
		<contour>
			<point x="48" y="0" type="line"/>
			<point x="432" y="0" type="line" smooth="yes"/>
			<point x="598" y="0"/>
			<point x="708" y="92"/>
			<point x="708" y="232" type="curve" smooth="yes"/>
			<point x="708" y="328"/>
			<point x="656" y="400"/>
			<point x="566" y="430" type="curve"/>
			<point x="566" y="438" type="line"/>
			<point x="640" y="468"/>
			<point x="676" y="518"/>
			<point x="676" y="596" type="curve" smooth="yes"/>
			<point x="676" y="724"/>
			<point x="578" y="800"/>
			<point x="408" y="800" type="curve" smooth="yes"/>
			<point x="48" y="800" type="line"/>
			<point x="32" y="784" type="line"/>
			<point x="32" y="16" type="line"/>
		</contour>
		<contour>
			<point x="240" y="490" type="line"/>
			<point x="232" y="498" type="line"/>
			<point x="232" y="630" type="line"/>
			<point x="240" y="638" type="line"/>
			<point x="392" y="638" type="line" smooth="yes"/>
			<point x="454" y="638"/>
			<point x="486" y="614"/>
			<point x="486" y="564" type="curve" smooth="yes"/>
			<point x="486" y="514"/>
			<point x="454" y="490"/>
			<point x="392" y="490" type="curve" smooth="yes"/>
		</contour>
		<contour>
			<point x="240" y="166" type="line"/>
			<point x="232" y="174" type="line"/>
			<point x="232" y="334" type="line"/>
			<point x="240" y="342" type="line"/>
			<point x="400" y="342" type="line" smooth="yes"/>
			<point x="472" y="342"/>
			<point x="510" y="312"/>
			<point x="510" y="254" type="curve" smooth="yes"/>
			<point x="510" y="196"/>
			<point x="472" y="166"/>
			<point x="400" y="166" type="curve" smooth="yes"/>
		</contour>
	</outline>
</glyph>
<glyph name="D" format="2">
	<unicode hex="0044"/>
	<advance width="762"/>
	<outline>
		<contour>
			<point x="48" y="0" type="line"/>
			<point x="362" y="0" type="line" smooth="yes"/>
			<point x="596" y="0"/>
			<point x="742" y="154"/>
			<point x="742" y="400" type="curve" smooth="yes"/>
			<point x="742" y="646"/>
			<point x="596" y="800"/>
			<point x="362" y="800" type="curve" smooth="yes"/>
			<point x="48" y="800" type="line"/>
			<point x="32" y="784" type="line"/>
			<point x="32" y="16" type="line"/>
		</contour>
		<contour>
			<point x="240" y="168" type="line"/>
			<point x="232" y="176" type="line"/>
			<point x="232" y="624" type="line"/>
			<point x="240" y="632" type="line"/>
			<point x="322" y="632" type="line" smooth="yes"/>
			<point x="472" y="632"/>
			<point x="534" y="564"/>
			<point x="534" y="400" type="curve" smooth="yes"/>
			<point x="534" y="236"/>
			<point x="472" y="168"/>
			<point x="322" y="168" type="curve" smooth="yes"/>
		</contour>
	</outline>
	<anchor name="bottom" x="288" y="0"/>
	<anchor name="center" x="316" y="400"/>
	<anchor name="top" x="288" y="800"/>
</glyph>
<glyph name="F" format="2">
	<unicode hex="0046"/>
	<advance width="648"/>
	<outline>
		<contour>
			<point x="48" y="0" type="line"/>
			<point x="216" y="0" type="line"/>
			<point x="232" y="16" type="line"/>
			<point x="232" y="300" type="line"/>
			<point x="244" y="312" type="line"/>
			<point x="552" y="312" type="line"/>
			<point x="568" y="328" type="line"/>
			<point x="568" y="460" type="line"/>
			<point x="552" y="476" type="line"/>
			<point x="244" y="476" type="line"/>
			<point x="232" y="488" type="line"/>
			<point x="232" y="620" type="line"/>
			<point x="244" y="632" type="line"/>
			<point x="616" y="632" type="line"/>
			<point x="632" y="648" type="line"/>
			<point x="632" y="784" type="line"/>
			<point x="616" y="800" type="line"/>
			<point x="48" y="800" type="line"/>
			<point x="32" y="784" type="line"/>
			<point x="32" y="16" type="line"/>
		</contour>
	</outline>
</glyph>
<glyph name="G" format="2">
	<unicode hex="0047"/>
	<advance width="820"/>
	<outline>
		<contour>
			<point x="382" y="-16" type="curve" smooth="yes"/>
			<point x="486" y="-16"/>
			<point x="584" y="28"/>
			<point x="634" y="96" type="curve"/>
			<point x="642" y="96" type="line"/>
			<point x="650" y="16" type="line"/>
			<point x="666" y="0" type="line"/>
			<point x="778" y="0" type="line"/>
			<point x="794" y="16" type="line"/>
			<point x="794" y="416" type="line"/>
			<point x="778" y="432" type="line"/>
			<point x="450" y="432" type="line"/>
			<point x="434" y="416" type="line"/>
			<point x="434" y="300" type="line"/>
			<point x="450" y="284" type="line"/>
			<point x="582" y="284" type="line"/>
			<point x="590" y="276" type="line"/>
			<point x="590" y="204"/>
			<point x="518" y="150"/>
			<point x="424" y="150" type="curve" smooth="yes"/>
			<point x="300" y="150"/>
			<point x="230" y="242"/>
			<point x="230" y="400" type="curve" smooth="yes"/>
			<point x="230" y="554"/>
			<point x="300" y="646"/>
			<point x="414" y="646" type="curve" smooth="yes"/>
			<point x="504" y="646"/>
			<point x="574" y="590"/>
			<point x="586" y="504" type="curve"/>
			<point x="602" y="488" type="line"/>
			<point x="762" y="488" type="line"/>
			<point x="778" y="504" type="line"/>
			<point x="778" y="682"/>
			<point x="626" y="816"/>
			<point x="426" y="816" type="curve" smooth="yes"/>
			<point x="194" y="816"/>
			<point x="22" y="638"/>
			<point x="22" y="400" type="curve" smooth="yes"/>
			<point x="22" y="138"/>
			<point x="174" y="-16"/>
		</contour>
	</outline>
	<anchor name="bottom" x="426" y="0"/>
	<anchor name="top" x="426" y="800"/>
</glyph>
<glyph name="H" format="2">
	<unicode hex="0048"/>
	<advance width="736"/>
	<outline>
		<contour>
			<point x="48" y="0" type="line"/>
			<point x="216" y="0" type="line"/>
			<point x="232" y="16" type="line"/>
			<point x="232" y="324" type="line"/>
			<point x="240" y="332" type="line"/>
			<point x="496" y="332" type="line"/>
			<point x="504" y="324" type="line"/>
			<point x="504" y="16" type="line"/>
			<point x="520" y="0" type="line"/>
			<point x="688" y="0" type="line"/>
			<point x="704" y="16" type="line"/>
			<point x="704" y="784" type="line"/>
			<point x="688" y="800" type="line"/>
			<point x="520" y="800" type="line"/>
			<point x="504" y="784" type="line"/>
			<point x="504" y="508" type="line"/>
			<point x="496" y="500" type="line"/>
			<point x="240" y="500" type="line"/>
			<point x="232" y="508" type="line"/>
			<point x="232" y="784" type="line"/>
			<point x="216" y="800" type="line"/>
			<point x="48" y="800" type="line"/>
			<point x="32" y="784" type="line"/>
			<point x="32" y="16" type="line"/>
		</contour>
	</outline>
</glyph>
<glyph name="I" format="2">
	<unicode hex="0049"/>
	<advance width="260"/>
	<outline>
		<contour>
			<point x="48" y="0" type="line"/>
			<point x="212" y="0" type="line"/>
			<point x="228" y="16" type="line"/>
			<point x="228" y="784" type="line"/>
			<point x="212" y="800" type="line"/>
			<point x="48" y="800" type="line"/>
			<point x="32" y="784" type="line"/>
			<point x="32" y="16" type="line"/>
		</contour>
	</outline>
	<anchor name="bottom" x="136" y="0"/>
	<anchor name="top" x="134" y="800"/>
</glyph>
<glyph name="J" format="2">
	<unicode hex="004A"/>
	<advance width="600"/>
	<outline>
		<contour>
			<point x="284" y="-16" type="curve" smooth="yes"/>
			<point x="460" y="-16"/>
			<point x="568" y="80"/>
			<point x="568" y="236" type="curve" smooth="yes"/>
			<point x="568" y="784" type="line"/>
			<point x="552" y="800" type="line"/>
			<point x="384" y="800" type="line"/>
			<point x="368" y="784" type="line"/>
			<point x="368" y="244" type="line" smooth="yes"/>
			<point x="368" y="188"/>
			<point x="336" y="152"/>
			<point x="284" y="152" type="curve" smooth="yes"/>
			<point x="232" y="152"/>
			<point x="200" y="188"/>
			<point x="200" y="244" type="curve" smooth="yes"/>
			<point x="200" y="296" type="line"/>
			<point x="184" y="312" type="line"/>
			<point x="32" y="312" type="line"/>
			<point x="16" y="296" type="line"/>
			<point x="16" y="244" type="line" smooth="yes"/>
			<point x="16" y="78"/>
			<point x="112" y="-16"/>
		</contour>
	</outline>
</glyph>
<glyph name="K" format="2">
	<unicode hex="004B"/>
	<advance width="724"/>
	<outline>
		<contour>
			<point x="48" y="0" type="line"/>
			<point x="216" y="0" type="line"/>
			<point x="232" y="16" type="line"/>
			<point x="232" y="286" type="line"/>
			<point x="236" y="294" type="line"/>
			<point x="296" y="350" type="line"/>
			<point x="304" y="350" type="line"/>
			<point x="528" y="8" type="line"/>
			<point x="544" y="0" type="line"/>
			<point x="692" y="0" type="line"/>
			<point x="708" y="16" type="line"/>
			<point x="708" y="80" type="line"/>
			<point x="700" y="96" type="line"/>
			<point x="438" y="474" type="line"/>
			<point x="438" y="482" type="line"/>
			<point x="658" y="704" type="line"/>
			<point x="666" y="720" type="line"/>
			<point x="666" y="784" type="line"/>
			<point x="650" y="800" type="line"/>
			<point x="520" y="800" type="line"/>
			<point x="504" y="792" type="line"/>
			<point x="240" y="518" type="line"/>
			<point x="232" y="518" type="line"/>
			<point x="232" y="784" type="line"/>
			<point x="216" y="800" type="line"/>
			<point x="48" y="800" type="line"/>
			<point x="32" y="784" type="line"/>
			<point x="32" y="16" type="line"/>
		</contour>
	</outline>
	<anchor name="bottom" x="304" y="0"/>
</glyph>
<glyph name="L" format="2">
	<unicode hex="004C"/>
	<advance width="604"/>
	<outline>
		<contour>
			<point x="48" y="0" type="line"/>
			<point x="572" y="0" type="line"/>
			<point x="588" y="16" type="line"/>
			<point x="588" y="152" type="line"/>
			<point x="572" y="168" type="line"/>
			<point x="240" y="168" type="line"/>
			<point x="232" y="176" type="line"/>
			<point x="232" y="784" type="line"/>
			<point x="216" y="800" type="line"/>
			<point x="48" y="800" type="line"/>
			<point x="32" y="784" type="line"/>
			<point x="32" y="16" type="line"/>
		</contour>
	</outline>
	<anchor name="bottom" x="264" y="0"/>
	<anchor name="top" x="88" y="800"/>
</glyph>
<glyph name="M" format="2">
	<unicode hex="004D"/>
	<advance width="894"/>
	<outline>
		<contour>
			<point x="48" y="0" type="line"/>
			<point x="200" y="0" type="line"/>
			<point x="216" y="16" type="line"/>
			<point x="216" y="270" type="line"/>
			<point x="212" y="546" type="line"/>
			<point x="220" y="546" type="line"/>
			<point x="360" y="16" type="line"/>
			<point x="376" y="0" type="line"/>
			<point x="514" y="0" type="line"/>
			<point x="530" y="16" type="line"/>
			<point x="674" y="546" type="line"/>
			<point x="682" y="546" type="line"/>
			<point x="678" y="270" type="line"/>
			<point x="678" y="16" type="line"/>
			<point x="694" y="0" type="line"/>
			<point x="846" y="0" type="line"/>
			<point x="862" y="16" type="line"/>
			<point x="862" y="784" type="line"/>
			<point x="846" y="800" type="line"/>
			<point x="604" y="800" type="line"/>
			<point x="588" y="784" type="line"/>
			<point x="450" y="270" type="line"/>
			<point x="442" y="270" type="line"/>
			<point x="306" y="784" type="line"/>
			<point x="290" y="800" type="line"/>
			<point x="48" y="800" type="line"/>
			<point x="32" y="784" type="line"/>
			<point x="32" y="16" type="line"/>
		</contour>
	</outline>
</glyph>
<glyph name="N" format="2">
	<unicode hex="004E"/>
	<advance width="752"/>
	<outline>
		<contour>
			<point x="50" y="0" type="line"/>
			<point x="212" y="0" type="line"/>
			<point x="228" y="16" type="line"/>
			<point x="228" y="302" type="line"/>
			<point x="224" y="494" type="line"/>
			<point x="232" y="494" type="line"/>
			<point x="508" y="8" type="line"/>
			<point x="524" y="0" type="line"/>
			<point x="702" y="0" type="line"/>
			<point x="718" y="16" type="line"/>
			<point x="718" y="784" type="line"/>
			<point x="702" y="800" type="line"/>
			<point x="540" y="800" type="line"/>
			<point x="524" y="784" type="line"/>
			<point x="524" y="494" type="line"/>
			<point x="528" y="302" type="line"/>
			<point x="520" y="302" type="line"/>
			<point x="244" y="792" type="line"/>
			<point x="228" y="800" type="line"/>
			<point x="50" y="800" type="line"/>
			<point x="34" y="784" type="line"/>
			<point x="34" y="16" type="line"/>
		</contour>
	</outline>
	<anchor name="bottom" x="340" y="0"/>
	<anchor name="top" x="340" y="800"/>
</glyph>
<glyph name="O" format="2">
	<unicode hex="004F"/>
	<advance width="828"/>
	<outline>
		<contour>
			<point x="414" y="-16" type="curve" smooth="yes"/>
			<point x="656" y="-16"/>
			<point x="808" y="146"/>
			<point x="808" y="400" type="curve" smooth="yes"/>
			<point x="808" y="654"/>
			<point x="656" y="816"/>
			<point x="414" y="816" type="curve" smooth="yes"/>
			<point x="172" y="816"/>
			<point x="20" y="654"/>
			<point x="20" y="400" type="curve" smooth="yes"/>
			<point x="20" y="146"/>
			<point x="172" y="-16"/>
		</contour>
		<contour>
			<point x="414" y="146" type="curve" smooth="yes"/>
			<point x="300" y="146"/>
			<point x="224" y="248"/>
			<point x="224" y="400" type="curve" smooth="yes"/>
			<point x="224" y="552"/>
			<point x="300" y="654"/>
			<point x="414" y="654" type="curve" smooth="yes"/>
			<point x="528" y="654"/>
			<point x="604" y="552"/>
			<point x="604" y="400" type="curve" smooth="yes"/>
			<point x="604" y="248"/>
			<point x="528" y="146"/>
		</contour>
	</outline>
	<anchor name="bottom" x="414" y="0"/>
	<anchor name="top" x="414" y="800"/>
</glyph>
<glyph name="P" format="2">
	<unicode hex="0050"/>
	<advance width="712"/>
	<outline>
		<contour>
			<point x="48" y="0" type="line"/>
			<point x="216" y="0" type="line"/>
			<point x="232" y="16" type="line"/>
			<point x="232" y="258" type="line"/>
			<point x="240" y="266" type="line"/>
			<point x="386" y="266" type="line" smooth="yes"/>
			<point x="582" y="266"/>
			<point x="694" y="360"/>
			<point x="694" y="528" type="curve" smooth="yes"/>
			<point x="694" y="698"/>
			<point x="580" y="800"/>
			<point x="386" y="800" type="curve" smooth="yes"/>
			<point x="48" y="800" type="line"/>
			<point x="32" y="784" type="line"/>
			<point x="32" y="16" type="line"/>
		</contour>
		<contour>
			<point x="240" y="424" type="line"/>
			<point x="232" y="432" type="line"/>
			<point x="232" y="624" type="line"/>
			<point x="240" y="632" type="line"/>
			<point x="362" y="632" type="line" smooth="yes"/>
			<point x="444" y="632"/>
			<point x="486" y="596"/>
			<point x="486" y="528" type="curve" smooth="yes"/>
			<point x="486" y="460"/>
			<point x="444" y="424"/>
			<point x="362" y="424" type="curve" smooth="yes"/>
		</contour>
	</outline>
</glyph>
<glyph name="Q" format="2">
	<unicode hex="0051"/>
	<advance width="842"/>
	<outline>
		<contour>
			<point x="420" y="-16" type="curve" smooth="yes"/>
			<point x="504" y="-16"/>
			<point x="580" y="6"/>
			<point x="630" y="44" type="curve"/>
			<point x="638" y="44" type="line"/>
			<point x="674" y="8" type="line"/>
			<point x="690" y="0" type="line"/>
			<point x="800" y="0" type="line"/>
			<point x="816" y="16" type="line"/>
			<point x="816" y="80" type="line"/>
			<point x="808" y="96" type="line"/>
			<point x="750" y="154" type="line"/>
			<point x="750" y="162" type="line"/>
			<point x="796" y="240"/>
			<point x="816" y="312"/>
			<point x="816" y="400" type="curve" smooth="yes"/>
			<point x="816" y="652"/>
			<point x="660" y="816"/>
			<point x="420" y="816" type="curve" smooth="yes"/>
			<point x="180" y="816"/>
			<point x="24" y="652"/>
			<point x="24" y="400" type="curve" smooth="yes"/>
			<point x="24" y="150"/>
			<point x="182" y="-16"/>
		</contour>
		<contour>
			<point x="422" y="156" type="curve" smooth="yes"/>
			<point x="304" y="156"/>
			<point x="232" y="250"/>
			<point x="232" y="400" type="curve" smooth="yes"/>
			<point x="232" y="552"/>
			<point x="304" y="644"/>
			<point x="420" y="644" type="curve" smooth="yes"/>
			<point x="536" y="644"/>
			<point x="608" y="550"/>
			<point x="608" y="400" type="curve" smooth="yes"/>
			<point x="608" y="364"/>
			<point x="604" y="330"/>
			<point x="598" y="316" type="curve"/>
			<point x="590" y="316" type="line"/>
			<point x="514" y="392" type="line"/>
			<point x="498" y="400" type="line"/>
			<point x="388" y="400" type="line"/>
			<point x="372" y="384" type="line"/>
			<point x="372" y="320" type="line"/>
			<point x="380" y="304" type="line"/>
			<point x="502" y="182" type="line"/>
			<point x="502" y="174" type="line"/>
			<point x="492" y="164"/>
			<point x="456" y="156"/>
		</contour>
	</outline>
</glyph>
<glyph name="R" format="2">
	<unicode hex="0052"/>
	<advance width="712"/>
	<outline>
		<contour>
			<point x="240" y="468" type="line"/>
			<point x="232" y="468" type="line"/>
			<point x="232" y="628" type="line"/>
			<point x="240" y="636" type="line"/>
			<point x="400" y="636" type="line" smooth="yes"/>
			<point x="460" y="636"/>
			<point x="492" y="606"/>
			<point x="492" y="552" type="curve" smooth="yes"/>
			<point x="492" y="498"/>
			<point x="460" y="468"/>
			<point x="400" y="468" type="curve" smooth="yes"/>
		</contour>
		<contour>
			<point x="48" y="0" type="line"/>
			<point x="216" y="0" type="line"/>
			<point x="232" y="16" type="line"/>
			<point x="232" y="302" type="line"/>
			<point x="240" y="310" type="line"/>
			<point x="344" y="310" type="line"/>
			<point x="360" y="302" type="line"/>
			<point x="532" y="8" type="line"/>
			<point x="548" y="0" type="line"/>
			<point x="680" y="0" type="line"/>
			<point x="696" y="16" type="line"/>
			<point x="696" y="80" type="line"/>
			<point x="548" y="324" type="line"/>
			<point x="548" y="332" type="line"/>
			<point x="646" y="372"/>
			<point x="696" y="448"/>
			<point x="696" y="552" type="curve" smooth="yes"/>
			<point x="696" y="704"/>
			<point x="588" y="800"/>
			<point x="416" y="800" type="curve" smooth="yes"/>
			<point x="48" y="800" type="line"/>
			<point x="32" y="784" type="line"/>
			<point x="32" y="16" type="line"/>
		</contour>
	</outline>
	<anchor name="bottom" x="324" y="0"/>
	<anchor name="top" x="300" y="800"/>
</glyph>
<glyph name="S" format="2">
	<unicode hex="0053"/>
	<advance width="716"/>
	<outline>
		<contour>
			<point x="372" y="-16" type="curve" smooth="yes"/>
			<point x="174" y="-16"/>
			<point x="36" y="76"/>
			<point x="16" y="224" type="curve"/>
			<point x="16" y="240" type="line"/>
			<point x="32" y="256" type="line"/>
			<point x="200" y="256" type="line"/>
			<point x="216" y="240" type="line"/>
			<point x="220" y="182"/>
			<point x="284" y="142"/>
			<point x="372" y="144" type="curve" smooth="yes"/>
			<point x="450" y="146"/>
			<point x="500" y="178"/>
			<point x="500" y="224" type="curve" smooth="yes"/>
			<point x="500" y="262"/>
			<point x="458" y="294"/>
			<point x="396" y="310" type="curve" smooth="yes"/>
			<point x="268" y="342" type="line" smooth="yes"/>
			<point x="120" y="378"/>
			<point x="40" y="458"/>
			<point x="38" y="576" type="curve" smooth="yes"/>
			<point x="36" y="722"/>
			<point x="158" y="816"/>
			<point x="352" y="816" type="curve" smooth="yes"/>
			<point x="530" y="816"/>
			<point x="646" y="738"/>
			<point x="670" y="600" type="curve"/>
			<point x="670" y="584" type="line"/>
			<point x="654" y="568" type="line"/>
			<point x="492" y="568" type="line"/>
			<point x="476" y="584" type="line"/>
			<point x="464" y="638"/>
			<point x="426" y="662"/>
			<point x="352" y="662" type="curve" smooth="yes"/>
			<point x="278" y="662"/>
			<point x="238" y="638"/>
			<point x="238" y="592" type="curve" smooth="yes"/>
			<point x="238" y="552"/>
			<point x="268" y="532"/>
			<point x="362" y="508" type="curve" smooth="yes"/>
			<point x="488" y="476" type="line" smooth="yes"/>
			<point x="630" y="440"/>
			<point x="700" y="360"/>
			<point x="700" y="240" type="curve" smooth="yes"/>
			<point x="700" y="80"/>
			<point x="576" y="-16"/>
		</contour>
	</outline>
	<anchor name="bottom" x="364" y="0"/>
	<anchor name="top" x="348" y="800"/>
</glyph>
<glyph name="T" format="2">
	<unicode hex="0054"/>
	<advance width="662"/>
	<outline>
		<contour>
			<point x="248" y="0" type="line"/>
			<point x="412" y="0" type="line"/>
			<point x="428" y="16" type="line"/>
			<point x="428" y="620" type="line"/>
			<point x="440" y="632" type="line"/>
			<point x="632" y="632" type="line"/>
			<point x="648" y="648" type="line"/>
			<point x="648" y="784" type="line"/>
			<point x="632" y="800" type="line"/>
			<point x="30" y="800" type="line"/>
			<point x="14" y="784" type="line"/>
			<point x="14" y="648" type="line"/>
			<point x="30" y="632" type="line"/>
			<point x="220" y="632" type="line"/>
			<point x="232" y="620" type="line"/>
			<point x="232" y="16" type="line"/>
		</contour>
	</outline>
	<anchor name="bottom" x="338" y="0"/>
	<anchor name="top" x="332" y="798"/>
</glyph>
<glyph name="U" format="2">
	<unicode hex="0055"/>
	<advance width="724"/>
	<outline>
		<contour>
			<point x="362" y="-16" type="curve" smooth="yes"/>
			<point x="576" y="-16"/>
			<point x="696" y="88"/>
			<point x="696" y="276" type="curve" smooth="yes"/>
			<point x="696" y="784" type="line"/>
			<point x="680" y="800" type="line"/>
			<point x="512" y="800" type="line"/>
			<point x="496" y="784" type="line"/>
			<point x="496" y="308" type="line" smooth="yes"/>
			<point x="496" y="210"/>
			<point x="450" y="156"/>
			<point x="362" y="156" type="curve" smooth="yes"/>
			<point x="274" y="156"/>
			<point x="228" y="210"/>
			<point x="228" y="308" type="curve" smooth="yes"/>
			<point x="228" y="784" type="line"/>
			<point x="212" y="800" type="line"/>
			<point x="44" y="800" type="line"/>
			<point x="28" y="784" type="line"/>
			<point x="28" y="276" type="line" smooth="yes"/>
			<point x="28" y="88"/>
			<point x="148" y="-16"/>
		</contour>
	</outline>
	<anchor name="bottom" x="360" y="0"/>
	<anchor name="ogonek" x="424" y="52"/>
	<anchor name="top" x="360" y="800"/>
	<anchor name="topright" x="696" y="732"/>
</glyph>
<glyph name="V" format="2">
	<unicode hex="0056"/>
	<advance width="712"/>
	<outline>
		<contour>
			<point x="258" y="0" type="line"/>
			<point x="450" y="0" type="line"/>
			<point x="470" y="16" type="line"/>
			<point x="696" y="720" type="line"/>
			<point x="696" y="784" type="line"/>
			<point x="680" y="800" type="line"/>
			<point x="528" y="800" type="line"/>
			<point x="512" y="784" type="line"/>
			<point x="362" y="256" type="line"/>
			<point x="354" y="256" type="line"/>
			<point x="200" y="784" type="line"/>
			<point x="184" y="800" type="line"/>
			<point x="32" y="800" type="line"/>
			<point x="16" y="784" type="line"/>
			<point x="16" y="720" type="line"/>
			<point x="242" y="16" type="line"/>
		</contour>
	</outline>
</glyph>
<glyph name="W" format="2">
	<unicode hex="0057"/>
	<advance width="1044"/>
	<outline>
		<contour>
			<point x="218" y="0" type="line"/>
			<point x="404" y="0" type="line"/>
			<point x="420" y="16" type="line"/>
			<point x="518" y="490" type="line"/>
			<point x="526" y="490" type="line"/>
			<point x="624" y="16" type="line"/>
			<point x="640" y="0" type="line"/>
			<point x="826" y="0" type="line"/>
			<point x="842" y="16" type="line"/>
			<point x="1028" y="720" type="line"/>
			<point x="1028" y="784" type="line"/>
			<point x="1012" y="800" type="line"/>
			<point x="858" y="800" type="line"/>
			<point x="842" y="784" type="line"/>
			<point x="732" y="302" type="line"/>
			<point x="724" y="302" type="line"/>
			<point x="618" y="784" type="line"/>
			<point x="602" y="800" type="line"/>
			<point x="442" y="800" type="line"/>
			<point x="426" y="784" type="line"/>
			<point x="320" y="302" type="line"/>
			<point x="312" y="302" type="line"/>
			<point x="202" y="784" type="line"/>
			<point x="186" y="800" type="line"/>
			<point x="32" y="800" type="line"/>
			<point x="16" y="784" type="line"/>
			<point x="16" y="720" type="line"/>
			<point x="202" y="16" type="line"/>
		</contour>
	</outline>
	<anchor name="bottom" x="524" y="0"/>
	<anchor name="top" x="524" y="800"/>
</glyph>
<glyph name="X" format="2">
	<unicode hex="0058"/>
	<advance width="668"/>
	<outline>
		<contour>
			<point x="16" y="0" type="line"/>
			<point x="164" y="0" type="line"/>
			<point x="180" y="8" type="line"/>
			<point x="328" y="260" type="line"/>
			<point x="336" y="260" type="line"/>
			<point x="478" y="8" type="line"/>
			<point x="494" y="0" type="line"/>
			<point x="652" y="0" type="line"/>
			<point x="668" y="16" type="line"/>
			<point x="668" y="80" type="line"/>
			<point x="454" y="414" type="line"/>
			<point x="454" y="422" type="line"/>
			<point x="640" y="720" type="line"/>
			<point x="640" y="784" type="line"/>
			<point x="624" y="800" type="line"/>
			<point x="486" y="800" type="line"/>
			<point x="470" y="792" type="line"/>
			<point x="340" y="572" type="line"/>
			<point x="332" y="572" type="line"/>
			<point x="204" y="792" type="line"/>
			<point x="188" y="800" type="line"/>
			<point x="40" y="800" type="line"/>
			<point x="24" y="784" type="line"/>
			<point x="24" y="720" type="line"/>
			<point x="212" y="422" type="line"/>
			<point x="212" y="414" type="line"/>
			<point x="0" y="80" type="line"/>
			<point x="0" y="16" type="line"/>
		</contour>
	</outline>
</glyph>
<glyph name="Y" format="2">
	<unicode hex="0059"/>
	<advance width="684"/>
	<outline>
		<contour>
			<point x="260" y="0" type="line"/>
			<point x="428" y="0" type="line"/>
			<point x="444" y="16" type="line"/>
			<point x="444" y="290" type="line"/>
			<point x="668" y="720" type="line"/>
			<point x="668" y="784" type="line"/>
			<point x="652" y="800" type="line"/>
			<point x="514" y="800" type="line"/>
			<point x="498" y="792" type="line"/>
			<point x="350" y="494" type="line"/>
			<point x="342" y="494" type="line"/>
			<point x="190" y="792" type="line"/>
			<point x="174" y="800" type="line"/>
			<point x="32" y="800" type="line"/>
			<point x="16" y="784" type="line"/>
			<point x="16" y="720" type="line"/>
			<point x="244" y="290" type="line"/>
			<point x="244" y="16" type="line"/>
		</contour>
	</outline>
	<anchor name="bottom" x="356" y="0"/>
	<anchor name="top" x="356" y="800"/>
	<anchor name="topleft" x="60" y="800"/>
</glyph>
<glyph name="Z" format="2">
	<unicode hex="005A"/>
	<advance width="684"/>
	<outline>
		<contour>
			<point x="24" y="0" type="line"/>
			<point x="660" y="0" type="line"/>
			<point x="676" y="16" type="line"/>
			<point x="676" y="152" type="line"/>
			<point x="660" y="168" type="line"/>
			<point x="262" y="168" type="line"/>
			<point x="262" y="176" type="line"/>
			<point x="652" y="636" type="line"/>
			<point x="660" y="652" type="line"/>
			<point x="660" y="784" type="line"/>
			<point x="644" y="800" type="line"/>
			<point x="52" y="800" type="line"/>
			<point x="36" y="784" type="line"/>
			<point x="36" y="648" type="line"/>
			<point x="52" y="632" type="line"/>
			<point x="400" y="632" type="line"/>
			<point x="400" y="624" type="line"/>
			<point x="16" y="168" type="line"/>
			<point x="8" y="152" type="line"/>
			<point x="8" y="16" type="line"/>
		</contour>
	</outline>
	<anchor name="bottom" x="336" y="0"/>
	<anchor name="center" x="336" y="352"/>
	<anchor name="top" x="356" y="800"/>
</glyph>
<glyph name="bracketleft" format="2">
	<unicode hex="005B"/>
	<advance width="416"/>
	<outline>
		<contour>
			<point x="48" y="-160" type="line"/>
			<point x="368" y="-160" type="line"/>
			<point x="384" y="-144" type="line"/>
			<point x="384" y="-32" type="line"/>
			<point x="368" y="-16" type="line"/>
			<point x="224" y="-16" type="line"/>
			<point x="212" y="-4" type="line"/>
			<point x="212" y="692" type="line"/>
			<point x="224" y="704" type="line"/>
			<point x="368" y="704" type="line"/>
			<point x="384" y="720" type="line"/>
			<point x="384" y="832" type="line"/>
			<point x="368" y="848" type="line"/>
			<point x="48" y="848" type="line"/>
			<point x="32" y="832" type="line"/>
			<point x="32" y="-144" type="line"/>
		</contour>
	</outline>
</glyph>
<glyph name="backslash" format="2">
	<unicode hex="005C"/>
	<advance width="496"/>
	<outline>
		<contour>
			<point x="448" y="0" type="line"/>
			<point x="464" y="16" type="line"/>
			<point x="464" y="32" type="line"/>
			<point x="184" y="784" type="line"/>
			<point x="168" y="800" type="line"/>
			<point x="48" y="800" type="line"/>
			<point x="32" y="784" type="line"/>
			<point x="32" y="768" type="line"/>
			<point x="312" y="16" type="line"/>
			<point x="328" y="0" type="line"/>
		</contour>
	</outline>
</glyph>
<glyph name="bracketright" format="2">
	<unicode hex="005D"/>
	<advance width="416"/>
	<outline>
		<contour>
			<point x="368" y="-160" type="line"/>
			<point x="384" y="-144" type="line"/>
			<point x="384" y="832" type="line"/>
			<point x="368" y="848" type="line"/>
			<point x="48" y="848" type="line"/>
			<point x="32" y="832" type="line"/>
			<point x="32" y="720" type="line"/>
			<point x="48" y="704" type="line"/>
			<point x="192" y="704" type="line"/>
			<point x="204" y="692" type="line"/>
			<point x="204" y="-4" type="line"/>
			<point x="192" y="-16" type="line"/>
			<point x="48" y="-16" type="line"/>
			<point x="32" y="-32" type="line"/>
			<point x="32" y="-144" type="line"/>
			<point x="48" y="-160" type="line"/>
		</contour>
	</outline>
</glyph>
<glyph name="asciicircum" format="2">
	<unicode hex="005E"/>
	<advance width="536"/>
	<outline>
		<contour>
			<point x="48" y="476" type="line"/>
			<point x="160" y="476" type="line"/>
			<point x="176" y="484" type="line"/>
			<point x="260" y="636" type="line"/>
			<point x="276" y="636" type="line"/>
			<point x="356" y="484" type="line"/>
			<point x="372" y="476" type="line"/>
			<point x="488" y="476" type="line"/>
			<point x="504" y="492" type="line"/>
			<point x="504" y="508" type="line"/>
			<point x="340" y="792" type="line"/>
			<point x="324" y="800" type="line"/>
			<point x="212" y="800" type="line"/>
			<point x="196" y="792" type="line"/>
			<point x="32" y="508" type="line"/>
			<point x="32" y="492" type="line"/>
		</contour>
	</outline>
</glyph>
<glyph name="underscore" format="2">
	<unicode hex="005F"/>
	<advance width="600"/>
	<outline>
		<contour>
			<point x="32" y="-160" type="line"/>
			<point x="568" y="-160" type="line"/>
			<point x="584" y="-144" type="line"/>
			<point x="584" y="-80" type="line"/>
			<point x="568" y="-64" type="line"/>
			<point x="32" y="-64" type="line"/>
			<point x="16" y="-80" type="line"/>
			<point x="16" y="-144" type="line"/>
		</contour>
	</outline>
</glyph>
<glyph name="grave" format="2">
	<unicode hex="0060"/>
	<advance width="300"/>
	<outline>
		<contour>
			<point x="236" y="632" type="line"/>
			<point x="252" y="648" type="line"/>
			<point x="252" y="664" type="line"/>
			<point x="224" y="784" type="line"/>
			<point x="208" y="800" type="line"/>
			<point x="36" y="800" type="line"/>
			<point x="20" y="784" type="line"/>
			<point x="20" y="768" type="line"/>
			<point x="100" y="648" type="line"/>
			<point x="116" y="632" type="line"/>
		</contour>
	</outline>
</glyph>
<glyph name="a" format="2">
	<unicode hex="0061"/>
	<advance width="592"/>
	<outline>
		<contour>
			<point x="204" y="-16" type="curve" smooth="yes"/>
			<point x="282" y="-16"/>
			<point x="350" y="14"/>
			<point x="388" y="64" type="curve"/>
			<point x="396" y="64" type="line"/>
			<point x="408" y="26"/>
			<point x="440" y="0"/>
			<point x="480" y="0" type="curve" smooth="yes"/>
			<point x="568" y="0" type="line"/>
			<point x="584" y="16" type="line"/>
			<point x="584" y="124" type="line"/>
			<point x="568" y="140" type="line"/>
			<point x="552" y="140"/>
			<point x="544" y="148"/>
			<point x="544" y="166" type="curve" smooth="yes"/>
			<point x="544" y="366" type="line" smooth="yes"/>
			<point x="544" y="512"/>
			<point x="452" y="592"/>
			<point x="296" y="592" type="curve" smooth="yes"/>
			<point x="154" y="592"/>
			<point x="56" y="514"/>
			<point x="56" y="390" type="curve"/>
			<point x="72" y="374" type="line"/>
			<point x="196" y="374" type="line"/>
			<point x="212" y="390" type="line"/>
			<point x="216" y="432"/>
			<point x="242" y="460"/>
			<point x="288" y="460" type="curve" smooth="yes"/>
			<point x="334" y="460"/>
			<point x="364" y="432"/>
			<point x="364" y="390" type="curve" smooth="yes"/>
			<point x="364" y="352" type="line"/>
			<point x="356" y="344" type="line"/>
			<point x="300" y="344" type="line" smooth="yes"/>
			<point x="116" y="344"/>
			<point x="8" y="278"/>
			<point x="8" y="154" type="curve" smooth="yes"/>
			<point x="8" y="50"/>
			<point x="90" y="-16"/>
		</contour>
		<contour>
			<point x="268" y="104" type="curve" smooth="yes"/>
			<point x="220" y="104"/>
			<point x="192" y="130"/>
			<point x="192" y="170" type="curve" smooth="yes"/>
			<point x="192" y="218"/>
			<point x="230" y="244"/>
			<point x="300" y="244" type="curve" smooth="yes"/>
			<point x="356" y="244" type="line"/>
			<point x="364" y="236" type="line"/>
			<point x="364" y="204" type="line" smooth="yes"/>
			<point x="364" y="142"/>
			<point x="328" y="104"/>
		</contour>
	</outline>
	<anchor name="bottom" x="272" y="0"/>
	<anchor name="ogonek" x="520" y="0"/>
	<anchor name="top" x="308" y="576"/>
</glyph>
<glyph name="b" format="2">
	<unicode hex="0062"/>
	<advance width="644"/>
	<outline>
		<contour>
			<point x="40" y="0" type="line"/>
			<point x="184" y="0" type="line"/>
			<point x="200" y="16" type="line"/>
			<point x="208" y="64" type="line"/>
			<point x="216" y="64" type="line"/>
			<point x="248" y="16"/>
			<point x="318" y="-16"/>
			<point x="392" y="-16" type="curve" smooth="yes"/>
			<point x="536" y="-16"/>
			<point x="632" y="106"/>
			<point x="632" y="286" type="curve" smooth="yes"/>
			<point x="632" y="470"/>
			<point x="532" y="592"/>
			<point x="382" y="592" type="curve" smooth="yes"/>
			<point x="310" y="592"/>
			<point x="258" y="566"/>
			<point x="224" y="512" type="curve"/>
			<point x="216" y="512" type="line"/>
			<point x="216" y="784" type="line"/>
			<point x="200" y="800" type="line"/>
			<point x="40" y="800" type="line"/>
			<point x="24" y="784" type="line"/>
			<point x="24" y="16" type="line"/>
		</contour>
		<contour>
			<point x="326" y="446" type="curve" smooth="yes"/>
			<point x="392" y="446"/>
			<point x="436" y="382"/>
			<point x="436" y="286" type="curve" smooth="yes"/>
			<point x="436" y="188"/>
			<point x="394" y="126"/>
			<point x="326" y="126" type="curve" smooth="yes"/>
			<point x="260" y="126"/>
			<point x="216" y="190"/>
			<point x="216" y="286" type="curve" smooth="yes"/>
			<point x="216" y="384"/>
			<point x="260" y="446"/>
		</contour>
	</outline>
</glyph>
<glyph name="c" format="2">
	<unicode hex="0063"/>
	<advance width="616"/>
	<outline>
		<contour>
			<point x="322" y="-16" type="curve" smooth="yes"/>
			<point x="488" y="-16"/>
			<point x="600" y="82"/>
			<point x="600" y="228" type="curve"/>
			<point x="584" y="244" type="line"/>
			<point x="440" y="244" type="line"/>
			<point x="424" y="228" type="line"/>
			<point x="420" y="172"/>
			<point x="376" y="130"/>
			<point x="322" y="130" type="curve" smooth="yes"/>
			<point x="254" y="130"/>
			<point x="210" y="194"/>
			<point x="210" y="288" type="curve" smooth="yes"/>
			<point x="210" y="382"/>
			<point x="254" y="446"/>
			<point x="322" y="446" type="curve" smooth="yes"/>
			<point x="372" y="446"/>
			<point x="414" y="410"/>
			<point x="424" y="356" type="curve"/>
			<point x="440" y="340" type="line"/>
			<point x="580" y="340" type="line"/>
			<point x="596" y="356" type="line"/>
			<point x="596" y="496"/>
			<point x="484" y="592"/>
			<point x="322" y="592" type="curve" smooth="yes"/>
			<point x="136" y="592"/>
			<point x="16" y="472"/>
			<point x="16" y="288" type="curve" smooth="yes"/>
			<point x="16" y="106"/>
			<point x="138" y="-16"/>
		</contour>
	</outline>
	<anchor name="bottom" x="322" y="0"/>
	<anchor name="top" x="326" y="576"/>
</glyph>
<glyph name="d" format="2">
	<unicode hex="0064"/>
	<advance width="644"/>
	<outline>
		<contour>
			<point x="596" y="0" type="line"/>
			<point x="612" y="16" type="line"/>
			<point x="612" y="784" type="line"/>
			<point x="596" y="800" type="line"/>
			<point x="444" y="800" type="line"/>
			<point x="428" y="784" type="line"/>
			<point x="428" y="524" type="line"/>
			<point x="412" y="524" type="line"/>
			<point x="380" y="564"/>
			<point x="336" y="592"/>
			<point x="268" y="592" type="curve" smooth="yes"/>
			<point x="100" y="592"/>
			<point x="16" y="456"/>
			<point x="16" y="288" type="curve" smooth="yes"/>
			<point x="16" y="120"/>
			<point x="96" y="-16"/>
			<point x="264" y="-16" type="curve" smooth="yes"/>
			<point x="340" y="-16"/>
			<point x="384" y="8"/>
			<point x="424" y="64" type="curve"/>
			<point x="440" y="64" type="line"/>
			<point x="448" y="16" type="line"/>
			<point x="464" y="0" type="line"/>
		</contour>
		<contour>
			<point x="316" y="452" type="curve" smooth="yes"/>
			<point x="404" y="452"/>
			<point x="432" y="376"/>
			<point x="432" y="288" type="curve" smooth="yes"/>
			<point x="432" y="200"/>
			<point x="404" y="128"/>
			<point x="316" y="128" type="curve" smooth="yes"/>
			<point x="228" y="128"/>
			<point x="200" y="200"/>
			<point x="200" y="288" type="curve" smooth="yes"/>
			<point x="200" y="376"/>
			<point x="228" y="452"/>
		</contour>
	</outline>
</glyph>
<glyph name="e" format="2">
	<unicode hex="0065"/>
	<advance width="626"/>
	<outline>
		<contour>
			<point x="212" y="350" type="line"/>
			<point x="204" y="358" type="line"/>
			<point x="214" y="416"/>
			<point x="256" y="456"/>
			<point x="312" y="456" type="curve" smooth="yes"/>
			<point x="368" y="456"/>
			<point x="414" y="416"/>
			<point x="422" y="358" type="curve"/>
			<point x="414" y="350" type="line"/>
		</contour>
		<contour>
			<point x="312" y="-16" type="curve" smooth="yes"/>
			<point x="444" y="-16"/>
			<point x="548" y="48"/>
			<point x="588" y="152" type="curve"/>
			<point x="588" y="168" type="line"/>
			<point x="572" y="184" type="line"/>
			<point x="430" y="184" type="line"/>
			<point x="414" y="176" type="line"/>
			<point x="388" y="138"/>
			<point x="352" y="118"/>
			<point x="312" y="118" type="curve" smooth="yes"/>
			<point x="250" y="118"/>
			<point x="204" y="166"/>
			<point x="204" y="232" type="curve"/>
			<point x="212" y="240" type="line"/>
			<point x="594" y="240" type="line"/>
			<point x="610" y="256" type="line"/>
			<point x="610" y="460"/>
			<point x="492" y="592"/>
			<point x="312" y="592" type="curve" smooth="yes"/>
			<point x="134" y="592"/>
			<point x="16" y="472"/>
			<point x="16" y="288" type="curve" smooth="yes"/>
			<point x="16" y="104"/>
			<point x="134" y="-16"/>
		</contour>
	</outline>
	<anchor name="bottom" x="320" y="0"/>
	<anchor name="ogonek" x="428" y="60"/>
	<anchor name="top" x="312" y="576"/>
</glyph>
<glyph name="f" format="2">
	<unicode hex="0066"/>
	<advance width="396"/>
	<outline>
		<contour>
			<point x="104" y="0" type="line"/>
			<point x="256" y="0" type="line"/>
			<point x="272" y="16" type="line"/>
			<point x="272" y="448" type="line"/>
			<point x="284" y="460" type="line"/>
			<point x="364" y="460" type="line"/>
			<point x="380" y="476" type="line"/>
			<point x="380" y="560" type="line"/>
			<point x="364" y="576" type="line"/>
			<point x="284" y="576" type="line"/>
			<point x="272" y="588" type="line"/>
			<point x="272" y="608" type="line" smooth="yes"/>
			<point x="272" y="648"/>
			<point x="296" y="672"/>
			<point x="336" y="672" type="curve" smooth="yes"/>
			<point x="364" y="672" type="line"/>
			<point x="380" y="688" type="line"/>
			<point x="380" y="784" type="line"/>
			<point x="364" y="800" type="line"/>
			<point x="276" y="800" type="line" smooth="yes"/>
			<point x="164" y="800"/>
			<point x="88" y="732"/>
			<point x="88" y="620" type="curve" smooth="yes"/>
			<point x="88" y="588" type="line"/>
			<point x="76" y="576" type="line"/>
			<point x="32" y="576" type="line"/>
			<point x="16" y="560" type="line"/>
			<point x="16" y="476" type="line"/>
			<point x="32" y="460" type="line"/>
			<point x="80" y="460" type="line"/>
			<point x="88" y="448" type="line"/>
			<point x="88" y="16" type="line"/>
		</contour>
	</outline>
</glyph>
<glyph name="g" format="2">
	<unicode hex="0067"/>
	<advance width="638"/>
	<outline>
		<contour>
			<point x="590" y="576" type="line"/>
			<point x="450" y="576" type="line"/>
			<point x="434" y="560" type="line"/>
			<point x="426" y="512" type="line"/>
			<point x="418" y="512" type="line"/>
			<point x="382" y="568"/>
			<point x="336" y="592"/>
			<point x="266" y="592" type="curve" smooth="yes"/>
			<point x="116" y="592"/>
			<point x="16" y="480"/>
			<point x="16" y="312" type="curve" smooth="yes"/>
			<point x="16" y="144"/>
			<point x="114" y="32"/>
			<point x="262" y="32" type="curve" smooth="yes"/>
			<point x="324" y="32"/>
			<point x="372" y="50"/>
			<point x="410" y="88" type="curve"/>
			<point x="418" y="88" type="line"/>
			<point x="418" y="14" type="line" smooth="yes"/>
			<point x="418" y="-44"/>
			<point x="382" y="-74"/>
			<point x="314" y="-74" type="curve" smooth="yes"/>
			<point x="258" y="-74"/>
			<point x="228" y="-56"/>
			<point x="214" y="-16" type="curve"/>
			<point x="198" y="0" type="line"/>
			<point x="54" y="0" type="line"/>
			<point x="38" y="-16" type="line"/>
			<point x="38" y="-32" type="line"/>
			<point x="62" y="-144"/>
			<point x="162" y="-208"/>
			<point x="310" y="-208" type="curve" smooth="yes"/>
			<point x="498" y="-208"/>
			<point x="606" y="-106"/>
			<point x="606" y="72" type="curve" smooth="yes"/>
			<point x="606" y="560" type="line"/>
		</contour>
		<contour>
			<point x="310" y="168" type="curve" smooth="yes"/>
			<point x="248" y="168"/>
			<point x="202" y="228"/>
			<point x="202" y="312" type="curve" smooth="yes"/>
			<point x="202" y="396"/>
			<point x="248" y="456"/>
			<point x="310" y="456" type="curve" smooth="yes"/>
			<point x="372" y="456"/>
			<point x="418" y="396"/>
			<point x="418" y="312" type="curve" smooth="yes"/>
			<point x="418" y="228"/>
			<point x="372" y="168"/>
		</contour>
	</outline>
	<anchor name="bottom" x="310" y="-224"/>
	<anchor name="top" x="298" y="576"/>
</glyph>
<glyph name="h" format="2">
	<unicode hex="0068"/>
	<advance width="616"/>
	<outline>
		<contour>
			<point x="48" y="0" type="line"/>
			<point x="204" y="0" type="line"/>
			<point x="220" y="16" type="line"/>
			<point x="220" y="318" type="line" smooth="yes"/>
			<point x="220" y="394"/>
			<point x="252" y="436"/>
			<point x="312" y="436" type="curve" smooth="yes"/>
			<point x="372" y="436"/>
			<point x="404" y="394"/>
			<point x="404" y="318" type="curve" smooth="yes"/>
			<point x="404" y="16" type="line"/>
			<point x="420" y="0" type="line"/>
			<point x="576" y="0" type="line"/>
			<point x="592" y="16" type="line"/>
			<point x="592" y="334" type="line" smooth="yes"/>
			<point x="592" y="496"/>
			<point x="516" y="592"/>
			<point x="384" y="592" type="curve" smooth="yes"/>
			<point x="316" y="592"/>
			<point x="268" y="566"/>
			<point x="228" y="512" type="curve"/>
			<point x="220" y="512" type="line"/>
			<point x="220" y="784" type="line"/>
			<point x="204" y="800" type="line"/>
			<point x="48" y="800" type="line"/>
			<point x="32" y="784" type="line"/>
			<point x="32" y="16" type="line"/>
		</contour>
	</outline>
</glyph>
<glyph name="i" format="2">
	<unicode hex="0069"/>
	<advance width="252"/>
	<outline>
		<contour>
			<point x="48" y="636" type="line"/>
			<point x="204" y="636" type="line"/>
			<point x="220" y="652" type="line"/>
			<point x="220" y="784" type="line"/>
			<point x="204" y="800" type="line"/>
			<point x="48" y="800" type="line"/>
			<point x="32" y="784" type="line"/>
			<point x="32" y="652" type="line"/>
		</contour>
		<contour>
			<point x="48" y="0" type="line"/>
			<point x="204" y="0" type="line"/>
			<point x="220" y="16" type="line"/>
			<point x="220" y="560" type="line"/>
			<point x="204" y="576" type="line"/>
			<point x="48" y="576" type="line"/>
			<point x="32" y="560" type="line"/>
			<point x="32" y="16" type="line"/>
		</contour>
	</outline>
</glyph>
<glyph name="j" format="2">
	<unicode hex="006A"/>
	<advance width="248"/>
	<outline>
		<contour>
			<point x="-48" y="-188" type="line"/>
			<point x="52" y="-188" type="line" smooth="yes"/>
			<point x="156" y="-188"/>
			<point x="216" y="-132"/>
			<point x="216" y="-28" type="curve" smooth="yes"/>
			<point x="216" y="560" type="line"/>
			<point x="200" y="576" type="line"/>
			<point x="48" y="576" type="line"/>
			<point x="32" y="560" type="line"/>
			<point x="32" y="-20" type="line" smooth="yes"/>
			<point x="32" y="-44"/>
			<point x="20" y="-52"/>
			<point x="-4" y="-52" type="curve" smooth="yes"/>
			<point x="-48" y="-52" type="line"/>
			<point x="-64" y="-68" type="line"/>
			<point x="-64" y="-172" type="line"/>
		</contour>
		<contour>
			<point x="48" y="632" type="line"/>
			<point x="200" y="632" type="line"/>
			<point x="216" y="648" type="line"/>
			<point x="216" y="784" type="line"/>
			<point x="200" y="800" type="line"/>
			<point x="48" y="800" type="line"/>
			<point x="32" y="784" type="line"/>
			<point x="32" y="648" type="line"/>
		</contour>
	</outline>
</glyph>
<glyph name="k" format="2">
	<unicode hex="006B"/>
	<advance width="584"/>
	<outline>
		<contour>
			<point x="48" y="0" type="line"/>
			<point x="200" y="0" type="line"/>
			<point x="216" y="16" type="line"/>
			<point x="216" y="172" type="line"/>
			<point x="264" y="224" type="line"/>
			<point x="280" y="224" type="line"/>
			<point x="408" y="16" type="line"/>
			<point x="424" y="0" type="line"/>
			<point x="556" y="0" type="line"/>
			<point x="572" y="16" type="line"/>
			<point x="572" y="80" type="line"/>
			<point x="404" y="344" type="line"/>
			<point x="404" y="360" type="line"/>
			<point x="560" y="528" type="line"/>
			<point x="560" y="560" type="line"/>
			<point x="544" y="576" type="line"/>
			<point x="400" y="576" type="line"/>
			<point x="384" y="568" type="line"/>
			<point x="232" y="400" type="line"/>
			<point x="216" y="400" type="line"/>
			<point x="216" y="784" type="line"/>
			<point x="200" y="800" type="line"/>
			<point x="48" y="800" type="line"/>
			<point x="32" y="784" type="line"/>
			<point x="32" y="16" type="line"/>
		</contour>
	</outline>
	<anchor name="bottom" x="276" y="0"/>
	<anchor name="top" x="276" y="800"/>
</glyph>
<glyph name="l" format="2">
	<unicode hex="006C"/>
	<advance width="252"/>
	<outline>
		<contour>
			<point x="48" y="0" type="line"/>
			<point x="204" y="0" type="line"/>
			<point x="220" y="16" type="line"/>
			<point x="220" y="784" type="line"/>
			<point x="204" y="800" type="line"/>
			<point x="48" y="800" type="line"/>
			<point x="32" y="784" type="line"/>
			<point x="32" y="16" type="line"/>
		</contour>
	</outline>
	<anchor name="bottom" x="128" y="0"/>
	<anchor name="center" x="128" y="376"/>
	<anchor name="top" x="126" y="800"/>
	<anchor name="topright" x="240" y="836"/>
</glyph>
<glyph name="m" format="2">
	<unicode hex="006D"/>
	<advance width="948"/>
	<outline>
		<contour>
			<point x="48" y="0" type="line"/>
			<point x="200" y="0" type="line"/>
			<point x="216" y="16" type="line"/>
			<point x="216" y="324" type="line" smooth="yes"/>
			<point x="216" y="388"/>
			<point x="242" y="436"/>
			<point x="300" y="436" type="curve" smooth="yes"/>
			<point x="358" y="436"/>
			<point x="384" y="388"/>
			<point x="384" y="324" type="curve" smooth="yes"/>
			<point x="384" y="16" type="line"/>
			<point x="400" y="0" type="line"/>
			<point x="552" y="0" type="line"/>
			<point x="568" y="16" type="line"/>
			<point x="568" y="324" type="line" smooth="yes"/>
			<point x="568" y="388"/>
			<point x="594" y="436"/>
			<point x="652" y="436" type="curve" smooth="yes"/>
			<point x="710" y="436"/>
			<point x="736" y="388"/>
			<point x="736" y="324" type="curve" smooth="yes"/>
			<point x="736" y="16" type="line"/>
			<point x="752" y="0" type="line"/>
			<point x="904" y="0" type="line"/>
			<point x="920" y="16" type="line"/>
			<point x="920" y="346" type="line" smooth="yes"/>
			<point x="920" y="502"/>
			<point x="846" y="592"/>
			<point x="724" y="592" type="curve" smooth="yes"/>
			<point x="646" y="592"/>
			<point x="576" y="556"/>
			<point x="544" y="496" type="curve"/>
			<point x="536" y="496" type="line"/>
			<point x="518" y="550"/>
			<point x="450" y="592"/>
			<point x="380" y="592" type="curve" smooth="yes"/>
			<point x="314" y="592"/>
			<point x="242" y="556"/>
			<point x="220" y="512" type="curve"/>
			<point x="212" y="512" type="line"/>
			<point x="204" y="560" type="line"/>
			<point x="188" y="576" type="line"/>
			<point x="48" y="576" type="line"/>
			<point x="32" y="560" type="line"/>
			<point x="32" y="16" type="line"/>
		</contour>
	</outline>
</glyph>
<glyph name="n" format="2">
	<unicode hex="006E"/>
	<advance width="618"/>
	<outline>
		<contour>
			<point x="48" y="0" type="line"/>
			<point x="204" y="0" type="line"/>
			<point x="220" y="16" type="line"/>
			<point x="220" y="318" type="line" smooth="yes"/>
			<point x="220" y="396"/>
			<point x="252" y="436"/>
			<point x="312" y="436" type="curve" smooth="yes"/>
			<point x="372" y="436"/>
			<point x="404" y="396"/>
			<point x="404" y="318" type="curve" smooth="yes"/>
			<point x="404" y="16" type="line"/>
			<point x="420" y="0" type="line"/>
			<point x="576" y="0" type="line"/>
			<point x="592" y="16" type="line"/>
			<point x="592" y="334" type="line" smooth="yes"/>
			<point x="592" y="502"/>
			<point x="518" y="592"/>
			<point x="384" y="592" type="curve" smooth="yes"/>
			<point x="312" y="592"/>
			<point x="254" y="566"/>
			<point x="216" y="512" type="curve"/>
			<point x="208" y="512" type="line"/>
			<point x="200" y="560" type="line"/>
			<point x="184" y="576" type="line"/>
			<point x="48" y="576" type="line"/>
			<point x="32" y="560" type="line"/>
			<point x="32" y="16" type="line"/>
		</contour>
	</outline>
	<anchor name="bottom" x="312" y="0"/>
	<anchor name="top" x="312" y="576"/>
</glyph>
<glyph name="o" format="2">
	<unicode hex="006F"/>
	<advance width="636"/>
	<outline>
		<contour>
			<point x="318" y="-16" type="curve" smooth="yes"/>
			<point x="500" y="-16"/>
			<point x="616" y="102"/>
			<point x="616" y="288" type="curve" smooth="yes"/>
			<point x="616" y="474"/>
			<point x="500" y="592"/>
			<point x="318" y="592" type="curve" smooth="yes"/>
			<point x="136" y="592"/>
			<point x="20" y="474"/>
			<point x="20" y="288" type="curve" smooth="yes"/>
			<point x="20" y="102"/>
			<point x="136" y="-16"/>
		</contour>
		<contour>
			<point x="318" y="130" type="curve" smooth="yes"/>
			<point x="254" y="130"/>
			<point x="214" y="192"/>
			<point x="214" y="288" type="curve" smooth="yes"/>
			<point x="214" y="384"/>
			<point x="254" y="446"/>
			<point x="318" y="446" type="curve" smooth="yes"/>
			<point x="382" y="446"/>
			<point x="422" y="384"/>
			<point x="422" y="288" type="curve" smooth="yes"/>
			<point x="422" y="192"/>
			<point x="382" y="130"/>
		</contour>
	</outline>
	<anchor name="bottom" x="318" y="0"/>
	<anchor name="center" x="318" y="288"/>
	<anchor name="ogonek" x="570" y="44"/>
	<anchor name="top" x="318" y="576"/>
	<anchor name="topright" x="562" y="536"/>
</glyph>
<glyph name="p" format="2">
	<unicode hex="0070"/>
	<advance width="648"/>
	<outline>
		<contour>
			<point x="48" y="-200" type="line"/>
			<point x="204" y="-200" type="line"/>
			<point x="220" y="-184" type="line"/>
			<point x="220" y="48" type="line"/>
			<point x="228" y="48" type="line"/>
			<point x="270" y="4"/>
			<point x="318" y="-16"/>
			<point x="382" y="-16" type="curve" smooth="yes"/>
			<point x="536" y="-16"/>
			<point x="632" y="102"/>
			<point x="632" y="288" type="curve" smooth="yes"/>
			<point x="632" y="474"/>
			<point x="536" y="592"/>
			<point x="386" y="592" type="curve" smooth="yes"/>
			<point x="316" y="592"/>
			<point x="264" y="566"/>
			<point x="224" y="512" type="curve"/>
			<point x="216" y="512" type="line"/>
			<point x="208" y="560" type="line"/>
			<point x="192" y="576" type="line"/>
			<point x="48" y="576" type="line"/>
			<point x="32" y="560" type="line"/>
			<point x="32" y="-184" type="line"/>
		</contour>
		<contour>
			<point x="332" y="130" type="curve" smooth="yes"/>
			<point x="266" y="130"/>
			<point x="218" y="196"/>
			<point x="218" y="288" type="curve" smooth="yes"/>
			<point x="218" y="380"/>
			<point x="266" y="446"/>
			<point x="332" y="446" type="curve" smooth="yes"/>
			<point x="398" y="446"/>
			<point x="446" y="380"/>
			<point x="446" y="288" type="curve" smooth="yes"/>
			<point x="446" y="196"/>
			<point x="398" y="130"/>
		</contour>
	</outline>
</glyph>
<glyph name="q" format="2">
	<unicode hex="0071"/>
	<advance width="640"/>
	<outline>
		<contour>
			<point x="592" y="-200" type="line"/>
			<point x="608" y="-184" type="line"/>
			<point x="608" y="560" type="line"/>
			<point x="592" y="576" type="line"/>
			<point x="464" y="576" type="line"/>
			<point x="448" y="560" type="line"/>
			<point x="440" y="512" type="line"/>
			<point x="424" y="512" type="line"/>
			<point x="392" y="556"/>
			<point x="344" y="592"/>
			<point x="268" y="592" type="curve" smooth="yes"/>
			<point x="108" y="592"/>
			<point x="16" y="452"/>
			<point x="16" y="288" type="curve" smooth="yes"/>
			<point x="16" y="124"/>
			<point x="88" y="-16"/>
			<point x="248" y="-16" type="curve" smooth="yes"/>
			<point x="336" y="-16"/>
			<point x="376" y="0"/>
			<point x="412" y="44" type="curve"/>
			<point x="428" y="44" type="line"/>
			<point x="428" y="-184" type="line"/>
			<point x="444" y="-200" type="line"/>
		</contour>
		<contour>
			<point x="322" y="124" type="curve" smooth="yes"/>
			<point x="262" y="124"/>
			<point x="200" y="168"/>
			<point x="200" y="288" type="curve" smooth="yes"/>
			<point x="200" y="404"/>
			<point x="262" y="444"/>
			<point x="322" y="444" type="curve" smooth="yes"/>
			<point x="378" y="444"/>
			<point x="432" y="404"/>
			<point x="432" y="288" type="curve" smooth="yes"/>
			<point x="432" y="168"/>
			<point x="378" y="124"/>
		</contour>
	</outline>
</glyph>
<glyph name="r" format="2">
	<unicode hex="0072"/>
	<advance width="406"/>
	<outline>
		<contour>
			<point x="46" y="0" type="line"/>
			<point x="202" y="0" type="line"/>
			<point x="218" y="16" type="line"/>
			<point x="218" y="288" type="line" smooth="yes"/>
			<point x="218" y="398"/>
			<point x="258" y="436"/>
			<point x="346" y="436" type="curve" smooth="yes"/>
			<point x="378" y="436" type="line"/>
			<point x="394" y="452" type="line"/>
			<point x="394" y="560" type="line"/>
			<point x="378" y="576" type="line"/>
			<point x="354" y="576" type="line" smooth="yes"/>
			<point x="286" y="576"/>
			<point x="244" y="556"/>
			<point x="218" y="512" type="curve"/>
			<point x="210" y="512" type="line"/>
			<point x="202" y="560" type="line"/>
			<point x="186" y="576" type="line"/>
			<point x="46" y="576" type="line"/>
			<point x="30" y="560" type="line"/>
			<point x="30" y="16" type="line"/>
		</contour>
	</outline>
	<anchor name="bottom" x="118" y="0"/>
	<anchor name="top" x="238" y="576"/>
</glyph>
<glyph name="s" format="2">
	<unicode hex="0073"/>
	<advance width="560"/>
	<outline>
		<contour>
			<point x="292" y="-16" type="curve" smooth="yes"/>
			<point x="460" y="-16"/>
			<point x="552" y="52"/>
			<point x="552" y="176" type="curve" smooth="yes"/>
			<point x="552" y="264"/>
			<point x="506" y="314"/>
			<point x="398" y="340" type="curve" smooth="yes"/>
			<point x="284" y="368" type="line" smooth="yes"/>
			<point x="224" y="382"/>
			<point x="202" y="396"/>
			<point x="202" y="420" type="curve" smooth="yes"/>
			<point x="202" y="446"/>
			<point x="228" y="460"/>
			<point x="280" y="460" type="curve" smooth="yes"/>
			<point x="332" y="460"/>
			<point x="364" y="446"/>
			<point x="372" y="408" type="curve"/>
			<point x="388" y="392" type="line"/>
			<point x="512" y="392" type="line"/>
			<point x="528" y="408" type="line"/>
			<point x="528" y="424" type="line"/>
			<point x="512" y="530"/>
			<point x="420" y="592"/>
			<point x="280" y="592" type="curve" smooth="yes"/>
			<point x="128" y="592"/>
			<point x="24" y="518"/>
			<point x="24" y="408" type="curve" smooth="yes"/>
			<point x="24" y="330"/>
			<point x="76" y="270"/>
			<point x="164" y="248" type="curve" smooth="yes"/>
			<point x="298" y="214" type="line" smooth="yes"/>
			<point x="352" y="200"/>
			<point x="372" y="186"/>
			<point x="372" y="160" type="curve" smooth="yes"/>
			<point x="372" y="128"/>
			<point x="342" y="112"/>
			<point x="282" y="112" type="curve" smooth="yes"/>
			<point x="222" y="112"/>
			<point x="192" y="128"/>
			<point x="184" y="168" type="curve"/>
			<point x="168" y="184" type="line"/>
			<point x="32" y="184" type="line"/>
			<point x="16" y="168" type="line"/>
			<point x="16" y="152" type="line"/>
			<point x="32" y="46"/>
			<point x="132" y="-16"/>
		</contour>
	</outline>
	<anchor name="bottom" x="324" y="0"/>
	<anchor name="top" x="312" y="576"/>
</glyph>
<glyph name="t" format="2">
	<unicode hex="0074"/>
	<advance width="396"/>
	<outline>
		<contour>
			<point x="232" y="0" type="curve" smooth="yes"/>
			<point x="360" y="0" type="line"/>
			<point x="376" y="16" type="line"/>
			<point x="376" y="136" type="line"/>
			<point x="360" y="152" type="line"/>
			<point x="324" y="152" type="line" smooth="yes"/>
			<point x="292" y="152"/>
			<point x="276" y="168"/>
			<point x="276" y="200" type="curve" smooth="yes"/>
			<point x="276" y="428" type="line"/>
			<point x="284" y="436" type="line"/>
			<point x="360" y="436" type="line"/>
			<point x="376" y="452" type="line"/>
			<point x="376" y="560" type="line"/>
			<point x="360" y="576" type="line"/>
			<point x="284" y="576" type="line"/>
			<point x="276" y="584" type="line"/>
			<point x="276" y="718" type="line"/>
			<point x="260" y="734" type="line"/>
			<point x="104" y="734" type="line"/>
			<point x="88" y="718" type="line"/>
			<point x="88" y="584" type="line"/>
			<point x="80" y="576" type="line"/>
			<point x="32" y="576" type="line"/>
			<point x="16" y="560" type="line"/>
			<point x="16" y="452" type="line"/>
			<point x="32" y="436" type="line"/>
			<point x="80" y="436" type="line"/>
			<point x="88" y="428" type="line"/>
			<point x="88" y="136" type="line" smooth="yes"/>
			<point x="88" y="48"/>
			<point x="144" y="0"/>
		</contour>
	</outline>
	<anchor name="bottom" x="216" y="0"/>
	<anchor name="center" x="164" y="260"/>
	<anchor name="topright" x="272" y="764"/>
</glyph>
<glyph name="u" format="2">
	<unicode hex="0075"/>
	<advance width="612"/>
	<outline>
		<contour>
			<point x="232" y="-16" type="curve" smooth="yes"/>
			<point x="308" y="-16"/>
			<point x="360" y="8"/>
			<point x="400" y="64" type="curve"/>
			<point x="408" y="64" type="line"/>
			<point x="416" y="16" type="line"/>
			<point x="432" y="0" type="line"/>
			<point x="564" y="0" type="line"/>
			<point x="580" y="16" type="line"/>
			<point x="580" y="560" type="line"/>
			<point x="564" y="576" type="line"/>
			<point x="416" y="576" type="line"/>
			<point x="400" y="560" type="line"/>
			<point x="400" y="252" type="line" smooth="yes"/>
			<point x="400" y="184"/>
			<point x="372" y="140"/>
			<point x="304" y="140" type="curve" smooth="yes"/>
			<point x="236" y="140"/>
			<point x="208" y="184"/>
			<point x="208" y="252" type="curve" smooth="yes"/>
			<point x="208" y="560" type="line"/>
			<point x="192" y="576" type="line"/>
			<point x="44" y="576" type="line"/>
			<point x="28" y="560" type="line"/>
			<point x="28" y="256" type="line" smooth="yes"/>
			<point x="28" y="88"/>
			<point x="72" y="-16"/>
		</contour>
	</outline>
	<anchor name="bottom" x="272" y="0"/>
	<anchor name="top" x="272" y="576"/>
</glyph>
<glyph name="v" format="2">
	<unicode hex="0076"/>
	<advance width="572"/>
	<outline>
		<contour>
			<point x="196" y="0" type="line"/>
			<point x="372" y="0" type="line"/>
			<point x="388" y="16" type="line"/>
			<point x="556" y="496" type="line"/>
			<point x="556" y="560" type="line"/>
			<point x="540" y="576" type="line"/>
			<point x="412" y="576" type="line"/>
			<point x="396" y="560" type="line"/>
			<point x="296" y="216" type="line"/>
			<point x="280" y="216" type="line"/>
			<point x="180" y="560" type="line"/>
			<point x="164" y="576" type="line"/>
			<point x="32" y="576" type="line"/>
			<point x="16" y="560" type="line"/>
			<point x="16" y="496" type="line"/>
			<point x="180" y="16" type="line"/>
		</contour>
	</outline>
</glyph>
<glyph name="w" format="2">
	<unicode hex="0077"/>
	<advance width="868"/>
	<outline>
		<contour>
			<point x="172" y="0" type="line"/>
			<point x="328" y="0" type="line"/>
			<point x="344" y="16" type="line"/>
			<point x="428" y="348" type="line"/>
			<point x="436" y="348" type="line"/>
			<point x="520" y="16" type="line"/>
			<point x="536" y="0" type="line"/>
			<point x="692" y="0" type="line"/>
			<point x="708" y="16" type="line"/>
			<point x="852" y="496" type="line"/>
			<point x="852" y="560" type="line"/>
			<point x="836" y="576" type="line"/>
			<point x="700" y="576" type="line"/>
			<point x="684" y="560" type="line"/>
			<point x="602" y="236" type="line"/>
			<point x="594" y="236" type="line"/>
			<point x="516" y="560" type="line"/>
			<point x="500" y="576" type="line"/>
			<point x="364" y="576" type="line"/>
			<point x="348" y="560" type="line"/>
			<point x="270" y="236" type="line"/>
			<point x="262" y="236" type="line"/>
			<point x="184" y="560" type="line"/>
			<point x="168" y="576" type="line"/>
			<point x="32" y="576" type="line"/>
			<point x="16" y="560" type="line"/>
			<point x="16" y="496" type="line"/>
			<point x="156" y="16" type="line"/>
		</contour>
	</outline>
	<anchor name="bottom" x="436" y="0"/>
	<anchor name="top" x="436" y="576"/>
</glyph>
<glyph name="x" format="2">
	<unicode hex="0078"/>
	<advance width="528"/>
	<outline>
		<contour>
			<point x="28" y="0" type="line"/>
			<point x="144" y="0" type="line"/>
			<point x="160" y="16" type="line"/>
			<point x="256" y="168" type="line"/>
			<point x="268" y="168" type="line"/>
			<point x="360" y="16" type="line"/>
			<point x="376" y="0" type="line"/>
			<point x="500" y="0" type="line"/>
			<point x="516" y="16" type="line"/>
			<point x="516" y="80" type="line"/>
			<point x="376" y="296" type="line"/>
			<point x="376" y="312" type="line"/>
			<point x="492" y="496" type="line"/>
			<point x="492" y="560" type="line"/>
			<point x="476" y="576" type="line"/>
			<point x="368" y="576" type="line"/>
			<point x="352" y="560" type="line"/>
			<point x="276" y="432" type="line"/>
			<point x="264" y="432" type="line"/>
			<point x="184" y="560" type="line"/>
			<point x="168" y="576" type="line"/>
			<point x="48" y="576" type="line"/>
			<point x="32" y="560" type="line"/>
			<point x="32" y="496" type="line"/>
			<point x="156" y="312" type="line"/>
			<point x="156" y="296" type="line"/>
			<point x="12" y="80" type="line"/>
			<point x="12" y="16" type="line"/>
		</contour>
	</outline>
</glyph>
<glyph name="y" format="2">
	<unicode hex="0079"/>
	<advance width="568"/>
	<outline>
		<contour>
			<point x="64" y="-188" type="line"/>
			<point x="156" y="-188" type="line" smooth="yes"/>
			<point x="260" y="-188"/>
			<point x="332" y="-156"/>
			<point x="368" y="-44" type="curve" smooth="yes"/>
			<point x="552" y="496" type="line"/>
			<point x="552" y="560" type="line"/>
			<point x="536" y="576" type="line"/>
			<point x="412" y="576" type="line"/>
			<point x="396" y="560" type="line"/>
			<point x="296" y="216" type="line"/>
			<point x="280" y="216" type="line"/>
			<point x="172" y="560" type="line"/>
			<point x="156" y="576" type="line"/>
			<point x="32" y="576" type="line"/>
			<point x="16" y="560" type="line"/>
			<point x="16" y="496" type="line"/>
			<point x="192" y="32" type="line"/>
			<point x="192" y="0" type="line"/>
			<point x="192" y="-9" type="line"/>
			<point x="189" y="-34"/>
			<point x="177" y="-44"/>
			<point x="148" y="-44" type="curve" smooth="yes"/>
			<point x="64" y="-44" type="line"/>
			<point x="48" y="-60" type="line"/>
			<point x="48" y="-172" type="line"/>
		</contour>
	</outline>
	<anchor name="bottom" x="304" y="0"/>
	<anchor name="top" x="300" y="576"/>
</glyph>
<glyph name="z" format="2">
	<unicode hex="007A"/>
	<advance width="564"/>
	<outline>
		<contour>
			<point x="40" y="0" type="line"/>
			<point x="524" y="0" type="line"/>
			<point x="540" y="16" type="line"/>
			<point x="540" y="128" type="line"/>
			<point x="524" y="144" type="line"/>
			<point x="256" y="144" type="line"/>
			<point x="256" y="160" type="line"/>
			<point x="508" y="424" type="line"/>
			<point x="524" y="456" type="line"/>
			<point x="524" y="560" type="line"/>
			<point x="508" y="576" type="line"/>
			<point x="68" y="576" type="line"/>
			<point x="52" y="560" type="line"/>
			<point x="52" y="452" type="line"/>
			<point x="68" y="436" type="line"/>
			<point x="304" y="436" type="line"/>
			<point x="304" y="424" type="line"/>
			<point x="32" y="140" type="line"/>
			<point x="24" y="116" type="line"/>
			<point x="24" y="16" type="line"/>
		</contour>
	</outline>
	<anchor name="bottom" x="284" y="0"/>
	<anchor name="center" x="284" y="260"/>
	<anchor name="top" x="284" y="576"/>
</glyph>
<glyph name="braceleft" format="2">
	<unicode hex="007B"/>
	<advance width="456"/>
	<outline>
		<contour>
			<point x="404" y="-156" type="line"/>
			<point x="420" y="-140" type="line"/>
			<point x="420" y="-32" type="line"/>
			<point x="404" y="-16" type="line"/>
			<point x="380" y="-16" type="line" smooth="yes"/>
			<point x="324" y="-16"/>
			<point x="304" y="4"/>
			<point x="304" y="48" type="curve" smooth="yes"/>
			<point x="304" y="228" type="line" smooth="yes"/>
			<point x="304" y="292"/>
			<point x="268" y="340"/>
			<point x="232" y="340" type="curve"/>
			<point x="232" y="356" type="line"/>
			<point x="268" y="356"/>
			<point x="308" y="424"/>
			<point x="308" y="452" type="curve" smooth="yes"/>
			<point x="308" y="644" type="line" smooth="yes"/>
			<point x="308" y="688"/>
			<point x="328" y="708"/>
			<point x="384" y="708" type="curve" smooth="yes"/>
			<point x="408" y="708" type="line"/>
			<point x="424" y="724" type="line"/>
			<point x="424" y="832" type="line"/>
			<point x="408" y="848" type="line"/>
			<point x="352" y="848" type="line" smooth="yes"/>
			<point x="224" y="848"/>
			<point x="132" y="788"/>
			<point x="132" y="660" type="curve" smooth="yes"/>
			<point x="132" y="500" type="line" smooth="yes"/>
			<point x="132" y="468"/>
			<point x="104" y="420"/>
			<point x="64" y="420" type="curve" smooth="yes"/>
			<point x="48" y="420" type="line"/>
			<point x="32" y="404" type="line"/>
			<point x="32" y="292" type="line"/>
			<point x="48" y="276" type="line"/>
			<point x="64" y="276" type="line" smooth="yes"/>
			<point x="116" y="276"/>
			<point x="128" y="240"/>
			<point x="128" y="168" type="curve" smooth="yes"/>
			<point x="128" y="32" type="line" smooth="yes"/>
			<point x="128" y="-96"/>
			<point x="220" y="-156"/>
			<point x="348" y="-156" type="curve" smooth="yes"/>
		</contour>
	</outline>
</glyph>
<glyph name="bar" format="2">
	<unicode hex="007C"/>
	<advance width="240"/>
	<outline>
		<contour>
			<point x="80" y="-156" type="line"/>
			<point x="160" y="-156" type="line"/>
			<point x="176" y="-140" type="line"/>
			<point x="176" y="832" type="line"/>
			<point x="160" y="848" type="line"/>
			<point x="80" y="848" type="line"/>
			<point x="64" y="832" type="line"/>
			<point x="64" y="-140" type="line"/>
		</contour>
	</outline>
</glyph>
<glyph name="braceright" format="2">
	<unicode hex="007D"/>
	<advance width="456"/>
	<outline>
		<contour>
			<point x="52" y="-156" type="line"/>
			<point x="108" y="-156" type="line" smooth="yes"/>
			<point x="236" y="-156"/>
			<point x="328" y="-96"/>
			<point x="328" y="32" type="curve" smooth="yes"/>
			<point x="328" y="168" type="line" smooth="yes"/>
			<point x="328" y="240"/>
			<point x="340" y="276"/>
			<point x="392" y="276" type="curve" smooth="yes"/>
			<point x="408" y="276" type="line"/>
			<point x="424" y="292" type="line"/>
			<point x="424" y="404" type="line"/>
			<point x="408" y="420" type="line"/>
			<point x="392" y="420" type="line" smooth="yes"/>
			<point x="352" y="420"/>
			<point x="324" y="468"/>
			<point x="324" y="500" type="curve" smooth="yes"/>
			<point x="324" y="660" type="line" smooth="yes"/>
			<point x="324" y="788"/>
			<point x="232" y="848"/>
			<point x="104" y="848" type="curve" smooth="yes"/>
			<point x="48" y="848" type="line"/>
			<point x="32" y="832" type="line"/>
			<point x="32" y="724" type="line"/>
			<point x="48" y="708" type="line"/>
			<point x="72" y="708" type="line" smooth="yes"/>
			<point x="128" y="708"/>
			<point x="148" y="688"/>
			<point x="148" y="644" type="curve" smooth="yes"/>
			<point x="148" y="452" type="line" smooth="yes"/>
			<point x="148" y="424"/>
			<point x="188" y="356"/>
			<point x="224" y="356" type="curve"/>
			<point x="224" y="340" type="line"/>
			<point x="188" y="340"/>
			<point x="152" y="292"/>
			<point x="152" y="228" type="curve" smooth="yes"/>
			<point x="152" y="48" type="line" smooth="yes"/>
			<point x="152" y="4"/>
			<point x="132" y="-16"/>
			<point x="76" y="-16" type="curve" smooth="yes"/>
			<point x="52" y="-16" type="line"/>
			<point x="36" y="-32" type="line"/>
			<point x="36" y="-140" type="line"/>
		</contour>
	</outline>
</glyph>
<glyph name="asciitilde" format="2">
	<unicode hex="007E"/>
	<advance width="800"/>
	<outline>
		<contour>
			<point x="516" y="184" type="curve" smooth="yes"/>
			<point x="616" y="184"/>
			<point x="684" y="232"/>
			<point x="684" y="332" type="curve" smooth="yes"/>
			<point x="684" y="424" type="line"/>
			<point x="676" y="432" type="line"/>
			<point x="592" y="432" type="line"/>
			<point x="584" y="424" type="line"/>
			<point x="584" y="344" type="line" smooth="yes"/>
			<point x="584" y="300"/>
			<point x="564" y="268"/>
			<point x="516" y="268" type="curve" smooth="yes"/>
			<point x="472" y="268"/>
			<point x="448" y="300"/>
			<point x="448" y="344" type="curve" smooth="yes"/>
			<point x="448" y="376" type="line" smooth="yes"/>
			<point x="448" y="476"/>
			<point x="384" y="520"/>
			<point x="284" y="520" type="curve" smooth="yes"/>
			<point x="184" y="520"/>
			<point x="116" y="476"/>
			<point x="116" y="376" type="curve" smooth="yes"/>
			<point x="116" y="328" type="line"/>
			<point x="124" y="320" type="line"/>
			<point x="208" y="320" type="line"/>
			<point x="216" y="328" type="line"/>
			<point x="216" y="360" type="line" smooth="yes"/>
			<point x="216" y="408"/>
			<point x="240" y="436"/>
			<point x="284" y="436" type="curve" smooth="yes"/>
			<point x="332" y="436"/>
			<point x="348" y="408"/>
			<point x="348" y="360" type="curve" smooth="yes"/>
			<point x="348" y="332" type="line" smooth="yes"/>
			<point x="348" y="232"/>
			<point x="416" y="184"/>
		</contour>
	</outline>
</glyph>
<glyph name="exclamdown" format="2">
	<unicode hex="00A1"/>
	<advance width="248"/>
	<outline>
		<contour>
			<point x="48" y="576" type="line"/>
			<point x="32" y="560" type="line"/>
			<point x="32" y="408" type="line"/>
			<point x="48" y="392" type="line"/>
			<point x="200" y="392" type="line"/>
			<point x="216" y="408" type="line"/>
			<point x="216" y="560" type="line"/>
			<point x="200" y="576" type="line"/>
		</contour>
		<contour>
			<point x="84" y="312" type="line"/>
			<point x="68" y="296" type="line"/>
			<point x="32" y="0" type="line"/>
			<point x="32" y="-208" type="line"/>
			<point x="48" y="-224" type="line"/>
			<point x="200" y="-224" type="line"/>
			<point x="216" y="-208" type="line"/>
			<point x="216" y="0" type="line"/>
			<point x="180" y="296" type="line"/>
			<point x="164" y="312" type="line"/>
		</contour>
	</outline>
</glyph>
<glyph name="cent" format="2">
	<unicode hex="00A2"/>
	<advance width="600"/>
	<outline>
		<contour>
			<point x="296" y="-124" type="line"/>
			<point x="332" y="-124" type="line"/>
			<point x="348" y="-108" type="line"/>
			<point x="348" y="-28" type="line"/>
			<point x="360" y="-16" type="line"/>
			<point x="512" y="-4"/>
			<point x="568" y="84"/>
			<point x="584" y="184" type="curve"/>
			<point x="584" y="200" type="line"/>
			<point x="568" y="216" type="line"/>
			<point x="436" y="216" type="line"/>
			<point x="420" y="200" type="line"/>
			<point x="412" y="168"/>
			<point x="384" y="136"/>
			<point x="356" y="120" type="curve"/>
			<point x="348" y="128" type="line"/>
			<point x="348" y="436" type="line"/>
			<point x="356" y="444" type="line"/>
			<point x="380" y="432"/>
			<point x="400" y="408"/>
			<point x="408" y="384" type="curve"/>
			<point x="424" y="368" type="line"/>
			<point x="564" y="368" type="line"/>
			<point x="580" y="384" type="line"/>
			<point x="580" y="400" type="line"/>
			<point x="564" y="484"/>
			<point x="492" y="576"/>
			<point x="360" y="588" type="curve"/>
			<point x="348" y="600" type="line"/>
			<point x="348" y="648" type="line"/>
			<point x="332" y="664" type="line"/>
			<point x="296" y="664" type="line"/>
			<point x="280" y="648" type="line"/>
			<point x="280" y="600" type="line"/>
			<point x="268" y="588" type="line"/>
			<point x="112" y="572"/>
			<point x="16" y="456"/>
			<point x="16" y="288" type="curve" smooth="yes"/>
			<point x="16" y="112"/>
			<point x="108" y="0"/>
			<point x="268" y="-16" type="curve"/>
			<point x="280" y="-28" type="line"/>
			<point x="280" y="-108" type="line"/>
		</contour>
		<contour>
			<point x="196" y="288" type="curve" smooth="yes"/>
			<point x="196" y="360"/>
			<point x="216" y="424"/>
			<point x="272" y="444" type="curve"/>
			<point x="280" y="436" type="line"/>
			<point x="280" y="128" type="line"/>
			<point x="272" y="120" type="line"/>
			<point x="220" y="152"/>
			<point x="196" y="208"/>
		</contour>
	</outline>
</glyph>
<glyph name="sterling" format="2">
	<unicode hex="00A3"/>
	<advance width="676"/>
	<outline>
		<contour>
			<point x="48" y="148" type="curve"/>
			<point x="32" y="132" type="line"/>
			<point x="32" y="16" type="line"/>
			<point x="48" y="0" type="line"/>
			<point x="624" y="0" type="line"/>
			<point x="640" y="16" type="line"/>
			<point x="640" y="132" type="line"/>
			<point x="624" y="148" type="line"/>
			<point x="236" y="148" type="line"/>
			<point x="224" y="160" type="line"/>
			<point x="288" y="196"/>
			<point x="324" y="244"/>
			<point x="324" y="320" type="curve"/>
			<point x="420" y="320" type="line"/>
			<point x="436" y="336" type="line"/>
			<point x="436" y="412" type="line"/>
			<point x="420" y="428" type="line"/>
			<point x="288" y="428" type="line"/>
			<point x="268" y="464"/>
			<point x="248" y="500"/>
			<point x="248" y="540" type="curve" smooth="yes"/>
			<point x="248" y="600"/>
			<point x="292" y="632"/>
			<point x="348" y="632" type="curve" smooth="yes"/>
			<point x="428" y="632"/>
			<point x="456" y="588"/>
			<point x="464" y="520" type="curve"/>
			<point x="480" y="504" type="line"/>
			<point x="628" y="504" type="line"/>
			<point x="644" y="520" type="line"/>
			<point x="644" y="668"/>
			<point x="548" y="780"/>
			<point x="348" y="780" type="curve" smooth="yes"/>
			<point x="136" y="780"/>
			<point x="48" y="668"/>
			<point x="48" y="540" type="curve" smooth="yes"/>
			<point x="48" y="496"/>
			<point x="64" y="460"/>
			<point x="84" y="428" type="curve"/>
			<point x="48" y="428" type="line"/>
			<point x="32" y="412" type="line"/>
			<point x="32" y="336" type="line"/>
			<point x="48" y="320" type="line"/>
			<point x="132" y="320" type="line"/>
			<point x="136" y="308"/>
			<point x="136" y="296"/>
			<point x="136" y="284" type="curve" smooth="yes"/>
			<point x="136" y="220"/>
			<point x="108" y="176"/>
		</contour>
	</outline>
</glyph>
<glyph name="yen" format="2">
	<unicode hex="00A5"/>
	<advance width="656"/>
	<outline>
		<contour>
			<point x="252" y="0" type="line"/>
			<point x="404" y="0" type="line"/>
			<point x="420" y="16" type="line"/>
			<point x="420" y="144" type="line"/>
			<point x="592" y="144" type="line"/>
			<point x="608" y="160" type="line"/>
			<point x="608" y="200" type="line"/>
			<point x="592" y="216" type="line"/>
			<point x="420" y="216" type="line"/>
			<point x="420" y="280" type="line"/>
			<point x="592" y="280" type="line"/>
			<point x="608" y="296" type="line"/>
			<point x="608" y="336" type="line"/>
			<point x="592" y="352" type="line"/>
			<point x="448" y="352" type="line"/>
			<point x="640" y="688" type="line"/>
			<point x="640" y="752" type="line"/>
			<point x="624" y="768" type="line"/>
			<point x="500" y="768" type="line"/>
			<point x="476" y="752" type="line"/>
			<point x="336" y="476" type="line"/>
			<point x="324" y="476" type="line"/>
			<point x="188" y="752" type="line"/>
			<point x="172" y="768" type="line"/>
			<point x="32" y="768" type="line"/>
			<point x="16" y="752" type="line"/>
			<point x="16" y="688" type="line"/>
			<point x="208" y="352" type="line"/>
			<point x="64" y="352" type="line"/>
			<point x="48" y="336" type="line"/>
			<point x="48" y="296" type="line"/>
			<point x="64" y="280" type="line"/>
			<point x="236" y="280" type="line"/>
			<point x="236" y="216" type="line"/>
			<point x="64" y="216" type="line"/>
			<point x="48" y="200" type="line"/>
			<point x="48" y="160" type="line"/>
			<point x="64" y="144" type="line"/>
			<point x="236" y="144" type="line"/>
			<point x="236" y="16" type="line"/>
		</contour>
	</outline>
</glyph>
<glyph name="section" format="2">
	<unicode hex="00A7"/>
	<advance width="704"/>
	<outline>
		<contour>
			<point x="364" y="-204" type="curve" smooth="yes"/>
			<point x="532" y="-204"/>
			<point x="620" y="-124"/>
			<point x="620" y="0" type="curve" smooth="yes"/>
			<point x="620" y="60"/>
			<point x="592" y="108"/>
			<point x="552" y="144" type="curve"/>
			<point x="628" y="164"/>
			<point x="672" y="216"/>
			<point x="672" y="292" type="curve" smooth="yes"/>
			<point x="672" y="384"/>
			<point x="600" y="448"/>
			<point x="484" y="496" type="curve" smooth="yes"/>
			<point x="328" y="560"/>
			<point x="288" y="576"/>
			<point x="288" y="612" type="curve" smooth="yes"/>
			<point x="288" y="652"/>
			<point x="324" y="668"/>
			<point x="360" y="668" type="curve" smooth="yes"/>
			<point x="412" y="668"/>
			<point x="440" y="640"/>
			<point x="448" y="608" type="curve"/>
			<point x="464" y="592" type="line"/>
			<point x="592" y="592" type="line"/>
			<point x="608" y="608" type="line"/>
			<point x="608" y="624" type="line"/>
			<point x="588" y="724"/>
			<point x="512" y="800"/>
			<point x="352" y="800" type="curve" smooth="yes"/>
			<point x="196" y="800"/>
			<point x="108" y="712"/>
			<point x="108" y="608" type="curve" smooth="yes"/>
			<point x="108" y="564"/>
			<point x="132" y="520"/>
			<point x="164" y="484" type="curve"/>
			<point x="84" y="464"/>
			<point x="32" y="416"/>
			<point x="32" y="336" type="curve" smooth="yes"/>
			<point x="32" y="204"/>
			<point x="108" y="168"/>
			<point x="272" y="108" type="curve" smooth="yes"/>
			<point x="420" y="52"/>
			<point x="444" y="36"/>
			<point x="444" y="0" type="curve" smooth="yes"/>
			<point x="444" y="-40"/>
			<point x="400" y="-64"/>
			<point x="360" y="-64" type="curve" smooth="yes"/>
			<point x="296" y="-64"/>
			<point x="264" y="-40"/>
			<point x="256" y="16" type="curve"/>
			<point x="240" y="32" type="line"/>
			<point x="108" y="32" type="line"/>
			<point x="92" y="16" type="line"/>
			<point x="92" y="-108"/>
			<point x="200" y="-204"/>
		</contour>
		<contour>
			<point x="200" y="356" type="curve" smooth="yes"/>
			<point x="200" y="380"/>
			<point x="224" y="400"/>
			<point x="252" y="412" type="curve"/>
			<point x="280" y="400"/>
			<point x="308" y="384"/>
			<point x="332" y="376" type="curve" smooth="yes"/>
			<point x="436" y="336"/>
			<point x="500" y="312"/>
			<point x="500" y="264" type="curve" smooth="yes"/>
			<point x="500" y="244"/>
			<point x="476" y="224"/>
			<point x="444" y="212" type="curve"/>
			<point x="384" y="240" type="line" smooth="yes"/>
			<point x="244" y="304"/>
			<point x="200" y="316"/>
		</contour>
	</outline>
</glyph>
<glyph name="dieresis" format="2">
	<unicode hex="00A8"/>
	<advance width="464"/>
	<outline>
		<contour>
			<point x="64" y="648" type="line"/>
			<point x="184" y="648" type="line"/>
			<point x="200" y="664" type="line"/>
			<point x="200" y="768" type="line"/>
			<point x="184" y="784" type="line"/>
			<point x="64" y="784" type="line"/>
			<point x="48" y="768" type="line"/>
			<point x="48" y="664" type="line"/>
		</contour>
		<contour>
			<point x="280" y="648" type="line"/>
			<point x="400" y="648" type="line"/>
			<point x="416" y="664" type="line"/>
			<point x="416" y="768" type="line"/>
			<point x="400" y="784" type="line"/>
			<point x="280" y="784" type="line"/>
			<point x="264" y="768" type="line"/>
			<point x="264" y="664" type="line"/>
		</contour>
	</outline>
</glyph>
<glyph name="copyright" format="2">
	<unicode hex="00A9"/>
	<advance width="888"/>
	<outline>
		<contour>
			<point x="444" y="-16" type="curve" smooth="yes"/>
			<point x="692" y="-16"/>
			<point x="856" y="156"/>
			<point x="856" y="400" type="curve" smooth="yes"/>
			<point x="856" y="636"/>
			<point x="692" y="816"/>
			<point x="444" y="816" type="curve" smooth="yes"/>
			<point x="212" y="816"/>
			<point x="32" y="636"/>
			<point x="32" y="400" type="curve" smooth="yes"/>
			<point x="32" y="156"/>
			<point x="212" y="-16"/>
		</contour>
		<contour>
			<point x="444" y="48" type="curve" smooth="yes"/>
			<point x="228" y="48"/>
			<point x="100" y="212"/>
			<point x="100" y="400" type="curve" smooth="yes"/>
			<point x="100" y="592"/>
			<point x="236" y="752"/>
			<point x="444" y="752" type="curve" smooth="yes"/>
			<point x="584" y="752"/>
			<point x="788" y="644"/>
			<point x="788" y="400" type="curve" smooth="yes"/>
			<point x="788" y="212"/>
			<point x="660" y="48"/>
		</contour>
		<contour>
			<point x="448" y="148" type="curve" smooth="yes"/>
			<point x="568" y="148"/>
			<point x="648" y="220"/>
			<point x="664" y="308" type="curve"/>
			<point x="664" y="324" type="line"/>
			<point x="648" y="340" type="line"/>
			<point x="544" y="340" type="line"/>
			<point x="528" y="324" type="line"/>
			<point x="520" y="284"/>
			<point x="492" y="268"/>
			<point x="448" y="268" type="curve" smooth="yes"/>
			<point x="384" y="268"/>
			<point x="348" y="320"/>
			<point x="348" y="404" type="curve" smooth="yes"/>
			<point x="348" y="488"/>
			<point x="384" y="536"/>
			<point x="448" y="536" type="curve" smooth="yes"/>
			<point x="492" y="536"/>
			<point x="520" y="512"/>
			<point x="524" y="488" type="curve"/>
			<point x="540" y="472" type="line"/>
			<point x="640" y="472" type="line"/>
			<point x="656" y="488" type="line"/>
			<point x="656" y="504" type="line"/>
			<point x="644" y="592"/>
			<point x="556" y="652"/>
			<point x="448" y="652" type="curve" smooth="yes"/>
			<point x="324" y="652"/>
			<point x="208" y="576"/>
			<point x="208" y="404" type="curve" smooth="yes"/>
			<point x="208" y="236"/>
			<point x="324" y="148"/>
		</contour>
	</outline>
</glyph>
<glyph name="registered" format="2">
	<unicode hex="00AE"/>
	<advance width="600"/>
	<outline>
		<contour>
			<point x="300" y="272" type="curve" smooth="yes"/>
			<point x="468" y="272"/>
			<point x="568" y="372"/>
			<point x="568" y="536" type="curve" smooth="yes"/>
			<point x="568" y="700"/>
			<point x="468" y="816"/>
			<point x="300" y="816" type="curve" smooth="yes"/>
			<point x="140" y="816"/>
			<point x="32" y="700"/>
			<point x="32" y="536" type="curve" smooth="yes"/>
			<point x="32" y="372"/>
			<point x="140" y="272"/>
		</contour>
		<contour>
			<point x="300" y="320" type="curve" smooth="yes"/>
			<point x="160" y="320"/>
			<point x="84" y="408"/>
			<point x="84" y="536" type="curve" smooth="yes"/>
			<point x="84" y="676"/>
			<point x="160" y="768"/>
			<point x="300" y="768" type="curve" smooth="yes"/>
			<point x="412" y="768"/>
			<point x="516" y="676"/>
			<point x="516" y="536" type="curve" smooth="yes"/>
			<point x="516" y="408"/>
			<point x="412" y="320"/>
		</contour>
		<contour>
			<point x="260" y="564" type="line"/>
			<point x="252" y="572" type="line"/>
			<point x="252" y="624" type="line"/>
			<point x="260" y="632" type="line"/>
			<point x="312" y="632" type="line" smooth="yes"/>
			<point x="336" y="632"/>
			<point x="356" y="624"/>
			<point x="356" y="600" type="curve" smooth="yes"/>
			<point x="356" y="580"/>
			<point x="340" y="564"/>
			<point x="316" y="564" type="curve" smooth="yes"/>
		</contour>
		<contour>
			<point x="192" y="400" type="line"/>
			<point x="240" y="400" type="line"/>
			<point x="252" y="412" type="line"/>
			<point x="252" y="504" type="line"/>
			<point x="260" y="512" type="line"/>
			<point x="308" y="512" type="line"/>
			<point x="316" y="508" type="line"/>
			<point x="376" y="412" type="line"/>
			<point x="392" y="400" type="line"/>
			<point x="420" y="400" type="line"/>
			<point x="432" y="412" type="line"/>
			<point x="432" y="440" type="line"/>
			<point x="380" y="524" type="line"/>
			<point x="380" y="528" type="line"/>
			<point x="408" y="540"/>
			<point x="428" y="564"/>
			<point x="428" y="608" type="curve" smooth="yes"/>
			<point x="428" y="664"/>
			<point x="380" y="688"/>
			<point x="320" y="688" type="curve" smooth="yes"/>
			<point x="192" y="688" type="line"/>
			<point x="180" y="676" type="line"/>
			<point x="180" y="412" type="line"/>
		</contour>
	</outline>
</glyph>
<glyph name="macron" format="2">
	<unicode hex="00AF"/>
	<advance width="464"/>
	<outline>
		<contour>
			<point x="48" y="648" type="line"/>
			<point x="416" y="648" type="line"/>
			<point x="432" y="664" type="line"/>
			<point x="432" y="736" type="line"/>
			<point x="416" y="752" type="line"/>
			<point x="48" y="752" type="line"/>
			<point x="32" y="736" type="line"/>
			<point x="32" y="664" type="line"/>
		</contour>
	</outline>
</glyph>
<glyph name="degree" format="2">
	<unicode hex="00B0"/>
	<advance width="416"/>
	<outline>
		<contour>
			<point x="208" y="448" type="curve" smooth="yes"/>
			<point x="316" y="448"/>
			<point x="384" y="528"/>
			<point x="384" y="612" type="curve" smooth="yes"/>
			<point x="384" y="712"/>
			<point x="304" y="784"/>
			<point x="208" y="784" type="curve" smooth="yes"/>
			<point x="116" y="784"/>
			<point x="32" y="712"/>
			<point x="32" y="612" type="curve" smooth="yes"/>
			<point x="32" y="528"/>
			<point x="100" y="448"/>
		</contour>
		<contour>
			<point x="208" y="536" type="curve" smooth="yes"/>
			<point x="156" y="536"/>
			<point x="132" y="576"/>
			<point x="132" y="612" type="curve" smooth="yes"/>
			<point x="132" y="648"/>
			<point x="156" y="696"/>
			<point x="208" y="696" type="curve" smooth="yes"/>
			<point x="260" y="696"/>
			<point x="284" y="648"/>
			<point x="284" y="612" type="curve" smooth="yes"/>
			<point x="284" y="576"/>
			<point x="264" y="536"/>
		</contour>
	</outline>
</glyph>
<glyph name="acute" format="2">
	<unicode hex="00B4"/>
	<advance width="296"/>
	<outline>
		<contour>
			<point x="64" y="640" type="line"/>
			<point x="184" y="640" type="line"/>
			<point x="200" y="656" type="line"/>
			<point x="280" y="768" type="line"/>
			<point x="280" y="784" type="line"/>
			<point x="264" y="800" type="line"/>
			<point x="92" y="800" type="line"/>
			<point x="76" y="784" type="line"/>
			<point x="48" y="672" type="line"/>
			<point x="48" y="656" type="line"/>
		</contour>
	</outline>
</glyph>
<glyph name="paragraph" format="2">
	<unicode hex="00B6"/>
	<advance width="648"/>
	<outline>
		<contour>
			<point x="512" y="0" type="line"/>
			<point x="600" y="0" type="line"/>
			<point x="616" y="16" type="line"/>
			<point x="616" y="784" type="line"/>
			<point x="600" y="800" type="line"/>
			<point x="288" y="800" type="line" smooth="yes"/>
			<point x="116" y="800"/>
			<point x="32" y="724"/>
			<point x="32" y="592" type="curve" smooth="yes"/>
			<point x="32" y="472"/>
			<point x="124" y="376"/>
			<point x="236" y="376" type="curve" smooth="yes"/>
			<point x="296" y="376" type="line"/>
			<point x="308" y="364" type="line"/>
			<point x="308" y="16" type="line"/>
			<point x="324" y="0" type="line"/>
			<point x="412" y="0" type="line"/>
			<point x="428" y="16" type="line"/>
			<point x="428" y="680" type="line"/>
			<point x="440" y="692" type="line"/>
			<point x="484" y="692" type="line"/>
			<point x="496" y="680" type="line"/>
			<point x="496" y="16" type="line"/>
		</contour>
	</outline>
</glyph>
<glyph name="questiondown" format="2">
	<unicode hex="00BF"/>
	<advance width="640"/>
	<outline>
		<contour>
			<point x="244" y="316" type="line"/>
			<point x="228" y="300" type="line"/>
			<point x="228" y="268" type="line" smooth="yes"/>
			<point x="228" y="108"/>
			<point x="416" y="100"/>
			<point x="416" y="0" type="curve" smooth="yes"/>
			<point x="416" y="-64"/>
			<point x="384" y="-88"/>
			<point x="320" y="-88" type="curve" smooth="yes"/>
			<point x="264" y="-88"/>
			<point x="212" y="-56"/>
			<point x="212" y="0" type="curve"/>
			<point x="196" y="16" type="line"/>
			<point x="48" y="16" type="line"/>
			<point x="32" y="0" type="line"/>
			<point x="32" y="-148"/>
			<point x="168" y="-240"/>
			<point x="320" y="-240" type="curve" smooth="yes"/>
			<point x="484" y="-240"/>
			<point x="608" y="-164"/>
			<point x="608" y="0" type="curve" smooth="yes"/>
			<point x="608" y="176"/>
			<point x="388" y="188"/>
			<point x="388" y="284" type="curve" smooth="yes"/>
			<point x="388" y="300" type="line"/>
			<point x="372" y="316" type="line"/>
		</contour>
		<contour>
			<point x="228" y="576" type="line"/>
			<point x="212" y="560" type="line"/>
			<point x="212" y="408" type="line"/>
			<point x="228" y="392" type="line"/>
			<point x="380" y="392" type="line"/>
			<point x="396" y="408" type="line"/>
			<point x="396" y="560" type="line"/>
			<point x="380" y="576" type="line"/>
		</contour>
	</outline>
</glyph>
<glyph name="AE" format="2">
	<unicode hex="00C6"/>
	<advance width="1080"/>
	<outline>
		<contour>
			<point x="492" y="0" type="line"/>
			<point x="1048" y="0" type="line"/>
			<point x="1064" y="16" type="line"/>
			<point x="1064" y="152" type="line"/>
			<point x="1048" y="168" type="line"/>
			<point x="688" y="168" type="line"/>
			<point x="676" y="180" type="line"/>
			<point x="676" y="324" type="line"/>
			<point x="688" y="336" type="line"/>
			<point x="992" y="336" type="line"/>
			<point x="1008" y="352" type="line"/>
			<point x="1008" y="480" type="line"/>
			<point x="992" y="496" type="line"/>
			<point x="688" y="496" type="line"/>
			<point x="676" y="508" type="line"/>
			<point x="676" y="624" type="line"/>
			<point x="688" y="636" type="line"/>
			<point x="1048" y="636" type="line"/>
			<point x="1064" y="652" type="line"/>
			<point x="1064" y="784" type="line"/>
			<point x="1048" y="800" type="line"/>
			<point x="284" y="800" type="line"/>
			<point x="268" y="784" type="line"/>
			<point x="16" y="80" type="line"/>
			<point x="16" y="16" type="line"/>
			<point x="32" y="0" type="line"/>
			<point x="176" y="0" type="line"/>
			<point x="192" y="16" type="line"/>
			<point x="228" y="132" type="line"/>
			<point x="240" y="144" type="line"/>
			<point x="464" y="144" type="line"/>
			<point x="476" y="132" type="line"/>
			<point x="476" y="16" type="line"/>
		</contour>
		<contour>
			<point x="280" y="300" type="line"/>
			<point x="392" y="640" type="line"/>
			<point x="464" y="640" type="line"/>
			<point x="476" y="628" type="line"/>
			<point x="476" y="300" type="line"/>
			<point x="464" y="288" type="line"/>
			<point x="292" y="288" type="line"/>
		</contour>
	</outline>
</glyph>
<glyph name="Ccedilla" format="2">
	<unicode hex="00C7"/>
	<advance width="796"/>
	<outline>
		<contour>
			<point x="384" y="-212" type="curve" smooth="yes"/>
			<point x="472" y="-212"/>
			<point x="524" y="-180"/>
			<point x="524" y="-124" type="curve" smooth="yes"/>
			<point x="524" y="-72"/>
			<point x="488" y="-48"/>
			<point x="452" y="-48" type="curve" smooth="yes"/>
			<point x="440" y="-48"/>
			<point x="424" y="-48"/>
			<point x="412" y="-52" type="curve"/>
			<point x="408" y="-44" type="line"/>
			<point x="448" y="-16" type="line"/>
			<point x="652" y="-4"/>
			<point x="748" y="120"/>
			<point x="776" y="248" type="curve"/>
			<point x="776" y="264" type="line"/>
			<point x="760" y="280" type="line"/>
			<point x="588" y="280" type="line"/>
			<point x="572" y="264" type="line"/>
			<point x="556" y="192"/>
			<point x="480" y="152"/>
			<point x="416" y="152" type="curve" smooth="yes"/>
			<point x="288" y="152"/>
			<point x="232" y="272"/>
			<point x="232" y="400" type="curve" smooth="yes"/>
			<point x="232" y="528"/>
			<point x="288" y="648"/>
			<point x="416" y="648" type="curve" smooth="yes"/>
			<point x="480" y="648"/>
			<point x="548" y="612"/>
			<point x="572" y="544" type="curve"/>
			<point x="588" y="528" type="line"/>
			<point x="752" y="528" type="line"/>
			<point x="768" y="544" type="line"/>
			<point x="768" y="560" type="line"/>
			<point x="744" y="692"/>
			<point x="624" y="816"/>
			<point x="416" y="816" type="curve" smooth="yes"/>
			<point x="180" y="816"/>
			<point x="24" y="636"/>
			<point x="24" y="400" type="curve" smooth="yes"/>
			<point x="24" y="180"/>
			<point x="160" y="8"/>
			<point x="372" y="-12" type="curve"/>
			<point x="372" y="-20" type="line"/>
			<point x="320" y="-76" type="line"/>
			<point x="336" y="-104" type="line"/>
			<point x="348" y="-104" type="line"/>
			<point x="356" y="-100"/>
			<point x="368" y="-96"/>
			<point x="380" y="-96" type="curve" smooth="yes"/>
			<point x="400" y="-96"/>
			<point x="416" y="-108"/>
			<point x="416" y="-124" type="curve" smooth="yes"/>
			<point x="416" y="-148"/>
			<point x="400" y="-160"/>
			<point x="360" y="-160" type="curve" smooth="yes"/>
			<point x="332" y="-160"/>
			<point x="320" y="-156"/>
			<point x="292" y="-144" type="curve"/>
			<point x="280" y="-144" type="line"/>
			<point x="264" y="-172" type="line"/>
			<point x="264" y="-184" type="line"/>
			<point x="296" y="-200"/>
			<point x="332" y="-212"/>
		</contour>
	</outline>
</glyph>
<glyph name="multiply" format="2">
	<unicode hex="00D7"/>
	<advance width="600"/>
	<outline>
		<contour>
			<point x="132" y="100" type="line"/>
			<point x="148" y="100" type="line"/>
			<point x="300" y="256" type="line"/>
			<point x="316" y="256" type="line"/>
			<point x="468" y="100" type="line"/>
			<point x="484" y="100" type="line"/>
			<point x="568" y="184" type="line"/>
			<point x="568" y="200" type="line"/>
			<point x="412" y="356" type="line"/>
			<point x="412" y="372" type="line"/>
			<point x="568" y="532" type="line"/>
			<point x="568" y="548" type="line"/>
			<point x="484" y="628" type="line"/>
			<point x="468" y="628" type="line"/>
			<point x="316" y="472" type="line"/>
			<point x="300" y="472" type="line"/>
			<point x="152" y="628" type="line"/>
			<point x="136" y="628" type="line"/>
			<point x="48" y="548" type="line"/>
			<point x="48" y="532" type="line"/>
			<point x="204" y="372" type="line"/>
			<point x="204" y="356" type="line"/>
			<point x="44" y="200" type="line"/>
			<point x="44" y="184" type="line"/>
		</contour>
	</outline>
</glyph>
<glyph name="Oslash" format="2">
	<unicode hex="00D8"/>
	<advance width="840"/>
	<outline>
		<contour>
			<point x="420" y="-16" type="curve" smooth="yes"/>
			<point x="668" y="-16"/>
			<point x="816" y="152"/>
			<point x="816" y="400" type="curve" smooth="yes"/>
			<point x="816" y="512"/>
			<point x="784" y="608"/>
			<point x="728" y="680" type="curve"/>
			<point x="808" y="768" type="line"/>
			<point x="808" y="784" type="line"/>
			<point x="792" y="800" type="line"/>
			<point x="724" y="800" type="line"/>
			<point x="708" y="784" type="line"/>
			<point x="668" y="740" type="line"/>
			<point x="604" y="788"/>
			<point x="520" y="816"/>
			<point x="420" y="816" type="curve" smooth="yes"/>
			<point x="172" y="816"/>
			<point x="24" y="648"/>
			<point x="24" y="400" type="curve" smooth="yes"/>
			<point x="24" y="288"/>
			<point x="56" y="188"/>
			<point x="112" y="116" type="curve"/>
			<point x="36" y="32" type="line"/>
			<point x="36" y="16" type="line"/>
			<point x="52" y="0" type="line"/>
			<point x="124" y="0" type="line"/>
			<point x="140" y="16" type="line"/>
			<point x="176" y="56" type="line"/>
			<point x="240" y="12"/>
			<point x="324" y="-16"/>
		</contour>
		<contour>
			<point x="420" y="152" type="curve" smooth="yes"/>
			<point x="372" y="152"/>
			<point x="336" y="160"/>
			<point x="304" y="188" type="curve"/>
			<point x="304" y="200" type="line"/>
			<point x="584" y="520" type="line"/>
			<point x="596" y="520" type="line"/>
			<point x="608" y="488"/>
			<point x="608" y="452"/>
			<point x="608" y="400" type="curve" smooth="yes"/>
			<point x="608" y="216"/>
			<point x="532" y="152"/>
		</contour>
		<contour>
			<point x="232" y="400" type="curve" smooth="yes"/>
			<point x="232" y="584"/>
			<point x="312" y="648"/>
			<point x="420" y="648" type="curve" smooth="yes"/>
			<point x="472" y="648"/>
			<point x="512" y="636"/>
			<point x="544" y="604" type="curve"/>
			<point x="544" y="592" type="line"/>
			<point x="260" y="276" type="line"/>
			<point x="248" y="276" type="line"/>
			<point x="240" y="308"/>
			<point x="232" y="348"/>
		</contour>
	</outline>
</glyph>
<glyph name="Thorn" format="2">
	<unicode hex="00DE"/>
	<advance width="708"/>
	<outline>
		<contour>
			<point x="48" y="0" type="line"/>
			<point x="216" y="0" type="line"/>
			<point x="232" y="16" type="line"/>
			<point x="232" y="144" type="line"/>
			<point x="244" y="156" type="line"/>
			<point x="376" y="156" type="line" smooth="yes"/>
			<point x="564" y="156"/>
			<point x="684" y="228"/>
			<point x="684" y="416" type="curve" smooth="yes"/>
			<point x="684" y="604"/>
			<point x="564" y="688"/>
			<point x="376" y="688" type="curve" smooth="yes"/>
			<point x="232" y="688" type="line"/>
			<point x="232" y="784" type="line"/>
			<point x="216" y="800" type="line"/>
			<point x="48" y="800" type="line"/>
			<point x="32" y="784" type="line"/>
			<point x="32" y="16" type="line"/>
		</contour>
		<contour>
			<point x="244" y="312" type="line"/>
			<point x="232" y="324" type="line"/>
			<point x="232" y="508" type="line"/>
			<point x="244" y="520" type="line"/>
			<point x="360" y="520" type="line" smooth="yes"/>
			<point x="440" y="520"/>
			<point x="484" y="496"/>
			<point x="484" y="416" type="curve" smooth="yes"/>
			<point x="484" y="336"/>
			<point x="440" y="312"/>
			<point x="360" y="312" type="curve" smooth="yes"/>
		</contour>
	</outline>
</glyph>
<glyph name="germandbls" format="2">
	<unicode hex="00DF"/>
	<advance width="636"/>
	<outline>
		<contour>
			<point x="48" y="0" type="line"/>
			<point x="200" y="0" type="line"/>
			<point x="216" y="16" type="line"/>
			<point x="216" y="576" type="line" smooth="yes"/>
			<point x="216" y="640"/>
			<point x="256" y="680"/>
			<point x="316" y="680" type="curve" smooth="yes"/>
			<point x="368" y="680"/>
			<point x="404" y="648"/>
			<point x="404" y="592" type="curve" smooth="yes"/>
			<point x="404" y="536"/>
			<point x="364" y="504"/>
			<point x="320" y="504" type="curve" smooth="yes"/>
			<point x="292" y="504" type="line"/>
			<point x="276" y="488" type="line"/>
			<point x="276" y="416" type="line"/>
			<point x="292" y="400" type="line"/>
			<point x="332" y="400" type="line" smooth="yes"/>
			<point x="408" y="400"/>
			<point x="440" y="332"/>
			<point x="440" y="260" type="curve" smooth="yes"/>
			<point x="440" y="180"/>
			<point x="396" y="136"/>
			<point x="316" y="136" type="curve" smooth="yes"/>
			<point x="292" y="136" type="line"/>
			<point x="276" y="120" type="line"/>
			<point x="276" y="16" type="line"/>
			<point x="292" y="0" type="line"/>
			<point x="368" y="0" type="line" smooth="yes"/>
			<point x="524" y="0"/>
			<point x="620" y="80"/>
			<point x="620" y="260" type="curve" smooth="yes"/>
			<point x="620" y="368"/>
			<point x="548" y="432"/>
			<point x="480" y="456" type="curve"/>
			<point x="480" y="468" type="line"/>
			<point x="532" y="488"/>
			<point x="576" y="528"/>
			<point x="576" y="592" type="curve" smooth="yes"/>
			<point x="576" y="732"/>
			<point x="480" y="816"/>
			<point x="316" y="816" type="curve" smooth="yes"/>
			<point x="148" y="816"/>
			<point x="32" y="740"/>
			<point x="32" y="576" type="curve" smooth="yes"/>
			<point x="32" y="16" type="line"/>
		</contour>
	</outline>
</glyph>
<glyph name="ae" format="2">
	<unicode hex="00E6"/>
	<advance width="976"/>
	<outline>
		<contour>
			<point x="568" y="348" type="line"/>
			<point x="556" y="360" type="line"/>
			<point x="564" y="416"/>
			<point x="608" y="460"/>
			<point x="668" y="460" type="curve" smooth="yes"/>
			<point x="736" y="460"/>
			<point x="768" y="416"/>
			<point x="776" y="360" type="curve"/>
			<point x="764" y="348" type="line"/>
		</contour>
		<contour>
			<point x="676" y="-16" type="curve" smooth="yes"/>
			<point x="828" y="-16"/>
			<point x="920" y="72"/>
			<point x="944" y="144" type="curve"/>
			<point x="944" y="160" type="line"/>
			<point x="928" y="176" type="line"/>
			<point x="792" y="176" type="line"/>
			<point x="776" y="160" type="line"/>
			<point x="752" y="128"/>
			<point x="724" y="120"/>
			<point x="680" y="120" type="curve" smooth="yes"/>
			<point x="604" y="120"/>
			<point x="564" y="156"/>
			<point x="556" y="228" type="curve"/>
			<point x="568" y="240" type="line"/>
			<point x="944" y="240" type="line"/>
			<point x="960" y="256" type="line"/>
			<point x="960" y="276" type="line" smooth="yes"/>
			<point x="960" y="448"/>
			<point x="840" y="592"/>
			<point x="668" y="592" type="curve" smooth="yes"/>
			<point x="596" y="592"/>
			<point x="536" y="568"/>
			<point x="496" y="524" type="curve"/>
			<point x="484" y="524" type="line"/>
			<point x="448" y="568"/>
			<point x="392" y="592"/>
			<point x="304" y="592" type="curve" smooth="yes"/>
			<point x="180" y="592"/>
			<point x="84" y="540"/>
			<point x="52" y="424" type="curve"/>
			<point x="52" y="408" type="line"/>
			<point x="68" y="392" type="line"/>
			<point x="192" y="392" type="line"/>
			<point x="208" y="408" type="line"/>
			<point x="220" y="440"/>
			<point x="248" y="468"/>
			<point x="296" y="468" type="curve" smooth="yes"/>
			<point x="352" y="468"/>
			<point x="384" y="440"/>
			<point x="384" y="392" type="curve" smooth="yes"/>
			<point x="384" y="360" type="line"/>
			<point x="372" y="348" type="line"/>
			<point x="344" y="348" type="line" smooth="yes"/>
			<point x="168" y="348"/>
			<point x="16" y="320"/>
			<point x="16" y="160" type="curve" smooth="yes"/>
			<point x="16" y="56"/>
			<point x="84" y="-16"/>
			<point x="240" y="-16" type="curve" smooth="yes"/>
			<point x="320" y="-16"/>
			<point x="392" y="16"/>
			<point x="456" y="72" type="curve"/>
			<point x="468" y="72" type="line"/>
			<point x="512" y="16"/>
			<point x="584" y="-16"/>
		</contour>
		<contour>
			<point x="280" y="104" type="curve" smooth="yes"/>
			<point x="232" y="104"/>
			<point x="192" y="128"/>
			<point x="192" y="176" type="curve" smooth="yes"/>
			<point x="192" y="224"/>
			<point x="224" y="252"/>
			<point x="288" y="252" type="curve" smooth="yes"/>
			<point x="372" y="252" type="line"/>
			<point x="384" y="240" type="line"/>
			<point x="384" y="208" type="line" smooth="yes"/>
			<point x="384" y="144"/>
			<point x="344" y="104"/>
		</contour>
	</outline>
</glyph>
<glyph name="ccedilla" format="2">
	<unicode hex="00E7"/>
	<advance width="600"/>
	<outline>
		<contour>
			<point x="8" y="288" type="curve" smooth="yes"/>
			<point x="8" y="112"/>
			<point x="112" y="4"/>
			<point x="264" y="-12" type="curve"/>
			<point x="264" y="-20" type="line"/>
			<point x="212" y="-76" type="line"/>
			<point x="228" y="-104" type="line"/>
			<point x="240" y="-104" type="line"/>
			<point x="248" y="-100"/>
			<point x="260" y="-96"/>
			<point x="272" y="-96" type="curve" smooth="yes"/>
			<point x="292" y="-96"/>
			<point x="308" y="-108"/>
			<point x="308" y="-124" type="curve" smooth="yes"/>
			<point x="308" y="-148"/>
			<point x="292" y="-160"/>
			<point x="252" y="-160" type="curve" smooth="yes"/>
			<point x="224" y="-160"/>
			<point x="212" y="-156"/>
			<point x="184" y="-144" type="curve"/>
			<point x="172" y="-144" type="line"/>
			<point x="156" y="-172" type="line"/>
			<point x="156" y="-184" type="line"/>
			<point x="188" y="-200"/>
			<point x="224" y="-212"/>
			<point x="276" y="-212" type="curve" smooth="yes"/>
			<point x="364" y="-212"/>
			<point x="416" y="-180"/>
			<point x="416" y="-124" type="curve" smooth="yes"/>
			<point x="416" y="-72"/>
			<point x="380" y="-48"/>
			<point x="344" y="-48" type="curve" smooth="yes"/>
			<point x="332" y="-48"/>
			<point x="316" y="-48"/>
			<point x="304" y="-52" type="curve"/>
			<point x="300" y="-44" type="line"/>
			<point x="340" y="-16" type="line"/>
			<point x="492" y="-4"/>
			<point x="572" y="88"/>
			<point x="588" y="188" type="curve"/>
			<point x="588" y="204" type="line"/>
			<point x="572" y="220" type="line"/>
			<point x="428" y="220" type="line"/>
			<point x="412" y="204" type="line"/>
			<point x="404" y="164"/>
			<point x="368" y="120"/>
			<point x="312" y="120" type="curve" smooth="yes"/>
			<point x="232" y="120"/>
			<point x="196" y="204"/>
			<point x="196" y="288" type="curve" smooth="yes"/>
			<point x="196" y="372"/>
			<point x="232" y="456"/>
			<point x="312" y="456" type="curve" smooth="yes"/>
			<point x="364" y="456"/>
			<point x="392" y="424"/>
			<point x="404" y="388" type="curve"/>
			<point x="420" y="372" type="line"/>
			<point x="556" y="372" type="line"/>
			<point x="572" y="388" type="line"/>
			<point x="572" y="404" type="line"/>
			<point x="560" y="504"/>
			<point x="464" y="592"/>
			<point x="312" y="592" type="curve" smooth="yes"/>
			<point x="132" y="592"/>
			<point x="8" y="472"/>
		</contour>
	</outline>
</glyph>
<glyph name="eth" format="2">
	<unicode hex="00F0"/>
	<advance width="692"/>
	<outline>
		<contour>
			<point x="312" y="-16" type="curve" smooth="yes"/>
			<point x="500" y="-16"/>
			<point x="612" y="112"/>
			<point x="612" y="292" type="curve" smooth="yes"/>
			<point x="612" y="440"/>
			<point x="560" y="588"/>
			<point x="456" y="692" type="curve"/>
			<point x="468" y="704" type="line"/>
			<point x="520" y="720" type="line"/>
			<point x="516" y="740" type="line"/>
			<point x="516" y="772" type="line"/>
			<point x="500" y="788" type="line"/>
			<point x="408" y="744" type="line"/>
			<point x="396" y="756" type="line"/>
			<point x="348" y="784" type="line"/>
			<point x="332" y="800" type="line"/>
			<point x="168" y="800" type="line"/>
			<point x="152" y="784" type="line"/>
			<point x="248" y="708" type="line"/>
			<point x="236" y="696" type="line"/>
			<point x="144" y="660" type="line"/>
			<point x="128" y="644" type="line"/>
			<point x="128" y="612" type="line"/>
			<point x="144" y="596" type="line"/>
			<point x="312" y="652" type="line"/>
			<point x="324" y="640" type="line"/>
			<point x="360" y="604"/>
			<point x="392" y="568"/>
			<point x="400" y="524" type="curve"/>
			<point x="384" y="524" type="line"/>
			<point x="340" y="564"/>
			<point x="320" y="576"/>
			<point x="264" y="576" type="curve" smooth="yes"/>
			<point x="112" y="576"/>
			<point x="12" y="456"/>
			<point x="12" y="288" type="curve" smooth="yes"/>
			<point x="12" y="120"/>
			<point x="116" y="-16"/>
		</contour>
		<contour>
			<point x="312" y="128" type="curve" smooth="yes"/>
			<point x="224" y="128"/>
			<point x="196" y="200"/>
			<point x="196" y="288" type="curve" smooth="yes"/>
			<point x="196" y="376"/>
			<point x="224" y="452"/>
			<point x="312" y="452" type="curve" smooth="yes"/>
			<point x="400" y="452"/>
			<point x="428" y="376"/>
			<point x="428" y="288" type="curve" smooth="yes"/>
			<point x="428" y="200"/>
			<point x="400" y="128"/>
		</contour>
	</outline>
</glyph>
<glyph name="divide" format="2">
	<unicode hex="00F7"/>
	<advance width="612"/>
	<outline>
		<contour>
			<point x="48" y="296" type="line"/>
			<point x="564" y="296" type="line"/>
			<point x="580" y="312" type="line"/>
			<point x="580" y="428" type="line"/>
			<point x="564" y="444" type="line"/>
			<point x="48" y="444" type="line"/>
			<point x="32" y="428" type="line"/>
			<point x="32" y="312" type="line"/>
		</contour>
		<contour>
			<point x="224" y="64" type="line"/>
			<point x="384" y="64" type="line"/>
			<point x="400" y="80" type="line"/>
			<point x="400" y="220" type="line"/>
			<point x="384" y="236" type="line"/>
			<point x="224" y="236" type="line"/>
			<point x="208" y="220" type="line"/>
			<point x="208" y="80" type="line"/>
		</contour>
		<contour>
			<point x="224" y="504" type="line"/>
			<point x="384" y="504" type="line"/>
			<point x="400" y="520" type="line"/>
			<point x="400" y="660" type="line"/>
			<point x="384" y="676" type="line"/>
			<point x="224" y="676" type="line"/>
			<point x="208" y="660" type="line"/>
			<point x="208" y="520" type="line"/>
		</contour>
	</outline>
</glyph>
<glyph name="oslash" format="2">
	<unicode hex="00F8"/>
	<advance width="600"/>
	<outline>
		<contour>
			<point x="300" y="-16" type="curve" smooth="yes"/>
			<point x="480" y="-16"/>
			<point x="608" y="108"/>
			<point x="608" y="288" type="curve" smooth="yes"/>
			<point x="608" y="368"/>
			<point x="580" y="440"/>
			<point x="536" y="492" type="curve"/>
			<point x="600" y="560" type="line"/>
			<point x="600" y="576" type="line"/>
			<point x="584" y="592" type="line"/>
			<point x="540" y="592" type="line"/>
			<point x="524" y="584" type="line"/>
			<point x="484" y="540" type="line"/>
			<point x="432" y="572"/>
			<point x="372" y="592"/>
			<point x="300" y="592" type="curve" smooth="yes"/>
			<point x="120" y="592"/>
			<point x="-8" y="468"/>
			<point x="-8" y="288" type="curve" smooth="yes"/>
			<point x="-8" y="208"/>
			<point x="20" y="136"/>
			<point x="64" y="84" type="curve"/>
			<point x="0" y="16" type="line"/>
			<point x="0" y="0" type="line"/>
			<point x="16" y="-16" type="line"/>
			<point x="60" y="-16" type="line"/>
			<point x="76" y="-8" type="line"/>
			<point x="116" y="36" type="line"/>
			<point x="168" y="4"/>
			<point x="228" y="-16"/>
		</contour>
		<contour>
			<point x="300" y="116" type="curve" smooth="yes"/>
			<point x="264" y="116"/>
			<point x="236" y="128"/>
			<point x="220" y="148" type="curve"/>
			<point x="416" y="360" type="line"/>
			<point x="420" y="336"/>
			<point x="420" y="312"/>
			<point x="420" y="288" type="curve" smooth="yes"/>
			<point x="420" y="192"/>
			<point x="396" y="116"/>
		</contour>
		<contour>
			<point x="180" y="288" type="curve" smooth="yes"/>
			<point x="180" y="384"/>
			<point x="204" y="460"/>
			<point x="300" y="460" type="curve" smooth="yes"/>
			<point x="336" y="460"/>
			<point x="364" y="448"/>
			<point x="380" y="428" type="curve"/>
			<point x="184" y="216" type="line"/>
			<point x="180" y="240"/>
			<point x="180" y="264"/>
		</contour>
	</outline>
</glyph>
<glyph name="thorn" format="2">
	<unicode hex="00FE"/>
	<advance width="648"/>
	<outline>
		<contour>
			<point x="48" y="-188" type="line"/>
			<point x="196" y="-188" type="line"/>
			<point x="212" y="-172" type="line"/>
			<point x="212" y="48" type="line"/>
			<point x="228" y="48" type="line"/>
			<point x="256" y="12"/>
			<point x="300" y="-16"/>
			<point x="388" y="-16" type="curve" smooth="yes"/>
			<point x="548" y="-16"/>
			<point x="632" y="124"/>
			<point x="632" y="288" type="curve" smooth="yes"/>
			<point x="632" y="452"/>
			<point x="548" y="592"/>
			<point x="388" y="592" type="curve" smooth="yes"/>
			<point x="312" y="592"/>
			<point x="260" y="556"/>
			<point x="228" y="512" type="curve"/>
			<point x="212" y="512" type="line"/>
			<point x="212" y="784" type="line"/>
			<point x="196" y="800" type="line"/>
			<point x="48" y="800" type="line"/>
			<point x="32" y="784" type="line"/>
			<point x="32" y="-172" type="line"/>
		</contour>
		<contour>
			<point x="332" y="120" type="curve" smooth="yes"/>
			<point x="272" y="120"/>
			<point x="216" y="164"/>
			<point x="216" y="288" type="curve" smooth="yes"/>
			<point x="216" y="404"/>
			<point x="276" y="440"/>
			<point x="332" y="440" type="curve" smooth="yes"/>
			<point x="392" y="440"/>
			<point x="444" y="404"/>
			<point x="444" y="288" type="curve" smooth="yes"/>
			<point x="444" y="164"/>
			<point x="392" y="120"/>
		</contour>
	</outline>
</glyph>
<glyph name="Aogonek" format="2">
	<unicode hex="0104"/>
	<advance width="756"/>
	<outline>
		<contour>
			<point x="32" y="0" type="line"/>
			<point x="176" y="0" type="line"/>
			<point x="192" y="16" type="line"/>
			<point x="228" y="132" type="line"/>
			<point x="240" y="144" type="line"/>
			<point x="504" y="144" type="line"/>
			<point x="516" y="132" type="line"/>
			<point x="552" y="16" type="line"/>
			<point x="568" y="0" type="line"/>
			<point x="616" y="0" type="line"/>
			<point x="616" y="-12" type="line"/>
			<point x="572" y="-28"/>
			<point x="544" y="-60"/>
			<point x="544" y="-100" type="curve" smooth="yes"/>
			<point x="544" y="-156"/>
			<point x="580" y="-196"/>
			<point x="656" y="-196" type="curve" smooth="yes"/>
			<point x="692" y="-196"/>
			<point x="720" y="-188"/>
			<point x="736" y="-180" type="curve"/>
			<point x="752" y="-164" type="line"/>
			<point x="752" y="-112" type="line"/>
			<point x="736" y="-96" type="line"/>
			<point x="720" y="-96" type="line" smooth="yes"/>
			<point x="692" y="-96"/>
			<point x="668" y="-84"/>
			<point x="668" y="-60" type="curve" smooth="yes"/>
			<point x="668" y="-44"/>
			<point x="688" y="-28"/>
			<point x="724" y="0" type="curve"/>
			<point x="740" y="16" type="line"/>
			<point x="740" y="80" type="line"/>
			<point x="484" y="784" type="line"/>
			<point x="468" y="800" type="line"/>
			<point x="284" y="800" type="line"/>
			<point x="268" y="784" type="line"/>
			<point x="16" y="80" type="line"/>
			<point x="16" y="16" type="line"/>
		</contour>
		<contour>
			<point x="292" y="288" type="line"/>
			<point x="280" y="300" type="line"/>
			<point x="368" y="576" type="line"/>
			<point x="380" y="576" type="line"/>
			<point x="464" y="300" type="line"/>
			<point x="452" y="288" type="line"/>
		</contour>
	</outline>
</glyph>
<glyph name="aogonek" format="2">
	<unicode hex="0105"/>
	<advance width="600"/>
	<outline>
		<contour>
			<point x="200" y="-16" type="curve" smooth="yes"/>
			<point x="280" y="-16"/>
			<point x="332" y="4"/>
			<point x="380" y="56" type="curve"/>
			<point x="396" y="56" type="line"/>
			<point x="404" y="24"/>
			<point x="432" y="0"/>
			<point x="476" y="0" type="curve"/>
			<point x="476" y="-12" type="line"/>
			<point x="432" y="-24"/>
			<point x="392" y="-60"/>
			<point x="392" y="-100" type="curve" smooth="yes"/>
			<point x="392" y="-156"/>
			<point x="440" y="-196"/>
			<point x="516" y="-196" type="curve" smooth="yes"/>
			<point x="552" y="-196"/>
			<point x="580" y="-188"/>
			<point x="596" y="-180" type="curve"/>
			<point x="612" y="-164" type="line"/>
			<point x="612" y="-112" type="line"/>
			<point x="596" y="-96" type="line"/>
			<point x="580" y="-96" type="line" smooth="yes"/>
			<point x="552" y="-96"/>
			<point x="540" y="-88"/>
			<point x="540" y="-64" type="curve" smooth="yes"/>
			<point x="540" y="-48"/>
			<point x="552" y="-32"/>
			<point x="584" y="0" type="curve" smooth="yes"/>
			<point x="600" y="16" type="line"/>
			<point x="600" y="48" type="line"/>
			<point x="584" y="64" type="line"/>
			<point x="580" y="64" type="line" smooth="yes"/>
			<point x="568" y="64"/>
			<point x="560" y="72"/>
			<point x="560" y="84" type="curve" smooth="yes"/>
			<point x="560" y="376" type="line" smooth="yes"/>
			<point x="560" y="528"/>
			<point x="456" y="592"/>
			<point x="304" y="592" type="curve" smooth="yes"/>
			<point x="180" y="592"/>
			<point x="84" y="540"/>
			<point x="52" y="424" type="curve"/>
			<point x="52" y="408" type="line"/>
			<point x="68" y="392" type="line"/>
			<point x="192" y="392" type="line"/>
			<point x="208" y="408" type="line"/>
			<point x="220" y="440"/>
			<point x="248" y="468"/>
			<point x="296" y="468" type="curve" smooth="yes"/>
			<point x="352" y="468"/>
			<point x="384" y="440"/>
			<point x="384" y="392" type="curve" smooth="yes"/>
			<point x="384" y="360" type="line"/>
			<point x="372" y="348" type="line"/>
			<point x="344" y="348" type="line" smooth="yes"/>
			<point x="168" y="348"/>
			<point x="16" y="320"/>
			<point x="16" y="160" type="curve" smooth="yes"/>
			<point x="16" y="56"/>
			<point x="96" y="-16"/>
		</contour>
		<contour>
			<point x="280" y="104" type="curve" smooth="yes"/>
			<point x="232" y="104"/>
			<point x="192" y="128"/>
			<point x="192" y="176" type="curve" smooth="yes"/>
			<point x="192" y="224"/>
			<point x="224" y="252"/>
			<point x="288" y="252" type="curve" smooth="yes"/>
			<point x="372" y="252" type="line"/>
			<point x="384" y="240" type="line"/>
			<point x="384" y="208" type="line" smooth="yes"/>
			<point x="384" y="144"/>
			<point x="344" y="104"/>
		</contour>
	</outline>
</glyph>
<glyph name="dcaron" format="2">
	<unicode hex="010F"/>
	<advance width="748"/>
	<outline>
		<contour>
			<point x="656" y="544" type="line"/>
			<point x="728" y="552"/>
			<point x="780" y="596"/>
			<point x="780" y="680" type="curve" smooth="yes"/>
			<point x="780" y="784" type="line"/>
			<point x="764" y="800" type="line"/>
			<point x="656" y="800" type="line"/>
			<point x="640" y="784" type="line"/>
			<point x="640" y="696" type="line"/>
			<point x="656" y="680" type="line"/>
			<point x="692" y="680" type="line"/>
			<point x="704" y="668" type="line"/>
			<point x="704" y="640"/>
			<point x="692" y="620"/>
			<point x="656" y="608" type="curve"/>
			<point x="640" y="592" type="line"/>
			<point x="640" y="560" type="line"/>
		</contour>
		<component base="d"/>
	</outline>
</glyph>
<glyph name="Dcroat" format="2">
	<unicode hex="0110"/>
	<advance width="812"/>
	<outline>
		<contour>
			<point x="88" y="0" type="line"/>
			<point x="408" y="0" type="line" smooth="yes"/>
			<point x="648" y="0"/>
			<point x="788" y="160"/>
			<point x="788" y="400" type="curve" smooth="yes"/>
			<point x="788" y="640"/>
			<point x="648" y="800"/>
			<point x="408" y="800" type="curve" smooth="yes"/>
			<point x="88" y="800" type="line"/>
			<point x="72" y="784" type="line"/>
			<point x="72" y="496" type="line"/>
			<point x="60" y="484" type="line"/>
			<point x="32" y="484" type="line"/>
			<point x="16" y="468" type="line"/>
			<point x="16" y="348" type="line"/>
			<point x="32" y="332" type="line"/>
			<point x="60" y="332" type="line"/>
			<point x="72" y="320" type="line"/>
			<point x="72" y="16" type="line"/>
		</contour>
		<contour>
			<point x="284" y="168" type="line"/>
			<point x="272" y="180" type="line"/>
			<point x="272" y="320" type="line"/>
			<point x="284" y="332" type="line"/>
			<point x="432" y="332" type="line"/>
			<point x="448" y="348" type="line"/>
			<point x="448" y="468" type="line"/>
			<point x="432" y="484" type="line"/>
			<point x="284" y="484" type="line"/>
			<point x="272" y="496" type="line"/>
			<point x="272" y="620" type="line"/>
			<point x="284" y="632" type="line"/>
			<point x="376" y="632" type="line" smooth="yes"/>
			<point x="532" y="632"/>
			<point x="580" y="556"/>
			<point x="580" y="400" type="curve" smooth="yes"/>
			<point x="580" y="244"/>
			<point x="532" y="168"/>
			<point x="376" y="168" type="curve" smooth="yes"/>
		</contour>
	</outline>
</glyph>
<glyph name="dcroat" format="2">
	<unicode hex="0111"/>
	<advance width="600"/>
	<outline>
		<contour>
			<point x="512" y="0" type="line"/>
			<point x="528" y="16" type="line"/>
			<point x="528" y="616" type="line"/>
			<point x="540" y="628" type="line"/>
			<point x="564" y="628" type="line"/>
			<point x="580" y="644" type="line"/>
			<point x="580" y="708" type="line"/>
			<point x="564" y="724" type="line"/>
			<point x="540" y="724" type="line"/>
			<point x="528" y="736" type="line"/>
			<point x="528" y="784" type="line"/>
			<point x="512" y="800" type="line"/>
			<point x="360" y="800" type="line"/>
			<point x="344" y="784" type="line"/>
			<point x="344" y="736" type="line"/>
			<point x="332" y="724" type="line"/>
			<point x="224" y="724" type="line"/>
			<point x="208" y="708" type="line"/>
			<point x="208" y="644" type="line"/>
			<point x="224" y="628" type="line"/>
			<point x="332" y="628" type="line"/>
			<point x="344" y="616" type="line"/>
			<point x="344" y="524" type="line"/>
			<point x="328" y="524" type="line"/>
			<point x="296" y="564"/>
			<point x="252" y="592"/>
			<point x="184" y="592" type="curve" smooth="yes"/>
			<point x="16" y="592"/>
			<point x="-68" y="456"/>
			<point x="-68" y="288" type="curve" smooth="yes"/>
			<point x="-68" y="120"/>
			<point x="12" y="-16"/>
			<point x="180" y="-16" type="curve" smooth="yes"/>
			<point x="256" y="-16"/>
			<point x="300" y="8"/>
			<point x="340" y="64" type="curve"/>
			<point x="356" y="64" type="line"/>
			<point x="364" y="16" type="line"/>
			<point x="380" y="0" type="line"/>
		</contour>
		<contour>
			<point x="232" y="452" type="curve" smooth="yes"/>
			<point x="320" y="452"/>
			<point x="348" y="376"/>
			<point x="348" y="288" type="curve" smooth="yes"/>
			<point x="348" y="200"/>
			<point x="320" y="128"/>
			<point x="232" y="128" type="curve" smooth="yes"/>
			<point x="144" y="128"/>
			<point x="116" y="200"/>
			<point x="116" y="288" type="curve" smooth="yes"/>
			<point x="116" y="376"/>
			<point x="144" y="452"/>
		</contour>
	</outline>
</glyph>
<glyph name="Eogonek" format="2">
	<unicode hex="0118"/>
	<advance width="664"/>
	<outline>
		<contour>
			<point x="48" y="0" type="line"/>
			<point x="472" y="0" type="line"/>
			<point x="472" y="-12" type="line"/>
			<point x="428" y="-28"/>
			<point x="404" y="-60"/>
			<point x="404" y="-100" type="curve" smooth="yes"/>
			<point x="404" y="-156"/>
			<point x="452" y="-196"/>
			<point x="528" y="-196" type="curve" smooth="yes"/>
			<point x="564" y="-196"/>
			<point x="592" y="-188"/>
			<point x="608" y="-180" type="curve"/>
			<point x="624" y="-164" type="line"/>
			<point x="624" y="-112" type="line"/>
			<point x="608" y="-96" type="line"/>
			<point x="592" y="-96" type="line" smooth="yes"/>
			<point x="564" y="-96"/>
			<point x="552" y="-88"/>
			<point x="552" y="-64" type="curve" smooth="yes"/>
			<point x="552" y="-48"/>
			<point x="560" y="-28"/>
			<point x="596" y="0" type="curve"/>
			<point x="624" y="0" type="line"/>
			<point x="640" y="16" type="line"/>
			<point x="640" y="152" type="line"/>
			<point x="624" y="168" type="line"/>
			<point x="244" y="168" type="line"/>
			<point x="232" y="180" type="line"/>
			<point x="232" y="324" type="line"/>
			<point x="244" y="336" type="line"/>
			<point x="568" y="336" type="line"/>
			<point x="584" y="352" type="line"/>
			<point x="584" y="480" type="line"/>
			<point x="568" y="496" type="line"/>
			<point x="244" y="496" type="line"/>
			<point x="232" y="508" type="line"/>
			<point x="232" y="624" type="line"/>
			<point x="244" y="636" type="line"/>
			<point x="624" y="636" type="line"/>
			<point x="640" y="652" type="line"/>
			<point x="640" y="784" type="line"/>
			<point x="624" y="800" type="line"/>
			<point x="48" y="800" type="line"/>
			<point x="32" y="784" type="line"/>
			<point x="32" y="16" type="line"/>
		</contour>
	</outline>
</glyph>
<glyph name="eogonek" format="2">
	<unicode hex="0119"/>
	<advance width="600"/>
	<outline>
		<contour>
			<point x="172" y="348" type="line"/>
			<point x="160" y="360" type="line"/>
			<point x="168" y="416"/>
			<point x="212" y="460"/>
			<point x="272" y="460" type="curve" smooth="yes"/>
			<point x="340" y="460"/>
			<point x="372" y="416"/>
			<point x="380" y="360" type="curve"/>
			<point x="368" y="348" type="line"/>
		</contour>
		<contour>
			<point x="352" y="-212" type="curve" smooth="yes"/>
			<point x="388" y="-212"/>
			<point x="416" y="-204"/>
			<point x="432" y="-196" type="curve"/>
			<point x="448" y="-180" type="line"/>
			<point x="448" y="-128" type="line"/>
			<point x="432" y="-112" type="line"/>
			<point x="416" y="-112" type="line" smooth="yes"/>
			<point x="388" y="-112"/>
			<point x="376" y="-104"/>
			<point x="376" y="-80" type="curve" smooth="yes"/>
			<point x="376" y="-40"/>
			<point x="404" y="-16"/>
			<point x="484" y="52" type="curve" smooth="yes"/>
			<point x="520" y="80"/>
			<point x="540" y="116"/>
			<point x="548" y="144" type="curve"/>
			<point x="548" y="160" type="line"/>
			<point x="532" y="176" type="line"/>
			<point x="396" y="176" type="line"/>
			<point x="380" y="160" type="line"/>
			<point x="356" y="128"/>
			<point x="328" y="120"/>
			<point x="284" y="120" type="curve" smooth="yes"/>
			<point x="208" y="120"/>
			<point x="168" y="156"/>
			<point x="160" y="228" type="curve"/>
			<point x="172" y="240" type="line"/>
			<point x="548" y="240" type="line"/>
			<point x="564" y="256" type="line"/>
			<point x="564" y="276" type="line" smooth="yes"/>
			<point x="564" y="448"/>
			<point x="444" y="592"/>
			<point x="272" y="592" type="curve" smooth="yes"/>
			<point x="92" y="592"/>
			<point x="-24" y="468"/>
			<point x="-24" y="288" type="curve" smooth="yes"/>
			<point x="-24" y="100"/>
			<point x="92" y="-16"/>
			<point x="280" y="-16" type="curve"/>
			<point x="280" y="-28" type="line"/>
			<point x="236" y="-52"/>
			<point x="228" y="-76"/>
			<point x="228" y="-116" type="curve" smooth="yes"/>
			<point x="228" y="-172"/>
			<point x="276" y="-212"/>
		</contour>
	</outline>
</glyph>
<glyph name="gcommaaccent" format="2">
	<unicode hex="0123"/>
	<advance width="608"/>
	<outline>
		<contour>
			<point x="368" y="908" type="line"/>
			<point x="296" y="892"/>
			<point x="244" y="852"/>
			<point x="244" y="772" type="curve" smooth="yes"/>
			<point x="244" y="668" type="line"/>
			<point x="260" y="652" type="line"/>
			<point x="368" y="652" type="line"/>
			<point x="384" y="668" type="line"/>
			<point x="384" y="756" type="line"/>
			<point x="368" y="772" type="line"/>
			<point x="336" y="772" type="line"/>
			<point x="324" y="784" type="line"/>
			<point x="324" y="812"/>
			<point x="332" y="836"/>
			<point x="368" y="848" type="curve"/>
			<point x="384" y="864" type="line"/>
			<point x="384" y="892" type="line"/>
		</contour>
		<component base="g"/>
	</outline>
</glyph>
<glyph name="Hbar" format="2">
	<unicode hex="0126"/>
	<advance width="828"/>
	<outline>
		<contour>
			<point x="92" y="0" type="line"/>
			<point x="260" y="0" type="line"/>
			<point x="276" y="16" type="line"/>
			<point x="276" y="320" type="line"/>
			<point x="288" y="332" type="line"/>
			<point x="540" y="332" type="line"/>
			<point x="552" y="320" type="line"/>
			<point x="552" y="16" type="line"/>
			<point x="568" y="0" type="line"/>
			<point x="736" y="0" type="line"/>
			<point x="752" y="16" type="line"/>
			<point x="752" y="564" type="line"/>
			<point x="764" y="576" type="line"/>
			<point x="796" y="576" type="line"/>
			<point x="812" y="592" type="line"/>
			<point x="812" y="656" type="line"/>
			<point x="796" y="672" type="line"/>
			<point x="764" y="672" type="line"/>
			<point x="752" y="684" type="line"/>
			<point x="752" y="784" type="line"/>
			<point x="736" y="800" type="line"/>
			<point x="568" y="800" type="line"/>
			<point x="552" y="784" type="line"/>
			<point x="552" y="688" type="line"/>
			<point x="540" y="676" type="line"/>
			<point x="288" y="676" type="line"/>
			<point x="276" y="688" type="line"/>
			<point x="276" y="784" type="line"/>
			<point x="260" y="800" type="line"/>
			<point x="92" y="800" type="line"/>
			<point x="76" y="784" type="line"/>
			<point x="76" y="684" type="line"/>
			<point x="64" y="672" type="line"/>
			<point x="32" y="672" type="line"/>
			<point x="16" y="656" type="line"/>
			<point x="16" y="592" type="line"/>
			<point x="32" y="576" type="line"/>
			<point x="64" y="576" type="line"/>
			<point x="76" y="564" type="line"/>
			<point x="76" y="16" type="line"/>
		</contour>
		<contour>
			<point x="276" y="512" type="line"/>
			<point x="276" y="564" type="line"/>
			<point x="288" y="576" type="line"/>
			<point x="540" y="576" type="line"/>
			<point x="552" y="564" type="line"/>
			<point x="552" y="512" type="line"/>
			<point x="540" y="500" type="line"/>
			<point x="288" y="500" type="line"/>
		</contour>
	</outline>
</glyph>
<glyph name="hbar" format="2">
	<unicode hex="0127"/>
	<advance width="656"/>
	<outline>
		<contour>
			<point x="88" y="0" type="line"/>
			<point x="240" y="0" type="line"/>
			<point x="256" y="16" type="line"/>
			<point x="256" y="344" type="line" smooth="yes"/>
			<point x="256" y="400"/>
			<point x="292" y="440"/>
			<point x="352" y="440" type="curve" smooth="yes"/>
			<point x="404" y="440"/>
			<point x="444" y="400"/>
			<point x="444" y="344" type="curve" smooth="yes"/>
			<point x="444" y="16" type="line"/>
			<point x="460" y="0" type="line"/>
			<point x="612" y="0" type="line"/>
			<point x="628" y="16" type="line"/>
			<point x="628" y="336" type="line" smooth="yes"/>
			<point x="628" y="492"/>
			<point x="580" y="592"/>
			<point x="428" y="592" type="curve" smooth="yes"/>
			<point x="352" y="592"/>
			<point x="300" y="564"/>
			<point x="268" y="512" type="curve"/>
			<point x="256" y="512" type="line"/>
			<point x="256" y="616" type="line"/>
			<point x="268" y="628" type="line"/>
			<point x="372" y="628" type="line"/>
			<point x="388" y="644" type="line"/>
			<point x="388" y="708" type="line"/>
			<point x="372" y="724" type="line"/>
			<point x="268" y="724" type="line"/>
			<point x="256" y="736" type="line"/>
			<point x="256" y="784" type="line"/>
			<point x="240" y="800" type="line"/>
			<point x="88" y="800" type="line"/>
			<point x="72" y="784" type="line"/>
			<point x="72" y="736" type="line"/>
			<point x="60" y="724" type="line"/>
			<point x="32" y="724" type="line"/>
			<point x="16" y="708" type="line"/>
			<point x="16" y="644" type="line"/>
			<point x="32" y="628" type="line"/>
			<point x="60" y="628" type="line"/>
			<point x="72" y="616" type="line"/>
			<point x="72" y="16" type="line"/>
		</contour>
	</outline>
</glyph>
<glyph name="Iogonek" format="2">
	<unicode hex="012E"/>
	<advance width="264"/>
	<outline>
		<contour>
			<point x="48" y="0" type="line"/>
			<point x="92" y="0" type="line"/>
			<point x="92" y="-12" type="line"/>
			<point x="48" y="-28"/>
			<point x="24" y="-60"/>
			<point x="24" y="-100" type="curve" smooth="yes"/>
			<point x="24" y="-156"/>
			<point x="72" y="-196"/>
			<point x="148" y="-196" type="curve" smooth="yes"/>
			<point x="184" y="-196"/>
			<point x="212" y="-188"/>
			<point x="228" y="-180" type="curve"/>
			<point x="244" y="-164" type="line"/>
			<point x="244" y="-112" type="line"/>
			<point x="228" y="-96" type="line"/>
			<point x="212" y="-96" type="line" smooth="yes"/>
			<point x="184" y="-96"/>
			<point x="172" y="-88"/>
			<point x="172" y="-64" type="curve" smooth="yes"/>
			<point x="172" y="-48"/>
			<point x="180" y="-28"/>
			<point x="216" y="0" type="curve"/>
			<point x="232" y="16" type="line"/>
			<point x="232" y="784" type="line"/>
			<point x="216" y="800" type="line"/>
			<point x="48" y="800" type="line"/>
			<point x="32" y="784" type="line"/>
			<point x="32" y="16" type="line"/>
		</contour>
	</outline>
</glyph>
<glyph name="iogonek" format="2">
	<unicode hex="012F"/>
	<advance width="244"/>
	<outline>
		<contour>
			<point x="48" y="632" type="line"/>
			<point x="196" y="632" type="line"/>
			<point x="212" y="648" type="line"/>
			<point x="212" y="784" type="line"/>
			<point x="196" y="800" type="line"/>
			<point x="48" y="800" type="line"/>
			<point x="32" y="784" type="line"/>
			<point x="32" y="648" type="line"/>
		</contour>
		<contour>
			<point x="48" y="0" type="line"/>
			<point x="72" y="0" type="line"/>
			<point x="72" y="-12" type="line"/>
			<point x="28" y="-28"/>
			<point x="4" y="-60"/>
			<point x="4" y="-100" type="curve" smooth="yes"/>
			<point x="4" y="-156"/>
			<point x="52" y="-196"/>
			<point x="128" y="-196" type="curve" smooth="yes"/>
			<point x="164" y="-196"/>
			<point x="192" y="-188"/>
			<point x="208" y="-180" type="curve"/>
			<point x="224" y="-164" type="line"/>
			<point x="224" y="-112" type="line"/>
			<point x="208" y="-96" type="line"/>
			<point x="192" y="-96" type="line" smooth="yes"/>
			<point x="164" y="-96"/>
			<point x="152" y="-88"/>
			<point x="152" y="-64" type="curve" smooth="yes"/>
			<point x="152" y="-48"/>
			<point x="160" y="-28"/>
			<point x="196" y="0" type="curve"/>
			<point x="212" y="16" type="line"/>
			<point x="212" y="560" type="line"/>
			<point x="196" y="576" type="line"/>
			<point x="48" y="576" type="line"/>
			<point x="32" y="560" type="line"/>
			<point x="32" y="16" type="line"/>
		</contour>
	</outline>
</glyph>
<glyph name="idotless" format="2">
	<unicode hex="0131"/>
	<advance width="248"/>
	<outline>
		<contour>
			<point x="48" y="0" type="line"/>
			<point x="200" y="0" type="line"/>
			<point x="216" y="16" type="line"/>
			<point x="216" y="560" type="line"/>
			<point x="200" y="576" type="line"/>
			<point x="48" y="576" type="line"/>
			<point x="32" y="560" type="line"/>
			<point x="32" y="16" type="line"/>
		</contour>
	</outline>
	<anchor name="bottom" x="124" y="0"/>
	<anchor name="ogonek" x="216" y="68"/>
	<anchor name="top" x="124" y="576"/>
</glyph>
<glyph name="Lcaron" format="2">
	<unicode hex="013D"/>
	<advance width="604"/>
	<outline>
		<contour>
			<point x="48" y="0" type="line"/>
			<point x="572" y="0" type="line"/>
			<point x="588" y="16" type="line"/>
			<point x="588" y="152" type="line"/>
			<point x="572" y="168" type="line"/>
			<point x="244" y="168" type="line"/>
			<point x="232" y="180" type="line"/>
			<point x="232" y="784" type="line"/>
			<point x="216" y="800" type="line"/>
			<point x="48" y="800" type="line"/>
			<point x="32" y="784" type="line"/>
			<point x="32" y="16" type="line"/>
		</contour>
		<contour>
			<point x="364" y="412" type="line"/>
			<point x="484" y="424"/>
			<point x="540" y="520"/>
			<point x="540" y="612" type="curve" smooth="yes"/>
			<point x="540" y="784" type="line"/>
			<point x="524" y="800" type="line"/>
			<point x="364" y="800" type="line"/>
			<point x="348" y="784" type="line"/>
			<point x="348" y="628" type="line"/>
			<point x="364" y="612" type="line"/>
			<point x="424" y="612" type="line"/>
			<point x="436" y="600" type="line"/>
			<point x="436" y="544"/>
			<point x="412" y="512"/>
			<point x="364" y="492" type="curve"/>
			<point x="348" y="476" type="line"/>
			<point x="348" y="428" type="line"/>
		</contour>
	</outline>
</glyph>
<glyph name="lcaron" format="2">
	<unicode hex="013E"/>
	<advance width="324"/>
	<outline>
		<contour>
			<point x="48" y="0" type="line"/>
			<point x="200" y="0" type="line"/>
			<point x="216" y="16" type="line"/>
			<point x="216" y="784" type="line"/>
			<point x="200" y="800" type="line"/>
			<point x="48" y="800" type="line"/>
			<point x="32" y="784" type="line"/>
			<point x="32" y="16" type="line"/>
		</contour>
		<contour>
			<point x="264" y="544" type="line"/>
			<point x="336" y="552"/>
			<point x="388" y="596"/>
			<point x="388" y="680" type="curve" smooth="yes"/>
			<point x="388" y="784" type="line"/>
			<point x="372" y="800" type="line"/>
			<point x="264" y="800" type="line"/>
			<point x="248" y="784" type="line"/>
			<point x="248" y="696" type="line"/>
			<point x="264" y="680" type="line"/>
			<point x="300" y="680" type="line"/>
			<point x="312" y="668" type="line"/>
			<point x="312" y="640"/>
			<point x="300" y="620"/>
			<point x="264" y="608" type="curve"/>
			<point x="248" y="592" type="line"/>
			<point x="248" y="560" type="line"/>
		</contour>
	</outline>
</glyph>
<glyph name="Lslash" format="2">
	<unicode hex="0141"/>
	<advance width="656"/>
	<outline>
		<contour>
			<point x="100" y="0" type="line"/>
			<point x="624" y="0" type="line"/>
			<point x="640" y="16" type="line"/>
			<point x="640" y="152" type="line"/>
			<point x="624" y="168" type="line"/>
			<point x="296" y="168" type="line"/>
			<point x="284" y="180" type="line"/>
			<point x="284" y="340" type="line"/>
			<point x="292" y="348" type="line"/>
			<point x="480" y="452" type="line"/>
			<point x="496" y="468" type="line"/>
			<point x="496" y="560" type="line"/>
			<point x="480" y="576" type="line"/>
			<point x="464" y="576" type="line"/>
			<point x="296" y="484" type="line"/>
			<point x="284" y="484" type="line"/>
			<point x="284" y="784" type="line"/>
			<point x="268" y="800" type="line"/>
			<point x="100" y="800" type="line"/>
			<point x="84" y="784" type="line"/>
			<point x="84" y="380" type="line"/>
			<point x="76" y="372" type="line"/>
			<point x="32" y="344" type="line"/>
			<point x="16" y="328" type="line"/>
			<point x="16" y="240" type="line"/>
			<point x="32" y="224" type="line"/>
			<point x="48" y="224" type="line"/>
			<point x="76" y="240" type="line"/>
			<point x="84" y="240" type="line"/>
			<point x="84" y="16" type="line"/>
		</contour>
	</outline>
</glyph>
<glyph name="lslash" format="2">
	<unicode hex="0142"/>
	<advance width="376"/>
	<outline>
		<contour>
			<point x="112" y="0" type="line"/>
			<point x="264" y="0" type="line"/>
			<point x="280" y="16" type="line"/>
			<point x="280" y="412" type="line"/>
			<point x="328" y="452" type="line"/>
			<point x="344" y="468" type="line"/>
			<point x="344" y="560" type="line"/>
			<point x="328" y="576" type="line"/>
			<point x="312" y="576" type="line"/>
			<point x="280" y="548" type="line"/>
			<point x="280" y="784" type="line"/>
			<point x="264" y="800" type="line"/>
			<point x="112" y="800" type="line"/>
			<point x="96" y="784" type="line"/>
			<point x="96" y="388" type="line"/>
			<point x="48" y="344" type="line"/>
			<point x="32" y="328" type="line"/>
			<point x="32" y="240" type="line"/>
			<point x="48" y="224" type="line"/>
			<point x="64" y="224" type="line"/>
			<point x="96" y="252" type="line"/>
			<point x="96" y="16" type="line"/>
		</contour>
	</outline>
</glyph>
<glyph name="Eng" format="2">
	<unicode hex="014A"/>
	<advance width="756"/>
	<outline>
		<contour>
			<point x="48" y="0" type="line"/>
			<point x="216" y="0" type="line"/>
			<point x="232" y="16" type="line"/>
			<point x="232" y="476" type="line"/>
			<point x="244" y="476" type="line"/>
			<point x="292" y="384" type="line"/>
			<point x="528" y="0" type="line"/>
			<point x="528" y="-16" type="line" smooth="yes"/>
			<point x="528" y="-72"/>
			<point x="485" y="-92"/>
			<point x="436" y="-92" type="curve" smooth="yes"/>
			<point x="356" y="-92" type="line"/>
			<point x="340" y="-108" type="line"/>
			<point x="340" y="-224" type="line"/>
			<point x="356" y="-240" type="line"/>
			<point x="436" y="-240" type="line" smooth="yes"/>
			<point x="588" y="-240"/>
			<point x="724" y="-176"/>
			<point x="724" y="-24" type="curve" smooth="yes"/>
			<point x="724" y="784" type="line"/>
			<point x="708" y="800" type="line"/>
			<point x="540" y="800" type="line"/>
			<point x="524" y="784" type="line"/>
			<point x="524" y="328" type="line"/>
			<point x="512" y="328" type="line"/>
			<point x="464" y="416" type="line"/>
			<point x="244" y="784" type="line"/>
			<point x="228" y="800" type="line"/>
			<point x="48" y="800" type="line"/>
			<point x="32" y="784" type="line"/>
			<point x="32" y="16" type="line"/>
		</contour>
	</outline>
</glyph>
<glyph name="eng" format="2">
	<unicode hex="014B"/>
	<advance width="600"/>
	<outline>
		<contour>
			<point x="48" y="0" type="line"/>
			<point x="196" y="0" type="line"/>
			<point x="212" y="16" type="line"/>
			<point x="212" y="324" type="line" smooth="yes"/>
			<point x="212" y="392"/>
			<point x="240" y="436"/>
			<point x="308" y="436" type="curve" smooth="yes"/>
			<point x="376" y="436"/>
			<point x="404" y="392"/>
			<point x="404" y="324" type="curve" smooth="yes"/>
			<point x="404" y="-16" type="line" smooth="yes"/>
			<point x="404" y="-40"/>
			<point x="392" y="-48"/>
			<point x="368" y="-48" type="curve" smooth="yes"/>
			<point x="324" y="-48" type="line"/>
			<point x="308" y="-64" type="line"/>
			<point x="308" y="-168" type="line"/>
			<point x="324" y="-184" type="line"/>
			<point x="424" y="-184" type="line" smooth="yes"/>
			<point x="528" y="-184"/>
			<point x="584" y="-128"/>
			<point x="584" y="-24" type="curve" smooth="yes"/>
			<point x="584" y="320" type="line" smooth="yes"/>
			<point x="584" y="488"/>
			<point x="548" y="592"/>
			<point x="380" y="592" type="curve" smooth="yes"/>
			<point x="312" y="592"/>
			<point x="260" y="568"/>
			<point x="220" y="512" type="curve"/>
			<point x="204" y="512" type="line"/>
			<point x="196" y="560" type="line"/>
			<point x="180" y="576" type="line"/>
			<point x="48" y="576" type="line"/>
			<point x="32" y="560" type="line"/>
			<point x="32" y="16" type="line"/>
		</contour>
	</outline>
</glyph>
<glyph name="OE" format="2">
	<unicode hex="0152"/>
	<advance width="1188"/>
	<outline>
		<contour>
			<point x="608" y="0" type="line"/>
			<point x="1148" y="0" type="line"/>
			<point x="1164" y="16" type="line"/>
			<point x="1164" y="152" type="line"/>
			<point x="1148" y="168" type="line"/>
			<point x="800" y="168" type="line"/>
			<point x="788" y="180" type="line"/>
			<point x="788" y="324" type="line"/>
			<point x="800" y="336" type="line"/>
			<point x="1092" y="336" type="line"/>
			<point x="1108" y="352" type="line"/>
			<point x="1108" y="480" type="line"/>
			<point x="1092" y="496" type="line"/>
			<point x="800" y="496" type="line"/>
			<point x="788" y="508" type="line"/>
			<point x="788" y="624" type="line"/>
			<point x="800" y="636" type="line"/>
			<point x="1148" y="636" type="line"/>
			<point x="1164" y="652" type="line"/>
			<point x="1164" y="784" type="line"/>
			<point x="1148" y="800" type="line"/>
			<point x="608" y="800" type="line"/>
			<point x="592" y="784" type="line"/>
			<point x="592" y="748" type="line"/>
			<point x="580" y="748" type="line"/>
			<point x="536" y="792"/>
			<point x="472" y="816"/>
			<point x="400" y="816" type="curve" smooth="yes"/>
			<point x="176" y="816"/>
			<point x="24" y="648"/>
			<point x="24" y="400" type="curve" smooth="yes"/>
			<point x="24" y="152"/>
			<point x="176" y="-16"/>
			<point x="400" y="-16" type="curve" smooth="yes"/>
			<point x="472" y="-16"/>
			<point x="536" y="0"/>
			<point x="580" y="44" type="curve"/>
			<point x="592" y="44" type="line"/>
			<point x="592" y="16" type="line"/>
		</contour>
		<contour>
			<point x="400" y="152" type="curve" smooth="yes"/>
			<point x="316" y="152"/>
			<point x="232" y="216"/>
			<point x="232" y="400" type="curve" smooth="yes"/>
			<point x="232" y="584"/>
			<point x="316" y="648"/>
			<point x="400" y="648" type="curve" smooth="yes"/>
			<point x="512" y="648"/>
			<point x="588" y="584"/>
			<point x="588" y="400" type="curve" smooth="yes"/>
			<point x="588" y="216"/>
			<point x="512" y="152"/>
		</contour>
	</outline>
</glyph>
<glyph name="oe" format="2">
	<unicode hex="0153"/>
	<advance width="1040"/>
	<outline>
		<contour>
			<point x="324" y="-16" type="curve" smooth="yes"/>
			<point x="416" y="-16"/>
			<point x="484" y="16"/>
			<point x="532" y="68" type="curve"/>
			<point x="576" y="16"/>
			<point x="644" y="-16"/>
			<point x="740" y="-16" type="curve" smooth="yes"/>
			<point x="892" y="-16"/>
			<point x="984" y="72"/>
			<point x="1008" y="144" type="curve"/>
			<point x="1008" y="160" type="line"/>
			<point x="992" y="176" type="line"/>
			<point x="856" y="176" type="line"/>
			<point x="840" y="160" type="line"/>
			<point x="816" y="128"/>
			<point x="788" y="120"/>
			<point x="744" y="120" type="curve" smooth="yes"/>
			<point x="668" y="120"/>
			<point x="628" y="156"/>
			<point x="620" y="228" type="curve"/>
			<point x="632" y="240" type="line"/>
			<point x="1008" y="240" type="line"/>
			<point x="1024" y="256" type="line"/>
			<point x="1024" y="276" type="line" smooth="yes"/>
			<point x="1024" y="448"/>
			<point x="904" y="592"/>
			<point x="732" y="592" type="curve" smooth="yes"/>
			<point x="640" y="592"/>
			<point x="576" y="560"/>
			<point x="532" y="504" type="curve"/>
			<point x="484" y="560"/>
			<point x="416" y="592"/>
			<point x="324" y="592" type="curve" smooth="yes"/>
			<point x="144" y="592"/>
			<point x="16" y="468"/>
			<point x="16" y="288" type="curve" smooth="yes"/>
			<point x="16" y="108"/>
			<point x="144" y="-16"/>
		</contour>
		<contour>
			<point x="324" y="116" type="curve" smooth="yes"/>
			<point x="228" y="116"/>
			<point x="204" y="192"/>
			<point x="204" y="288" type="curve" smooth="yes"/>
			<point x="204" y="384"/>
			<point x="228" y="460"/>
			<point x="324" y="460" type="curve" smooth="yes"/>
			<point x="420" y="460"/>
			<point x="444" y="384"/>
			<point x="444" y="288" type="curve" smooth="yes"/>
			<point x="444" y="192"/>
			<point x="420" y="116"/>
		</contour>
		<contour>
			<point x="632" y="348" type="line"/>
			<point x="620" y="360" type="line"/>
			<point x="628" y="416"/>
			<point x="672" y="460"/>
			<point x="732" y="460" type="curve" smooth="yes"/>
			<point x="800" y="460"/>
			<point x="832" y="416"/>
			<point x="840" y="360" type="curve"/>
			<point x="828" y="348" type="line"/>
		</contour>
	</outline>
</glyph>
<glyph name="Scedilla" format="2">
	<unicode hex="015E"/>
	<advance width="600"/>
	<outline>
		<contour>
			<point x="356" y="-16" type="line"/>
			<point x="552" y="-8"/>
			<point x="660" y="88"/>
			<point x="660" y="240" type="curve" smooth="yes"/>
			<point x="660" y="384"/>
			<point x="560" y="448"/>
			<point x="384" y="488" type="curve" smooth="yes"/>
			<point x="240" y="520"/>
			<point x="196" y="548"/>
			<point x="196" y="588" type="curve" smooth="yes"/>
			<point x="196" y="648"/>
			<point x="256" y="668"/>
			<point x="312" y="668" type="curve" smooth="yes"/>
			<point x="380" y="668"/>
			<point x="424" y="640"/>
			<point x="436" y="584" type="curve"/>
			<point x="452" y="568" type="line"/>
			<point x="616" y="568" type="line"/>
			<point x="632" y="584" type="line"/>
			<point x="632" y="732"/>
			<point x="480" y="816"/>
			<point x="312" y="816" type="curve" smooth="yes"/>
			<point x="100" y="816"/>
			<point x="-4" y="704"/>
			<point x="-4" y="576" type="curve" smooth="yes"/>
			<point x="-4" y="444"/>
			<point x="96" y="376"/>
			<point x="260" y="336" type="curve" smooth="yes"/>
			<point x="420" y="296"/>
			<point x="456" y="268"/>
			<point x="456" y="224" type="curve" smooth="yes"/>
			<point x="456" y="172"/>
			<point x="420" y="140"/>
			<point x="332" y="140" type="curve" smooth="yes"/>
			<point x="240" y="140"/>
			<point x="184" y="176"/>
			<point x="176" y="240" type="curve"/>
			<point x="160" y="256" type="line"/>
			<point x="-8" y="256" type="line"/>
			<point x="-24" y="240" type="line"/>
			<point x="-24" y="84"/>
			<point x="104" y="0"/>
			<point x="280" y="-16" type="curve"/>
			<point x="280" y="-20" type="line"/>
			<point x="228" y="-76" type="line"/>
			<point x="244" y="-104" type="line"/>
			<point x="256" y="-104" type="line"/>
			<point x="264" y="-100"/>
			<point x="276" y="-96"/>
			<point x="288" y="-96" type="curve" smooth="yes"/>
			<point x="308" y="-96"/>
			<point x="324" y="-108"/>
			<point x="324" y="-124" type="curve" smooth="yes"/>
			<point x="324" y="-148"/>
			<point x="308" y="-160"/>
			<point x="268" y="-160" type="curve" smooth="yes"/>
			<point x="240" y="-160"/>
			<point x="228" y="-156"/>
			<point x="200" y="-144" type="curve"/>
			<point x="188" y="-144" type="line"/>
			<point x="172" y="-172" type="line"/>
			<point x="172" y="-184" type="line"/>
			<point x="204" y="-200"/>
			<point x="240" y="-212"/>
			<point x="292" y="-212" type="curve" smooth="yes"/>
			<point x="380" y="-212"/>
			<point x="432" y="-180"/>
			<point x="432" y="-124" type="curve" smooth="yes"/>
			<point x="432" y="-72"/>
			<point x="396" y="-48"/>
			<point x="360" y="-48" type="curve" smooth="yes"/>
			<point x="348" y="-48"/>
			<point x="332" y="-48"/>
			<point x="320" y="-52" type="curve"/>
			<point x="316" y="-44" type="line"/>
		</contour>
	</outline>
</glyph>
<glyph name="scedilla" format="2">
	<unicode hex="015F"/>
	<advance width="600"/>
	<outline>
		<contour>
			<point x="340" y="-16" type="line"/>
			<point x="500" y="-8"/>
			<point x="572" y="68"/>
			<point x="572" y="176" type="curve" smooth="yes"/>
			<point x="572" y="268"/>
			<point x="532" y="324"/>
			<point x="408" y="348" type="curve" smooth="yes"/>
			<point x="248" y="380"/>
			<point x="216" y="388"/>
			<point x="216" y="424" type="curve" smooth="yes"/>
			<point x="216" y="464"/>
			<point x="256" y="476"/>
			<point x="292" y="476" type="curve" smooth="yes"/>
			<point x="344" y="476"/>
			<point x="376" y="456"/>
			<point x="384" y="424" type="curve"/>
			<point x="400" y="408" type="line"/>
			<point x="532" y="408" type="line"/>
			<point x="548" y="424" type="line"/>
			<point x="548" y="440" type="line"/>
			<point x="520" y="540"/>
			<point x="432" y="592"/>
			<point x="292" y="592" type="curve" smooth="yes"/>
			<point x="136" y="592"/>
			<point x="44" y="512"/>
			<point x="44" y="408" type="curve" smooth="yes"/>
			<point x="44" y="304"/>
			<point x="108" y="248"/>
			<point x="276" y="224" type="curve" smooth="yes"/>
			<point x="380" y="208"/>
			<point x="396" y="188"/>
			<point x="396" y="160" type="curve" smooth="yes"/>
			<point x="396" y="124"/>
			<point x="368" y="104"/>
			<point x="312" y="104" type="curve" smooth="yes"/>
			<point x="240" y="104"/>
			<point x="212" y="144"/>
			<point x="204" y="172" type="curve"/>
			<point x="188" y="188" type="line"/>
			<point x="52" y="188" type="line"/>
			<point x="36" y="172" type="line"/>
			<point x="36" y="156" type="line"/>
			<point x="52" y="60"/>
			<point x="128" y="-4"/>
			<point x="264" y="-16" type="curve"/>
			<point x="264" y="-24" type="line"/>
			<point x="212" y="-80" type="line"/>
			<point x="228" y="-108" type="line"/>
			<point x="240" y="-108" type="line"/>
			<point x="248" y="-104"/>
			<point x="260" y="-100"/>
			<point x="272" y="-100" type="curve" smooth="yes"/>
			<point x="292" y="-100"/>
			<point x="308" y="-112"/>
			<point x="308" y="-128" type="curve" smooth="yes"/>
			<point x="308" y="-152"/>
			<point x="292" y="-164"/>
			<point x="252" y="-164" type="curve" smooth="yes"/>
			<point x="224" y="-164"/>
			<point x="212" y="-160"/>
			<point x="184" y="-148" type="curve"/>
			<point x="172" y="-148" type="line"/>
			<point x="156" y="-176" type="line"/>
			<point x="156" y="-188" type="line"/>
			<point x="188" y="-204"/>
			<point x="224" y="-216"/>
			<point x="276" y="-216" type="curve" smooth="yes"/>
			<point x="364" y="-216"/>
			<point x="416" y="-184"/>
			<point x="416" y="-128" type="curve" smooth="yes"/>
			<point x="416" y="-76"/>
			<point x="380" y="-52"/>
			<point x="344" y="-52" type="curve" smooth="yes"/>
			<point x="332" y="-52"/>
			<point x="316" y="-52"/>
			<point x="304" y="-56" type="curve"/>
			<point x="300" y="-48" type="line"/>
		</contour>
	</outline>
</glyph>
<glyph name="tcaron" format="2">
	<unicode hex="0165"/>
	<advance width="464"/>
	<outline>
		<contour>
			<point x="236" y="0" type="curve" smooth="yes"/>
			<point x="360" y="0" type="line"/>
			<point x="376" y="16" type="line"/>
			<point x="376" y="120" type="line"/>
			<point x="360" y="136" type="line"/>
			<point x="320" y="136" type="line" smooth="yes"/>
			<point x="288" y="136"/>
			<point x="272" y="152"/>
			<point x="272" y="184" type="curve" smooth="yes"/>
			<point x="272" y="448" type="line"/>
			<point x="284" y="460" type="line"/>
			<point x="360" y="460" type="line"/>
			<point x="376" y="476" type="line"/>
			<point x="376" y="560" type="line"/>
			<point x="360" y="576" type="line"/>
			<point x="284" y="576" type="line"/>
			<point x="272" y="588" type="line"/>
			<point x="272" y="740" type="line"/>
			<point x="256" y="756" type="line"/>
			<point x="108" y="756" type="line"/>
			<point x="92" y="740" type="line"/>
			<point x="92" y="588" type="line"/>
			<point x="80" y="576" type="line"/>
			<point x="32" y="576" type="line"/>
			<point x="16" y="560" type="line"/>
			<point x="16" y="476" type="line"/>
			<point x="32" y="460" type="line"/>
			<point x="80" y="460" type="line"/>
			<point x="92" y="448" type="line"/>
			<point x="92" y="136" type="line" smooth="yes"/>
			<point x="92" y="48"/>
			<point x="148" y="0"/>
		</contour>
		<contour>
			<point x="332" y="608" type="line"/>
			<point x="404" y="616"/>
			<point x="456" y="656"/>
			<point x="456" y="740" type="curve" smooth="yes"/>
			<point x="456" y="816" type="line"/>
			<point x="440" y="832" type="line"/>
			<point x="332" y="832" type="line"/>
			<point x="316" y="816" type="line"/>
			<point x="316" y="736" type="line"/>
			<point x="332" y="720" type="line"/>
			<point x="368" y="720" type="line"/>
			<point x="380" y="708" type="line"/>
			<point x="380" y="688"/>
			<point x="368" y="664"/>
			<point x="332" y="656" type="curve"/>
			<point x="316" y="640" type="line"/>
			<point x="316" y="624" type="line"/>
		</contour>
	</outline>
</glyph>
<glyph name="Uogonek" format="2">
	<unicode hex="0172"/>
	<advance width="600"/>
	<outline>
		<contour>
			<point x="300" y="-16" type="curve"/>
			<point x="300" y="-28" type="line"/>
			<point x="248" y="-36"/>
			<point x="224" y="-64"/>
			<point x="224" y="-112" type="curve" smooth="yes"/>
			<point x="224" y="-164"/>
			<point x="272" y="-196"/>
			<point x="348" y="-196" type="curve" smooth="yes"/>
			<point x="384" y="-196"/>
			<point x="412" y="-188"/>
			<point x="428" y="-180" type="curve"/>
			<point x="444" y="-164" type="line"/>
			<point x="444" y="-112" type="line"/>
			<point x="428" y="-96" type="line"/>
			<point x="412" y="-96" type="line" smooth="yes"/>
			<point x="384" y="-96"/>
			<point x="372" y="-88"/>
			<point x="372" y="-64" type="curve" smooth="yes"/>
			<point x="372" y="-44"/>
			<point x="384" y="-16"/>
			<point x="432" y="0" type="curve" smooth="yes"/>
			<point x="552" y="40"/>
			<point x="636" y="124"/>
			<point x="636" y="276" type="curve" smooth="yes"/>
			<point x="636" y="784" type="line"/>
			<point x="620" y="800" type="line"/>
			<point x="452" y="800" type="line"/>
			<point x="436" y="784" type="line"/>
			<point x="436" y="304" type="line" smooth="yes"/>
			<point x="436" y="212"/>
			<point x="392" y="152"/>
			<point x="300" y="152" type="curve" smooth="yes"/>
			<point x="208" y="152"/>
			<point x="168" y="212"/>
			<point x="168" y="304" type="curve" smooth="yes"/>
			<point x="168" y="784" type="line"/>
			<point x="152" y="800" type="line"/>
			<point x="-16" y="800" type="line"/>
			<point x="-32" y="784" type="line"/>
			<point x="-32" y="276" type="line" smooth="yes"/>
			<point x="-32" y="76"/>
			<point x="100" y="-16"/>
		</contour>
	</outline>
</glyph>
<glyph name="uogonek" format="2">
	<unicode hex="0173"/>
	<advance width="600"/>
	<outline>
		<contour>
			<point x="564" y="576" type="line"/>
			<point x="416" y="576" type="line"/>
			<point x="400" y="560" type="line"/>
			<point x="400" y="252" type="line" smooth="yes"/>
			<point x="400" y="184"/>
			<point x="372" y="140"/>
			<point x="304" y="140" type="curve" smooth="yes"/>
			<point x="236" y="140"/>
			<point x="208" y="184"/>
			<point x="208" y="252" type="curve" smooth="yes"/>
			<point x="208" y="560" type="line"/>
			<point x="192" y="576" type="line"/>
			<point x="44" y="576" type="line"/>
			<point x="28" y="560" type="line"/>
			<point x="28" y="256" type="line" smooth="yes"/>
			<point x="28" y="88"/>
			<point x="64" y="-16"/>
			<point x="232" y="-16" type="curve" smooth="yes"/>
			<point x="300" y="-16"/>
			<point x="352" y="8"/>
			<point x="392" y="64" type="curve"/>
			<point x="408" y="64" type="line"/>
			<point x="416" y="16" type="line"/>
			<point x="432" y="0" type="line"/>
			<point x="440" y="0" type="line"/>
			<point x="440" y="-12" type="line"/>
			<point x="396" y="-28"/>
			<point x="372" y="-60"/>
			<point x="372" y="-100" type="curve" smooth="yes"/>
			<point x="372" y="-156"/>
			<point x="420" y="-196"/>
			<point x="496" y="-196" type="curve" smooth="yes"/>
			<point x="532" y="-196"/>
			<point x="560" y="-188"/>
			<point x="576" y="-180" type="curve"/>
			<point x="592" y="-164" type="line"/>
			<point x="592" y="-112" type="line"/>
			<point x="576" y="-96" type="line"/>
			<point x="560" y="-96" type="line" smooth="yes"/>
			<point x="532" y="-96"/>
			<point x="520" y="-88"/>
			<point x="520" y="-64" type="curve" smooth="yes"/>
			<point x="520" y="-48"/>
			<point x="532" y="-32"/>
			<point x="564" y="0" type="curve" smooth="yes"/>
			<point x="580" y="16" type="line"/>
			<point x="580" y="560" type="line"/>
		</contour>
	</outline>
</glyph>
<glyph name="jdotless" format="2">
	<unicode hex="0237"/>
	<advance width="232"/>
	<outline>
		<contour>
			<point x="-64" y="-188" type="line"/>
			<point x="36" y="-188" type="line" smooth="yes"/>
			<point x="140" y="-188"/>
			<point x="200" y="-132"/>
			<point x="200" y="-28" type="curve" smooth="yes"/>
			<point x="200" y="560" type="line"/>
			<point x="184" y="576" type="line"/>
			<point x="32" y="576" type="line"/>
			<point x="16" y="560" type="line"/>
			<point x="16" y="-20" type="line" smooth="yes"/>
			<point x="16" y="-44"/>
			<point x="4" y="-52"/>
			<point x="-20" y="-52" type="curve" smooth="yes"/>
			<point x="-64" y="-52" type="line"/>
			<point x="-80" y="-68" type="line"/>
			<point x="-80" y="-172" type="line"/>
		</contour>
	</outline>
</glyph>
